<?xml version="1.0" encoding="UTF-8"?>
<svg xmlns="http://www.w3.org/2000/svg" xmlns:xlink="http://www.w3.org/1999/xlink" width="500px" height="px" viewBox="0 0 500 745" version="1.1">
<g id="surface1">
<path style=" stroke:none;fill-rule:nonzero;fill:rgb(79.215686%,79.215686%,79.215686%);fill-opacity:1;" d="M 0 563.257812 L 0.785156 561.242188 L 437.144531 731.148438 L 436.359375 733.164062 Z M 0 563.257812 "/>
<path style=" stroke:none;fill-rule:nonzero;fill:rgb(94.901961%,94.901961%,94.901961%);fill-opacity:1;" d="M 312.589844 0.332031 L 70.039062 64.214844 C 69.070312 64.488281 68.171875 64.976562 67.417969 65.644531 C 66.574219 66.382812 65.855469 67.25 65.289062 68.214844 C 64.664062 69.257812 64.183594 70.382812 63.859375 71.554688 C 63.511719 72.78125 63.335938 74.050781 63.332031 75.328125 L 63.332031 434.816406 C 63.332031 436.070312 63.507812 437.320312 63.859375 438.527344 C 64.175781 439.648438 64.660156 440.722656 65.289062 441.707031 C 65.851562 442.601562 66.574219 443.386719 67.417969 444.027344 C 68.1875 444.613281 69.085938 445 70.039062 445.15625 L 312.589844 480.835938 C 313.996094 481.050781 315.433594 480.9375 316.789062 480.511719 C 318.082031 480.097656 319.261719 479.394531 320.238281 478.457031 C 321.253906 477.476562 322.050781 476.296875 322.578125 474.988281 C 323.15625 473.542969 323.449219 472.003906 323.441406 470.445312 L 323.441406 9.460938 C 323.457031 7.9375 323.164062 6.425781 322.578125 5.019531 C 322.0625 3.785156 321.261719 2.691406 320.238281 1.824219 C 319.246094 0.992188 318.058594 0.421875 316.789062 0.167969 C 315.394531 -0.101562 313.957031 -0.046875 312.589844 0.332031 Z M 312.589844 0.332031 "/>
<path style=" stroke:none;fill-rule:nonzero;fill:rgb(100%,100%,100%);fill-opacity:1;" d="M 76.019531 74.300781 C 75.332031 74.503906 74.703125 74.851562 74.171875 75.328125 C 73.578125 75.851562 73.074219 76.460938 72.675781 77.140625 C 72.242188 77.878906 71.90625 78.675781 71.683594 79.503906 C 71.445312 80.367188 71.332031 81.261719 71.339844 82.160156 L 71.339844 427.058594 C 71.332031 427.9375 71.445312 428.820312 71.683594 429.667969 C 71.902344 430.460938 72.234375 431.21875 72.675781 431.914062 C 73.070312 432.546875 73.574219 433.101562 74.167969 433.558594 C 74.707031 433.972656 75.34375 434.253906 76.015625 434.367188 L 303.210938 464.949219 C 304.179688 465.066406 305.160156 464.957031 306.082031 464.632812 C 306.960938 464.316406 307.761719 463.804688 308.417969 463.136719 C 309.101562 462.4375 309.632812 461.605469 309.976562 460.691406 C 310.359375 459.679688 310.542969 458.609375 310.523438 457.53125 L 310.523438 23.867188 C 310.546875 22.808594 310.363281 21.757812 309.976562 20.773438 C 309.636719 19.90625 309.105469 19.132812 308.417969 18.503906 C 307.75 17.910156 306.949219 17.488281 306.082031 17.28125 C 305.136719 17.0625 304.152344 17.070312 303.210938 17.300781 Z M 76.019531 74.300781 "/>
<path style=" stroke:none;fill-rule:nonzero;fill:rgb(94.901961%,94.901961%,94.901961%);fill-opacity:1;" d="M 85.628906 88.089844 C 85.160156 88.210938 84.730469 88.445312 84.375 88.777344 C 83.96875 89.152344 83.625 89.59375 83.359375 90.082031 C 83.054688 90.628906 82.824219 91.214844 82.671875 91.820312 C 82.503906 92.46875 82.417969 93.140625 82.414062 93.8125 L 82.414062 141.847656 C 82.414062 142.484375 82.496094 143.121094 82.667969 143.734375 C 82.808594 144.253906 83.042969 144.75 83.355469 145.191406 C 83.617188 145.570312 83.964844 145.875 84.375 146.085938 C 84.761719 146.273438 85.203125 146.335938 85.625 146.261719 L 288.695312 111.320312 C 289.363281 111.199219 290 110.925781 290.550781 110.523438 C 291.144531 110.09375 291.65625 109.566406 292.070312 108.960938 C 292.515625 108.308594 292.863281 107.597656 293.097656 106.847656 C 293.347656 106.058594 293.476562 105.238281 293.476562 104.414062 L 293.476562 45.59375 C 293.484375 44.816406 293.355469 44.046875 293.097656 43.3125 C 292.878906 42.683594 292.527344 42.105469 292.070312 41.617188 C 291.210938 40.695312 289.917969 40.316406 288.695312 40.625 Z M 85.628906 88.089844 "/>
<path style=" stroke:none;fill-rule:nonzero;fill:rgb(94.901961%,94.901961%,94.901961%);fill-opacity:1;" d="M 85.628906 169.644531 C 85.167969 169.730469 84.730469 169.921875 84.359375 170.210938 C 83.953125 170.523438 83.605469 170.90625 83.332031 171.339844 C 83.03125 171.8125 82.800781 172.328125 82.644531 172.871094 C 82.484375 173.449219 82.40625 174.046875 82.414062 174.648438 L 82.414062 277.320312 C 82.40625 277.90625 82.488281 278.492188 82.652344 279.054688 C 82.800781 279.5625 83.035156 280.039062 83.339844 280.46875 C 83.609375 280.851562 83.960938 281.175781 84.367188 281.417969 C 84.75 281.640625 85.1875 281.761719 85.632812 281.757812 L 288.699219 275.976562 C 289.355469 275.945312 289.996094 275.769531 290.574219 275.460938 C 291.160156 275.152344 291.679688 274.730469 292.101562 274.222656 C 292.546875 273.691406 292.890625 273.089844 293.125 272.4375 C 293.367188 271.75 293.488281 271.027344 293.480469 270.296875 L 293.480469 144.574219 C 293.492188 143.863281 293.371094 143.160156 293.125 142.492188 C 292.898438 141.894531 292.550781 141.347656 292.101562 140.890625 C 291.675781 140.453125 291.152344 140.121094 290.574219 139.917969 C 289.972656 139.710938 289.328125 139.644531 288.695312 139.734375 Z M 85.628906 169.644531 "/>
<path style=" stroke:none;fill-rule:nonzero;fill:rgb(100%,100%,100%);fill-opacity:1;" d="M 103.421875 90.871094 L 263.472656 54.617188 L 263.472656 66.867188 L 103.421875 101.375 Z M 103.421875 90.871094 "/>
<path style=" stroke:none;fill-rule:nonzero;fill:rgb(100%,100%,100%);fill-opacity:1;" d="M 103.699219 112.949219 L 263.855469 80.359375 L 263.855469 86.050781 L 103.699219 117.824219 Z M 103.699219 112.949219 "/>
<path style=" stroke:none;fill-rule:nonzero;fill:rgb(100%,100%,100%);fill-opacity:1;" d="M 103.699219 121.578125 L 263.855469 90.425781 L 263.855469 96.117188 L 103.699219 126.457031 Z M 103.699219 121.578125 "/>
<path style=" stroke:none;fill-rule:nonzero;fill:rgb(100%,100%,100%);fill-opacity:1;" d="M 103.699219 130.210938 L 263.855469 100.496094 L 263.855469 106.1875 L 103.699219 135.085938 Z M 103.699219 130.210938 "/>
<path style=" stroke:none;fill-rule:nonzero;fill:rgb(100%,100%,100%);fill-opacity:1;" d="M 192.5 278.917969 L 273.71875 276.621094 C 274 276.613281 274.277344 276.558594 274.542969 276.457031 C 274.8125 276.355469 275.0625 276.210938 275.285156 276.035156 C 275.515625 275.847656 275.722656 275.632812 275.894531 275.390625 C 276.074219 275.132812 276.21875 274.851562 276.320312 274.554688 C 276.535156 273.957031 276.59375 273.3125 276.484375 272.6875 C 276.429688 272.386719 276.339844 272.089844 276.207031 271.8125 C 276.078125 271.539062 275.910156 271.285156 275.710938 271.0625 L 222.167969 211.757812 C 221.9375 211.496094 221.648438 211.292969 221.320312 211.160156 C 221.015625 211.039062 220.6875 210.992188 220.359375 211.023438 C 220.019531 211.054688 219.691406 211.160156 219.398438 211.332031 C 219.070312 211.527344 218.785156 211.78125 218.554688 212.082031 L 206.097656 228.164062 C 205.628906 228.78125 205.042969 229.296875 204.375 229.6875 C 203.773438 230.03125 203.105469 230.238281 202.417969 230.292969 C 201.753906 230.34375 201.085938 230.234375 200.46875 229.976562 C 199.8125 229.695312 199.226562 229.265625 198.761719 228.71875 L 162.050781 186.574219 C 161.847656 186.335938 161.589844 186.148438 161.296875 186.03125 C 161.023438 185.921875 160.730469 185.886719 160.4375 185.921875 C 160.132812 185.960938 159.839844 186.070312 159.582031 186.238281 C 159.285156 186.429688 159.03125 186.675781 158.828125 186.960938 L 94.332031 276.699219 C 94.1875 276.902344 94.070312 277.125 93.980469 277.359375 C 93.886719 277.597656 93.824219 277.851562 93.785156 278.105469 C 93.75 278.367188 93.738281 278.628906 93.757812 278.890625 C 93.777344 279.152344 93.824219 279.410156 93.902344 279.664062 C 93.972656 279.902344 94.074219 280.128906 94.203125 280.339844 C 94.320312 280.53125 94.464844 280.707031 94.632812 280.855469 C 94.789062 280.992188 94.964844 281.101562 95.15625 281.179688 C 95.34375 281.25 95.542969 281.285156 95.742188 281.28125 L 192.59375 278.5 Z M 192.5 278.917969 "/>
<path style=" stroke:none;fill-rule:nonzero;fill:rgb(100%,100%,100%);fill-opacity:1;" d="M 109.878906 180.421875 C 110.925781 180.28125 111.992188 180.429688 112.964844 180.851562 C 113.953125 181.289062 114.824219 181.957031 115.507812 182.792969 C 116.269531 183.730469 116.851562 184.804688 117.21875 185.957031 C 117.648438 187.273438 117.859375 188.644531 117.851562 190.027344 C 117.851562 191.460938 117.640625 192.882812 117.21875 194.25 C 116.835938 195.527344 116.257812 196.734375 115.507812 197.835938 C 114.824219 198.835938 113.964844 199.707031 112.96875 200.394531 C 112.050781 201.03125 110.992188 201.4375 109.882812 201.570312 C 108.832031 201.691406 107.769531 201.523438 106.8125 201.082031 C 105.839844 200.625 104.984375 199.949219 104.316406 199.109375 C 103.570312 198.171875 103 197.105469 102.640625 195.960938 C 102.226562 194.664062 102.019531 193.3125 102.027344 191.953125 C 102.027344 190.542969 102.234375 189.140625 102.640625 187.792969 C 103.015625 186.53125 103.578125 185.332031 104.3125 184.238281 C 104.980469 183.234375 105.824219 182.359375 106.808594 181.660156 C 107.714844 181.007812 108.769531 180.582031 109.878906 180.421875 Z M 109.878906 180.421875 "/>
<path style=" stroke:none;fill-rule:nonzero;fill:rgb(94.901961%,94.901961%,94.901961%);fill-opacity:1;" d="M 85.628906 305.875 C 85.179688 305.886719 84.742188 306.019531 84.359375 306.257812 C 83.957031 306.507812 83.605469 306.84375 83.335938 307.238281 C 83.03125 307.675781 82.800781 308.160156 82.648438 308.671875 C 82.484375 309.238281 82.40625 309.824219 82.414062 310.414062 L 82.414062 413.085938 C 82.410156 413.6875 82.488281 414.28125 82.652344 414.855469 C 82.804688 415.390625 83.035156 415.902344 83.339844 416.367188 C 83.613281 416.792969 83.960938 417.164062 84.367188 417.464844 C 84.742188 417.742188 85.175781 417.921875 85.632812 417.988281 L 288.695312 441.523438 C 289.328125 441.585938 289.972656 441.503906 290.570312 441.277344 C 291.148438 441.054688 291.671875 440.707031 292.097656 440.257812 C 292.542969 439.789062 292.890625 439.230469 293.117188 438.621094 C 293.367188 437.953125 293.488281 437.242188 293.476562 436.527344 L 293.476562 310.8125 C 293.484375 310.085938 293.363281 309.363281 293.117188 308.679688 C 292.886719 308.039062 292.542969 307.445312 292.097656 306.925781 C 291.671875 306.433594 291.152344 306.027344 290.570312 305.734375 C 289.988281 305.445312 289.34375 305.289062 288.695312 305.28125 Z M 85.628906 305.875 "/>
<path style=" stroke:none;fill-rule:nonzero;fill:rgb(100%,100%,100%);fill-opacity:1;" d="M 192.5 430.578125 L 273.714844 440.007812 C 273.988281 440.039062 274.269531 440.023438 274.539062 439.960938 C 274.804688 439.898438 275.054688 439.792969 275.28125 439.644531 C 275.511719 439.492188 275.71875 439.304688 275.890625 439.085938 C 276.070312 438.855469 276.214844 438.59375 276.316406 438.316406 C 276.425781 438.023438 276.496094 437.71875 276.519531 437.410156 C 276.546875 437.097656 276.53125 436.78125 276.480469 436.46875 C 276.425781 436.152344 276.332031 435.847656 276.203125 435.554688 C 276.074219 435.257812 275.90625 434.984375 275.707031 434.730469 L 222.167969 367.703125 C 221.9375 367.410156 221.648438 367.164062 221.320312 366.984375 C 221.023438 366.820312 220.695312 366.726562 220.359375 366.707031 C 220.027344 366.691406 219.699219 366.75 219.394531 366.878906 C 219.070312 367.023438 218.785156 367.234375 218.554688 367.503906 L 206.097656 381.785156 C 205.628906 382.335938 205.039062 382.773438 204.375 383.058594 C 203.757812 383.320312 203.085938 383.433594 202.417969 383.386719 C 201.734375 383.335938 201.066406 383.128906 200.46875 382.785156 C 199.808594 382.40625 199.226562 381.894531 198.765625 381.285156 L 162.050781 333.835938 C 161.847656 333.566406 161.589844 333.34375 161.296875 333.179688 C 161.03125 333.039062 160.738281 332.957031 160.4375 332.949219 C 160.140625 332.941406 159.847656 333.007812 159.582031 333.140625 C 159.285156 333.285156 159.027344 333.496094 158.824219 333.753906 L 94.332031 414.191406 C 94.1875 414.375 94.066406 414.578125 93.980469 414.796875 C 93.886719 415.027344 93.820312 415.269531 93.785156 415.515625 C 93.75 415.777344 93.738281 416.039062 93.757812 416.296875 C 93.777344 416.566406 93.824219 416.835938 93.898438 417.09375 C 93.972656 417.34375 94.074219 417.589844 94.203125 417.816406 C 94.320312 418.027344 94.464844 418.21875 94.632812 418.394531 C 94.785156 418.550781 94.960938 418.6875 95.15625 418.792969 C 95.339844 418.890625 95.539062 418.953125 95.742188 418.976562 L 192.597656 430.179688 Z M 192.5 430.578125 "/>
<path style=" stroke:none;fill-rule:nonzero;fill:rgb(100%,100%,100%);fill-opacity:1;" d="M 109.878906 320.15625 C 110.964844 320.175781 112.027344 320.472656 112.964844 321.023438 C 113.957031 321.613281 114.820312 322.402344 115.5 323.335938 C 116.257812 324.371094 116.835938 325.527344 117.214844 326.75 C 117.636719 328.097656 117.851562 329.5 117.847656 330.910156 C 117.851562 332.3125 117.640625 333.707031 117.214844 335.046875 C 116.839844 336.246094 116.261719 337.375 115.5 338.378906 C 114.820312 339.285156 113.957031 340.03125 112.964844 340.574219 C 112.015625 341.085938 110.953125 341.335938 109.878906 341.304688 C 108.789062 341.261719 107.734375 340.941406 106.808594 340.371094 C 105.828125 339.769531 104.980469 338.972656 104.3125 338.035156 C 103.574219 337.003906 103.007812 335.859375 102.640625 334.648438 C 102.230469 333.320312 102.023438 331.9375 102.027344 330.550781 C 102.023438 329.167969 102.230469 327.796875 102.640625 326.476562 C 103.007812 325.289062 103.574219 324.167969 104.3125 323.167969 C 104.980469 322.261719 105.828125 321.503906 106.808594 320.945312 C 107.742188 320.417969 108.800781 320.144531 109.878906 320.15625 Z M 109.878906 320.15625 "/>
<path style=" stroke:none;fill-rule:nonzero;fill:rgb(90.196078%,90.196078%,90.196078%);fill-opacity:1;" d="M 142.90625 134.847656 C 142.140625 134.988281 141.417969 135.300781 140.792969 135.765625 C 140.125 136.261719 139.542969 136.871094 139.078125 137.5625 C 138.578125 138.308594 138.1875 139.125 137.925781 139.984375 C 137.644531 140.890625 137.5 141.832031 137.496094 142.777344 L 137.496094 531.207031 C 137.503906 533.085938 138.050781 534.929688 139.078125 536.507812 C 139.539062 537.230469 140.121094 537.871094 140.792969 538.402344 C 141.410156 538.898438 142.132812 539.253906 142.902344 539.445312 L 430.949219 605.867188 C 432.101562 606.144531 433.300781 606.179688 434.46875 605.964844 C 435.519531 605.769531 436.507812 605.328125 437.359375 604.679688 C 438.195312 604.03125 438.867188 603.191406 439.316406 602.230469 C 439.800781 601.171875 440.046875 600.015625 440.035156 598.847656 L 440.035156 92.371094 C 440.042969 91.191406 439.796875 90.023438 439.316406 88.945312 C 438.863281 87.953125 438.195312 87.078125 437.359375 86.386719 C 436.515625 85.691406 435.527344 85.195312 434.46875 84.933594 C 433.316406 84.65625 432.117188 84.617188 430.949219 84.832031 Z M 142.90625 134.847656 "/>
<path style=" stroke:none;fill-rule:nonzero;fill:rgb(100%,100%,100%);fill-opacity:1;" d="M 149.558594 144.699219 C 148.777344 144.851562 148.042969 145.179688 147.40625 145.65625 C 146.726562 146.164062 146.136719 146.785156 145.671875 147.496094 C 145.164062 148.253906 144.777344 149.082031 144.515625 149.957031 C 144.242188 150.875 144.105469 151.832031 144.117188 152.789062 L 144.117188 524.699219 C 144.101562 526.609375 144.644531 528.480469 145.671875 530.089844 C 146.140625 530.828125 146.726562 531.484375 147.40625 532.03125 C 148.039062 532.542969 148.769531 532.914062 149.558594 533.117188 L 419.101562 593.167969 C 420.246094 593.417969 421.425781 593.417969 422.570312 593.167969 C 424.675781 592.714844 426.429688 591.273438 427.289062 589.300781 C 427.75 588.226562 427.976562 587.0625 427.945312 585.894531 L 427.945312 108.648438 C 427.972656 107.464844 427.746094 106.289062 427.289062 105.199219 C 426.429688 103.171875 424.691406 101.644531 422.570312 101.046875 C 421.441406 100.734375 420.257812 100.664062 419.101562 100.84375 Z M 149.558594 144.699219 "/>
<path style=" stroke:none;fill-rule:nonzero;fill:rgb(41.568627%,35.294118%,80.392157%);fill-opacity:1;" d="M 183.96875 195.351562 C 183.605469 195.394531 183.257812 195.519531 182.953125 195.71875 C 182.628906 195.929688 182.347656 196.195312 182.121094 196.503906 C 181.878906 196.835938 181.6875 197.207031 181.5625 197.597656 C 181.425781 198.011719 181.355469 198.445312 181.355469 198.882812 L 181.355469 213.773438 C 181.355469 214.195312 181.421875 214.617188 181.5625 215.015625 C 181.683594 215.375 181.875 215.707031 182.121094 215.996094 C 182.347656 216.261719 182.632812 216.476562 182.949219 216.617188 C 183.269531 216.757812 183.621094 216.816406 183.96875 216.785156 L 365.523438 200.78125 C 366.015625 200.734375 366.496094 200.589844 366.929688 200.355469 C 367.367188 200.117188 367.757812 199.804688 368.082031 199.433594 C 368.414062 199.050781 368.679688 198.617188 368.859375 198.148438 C 369.050781 197.664062 369.148438 197.152344 369.148438 196.636719 L 369.148438 179.050781 C 369.152344 178.550781 369.054688 178.058594 368.863281 177.59375 C 368.683594 177.167969 368.421875 176.78125 368.085938 176.460938 C 367.753906 176.148438 367.363281 175.914062 366.933594 175.765625 C 366.480469 175.613281 366 175.5625 365.523438 175.613281 Z M 183.96875 195.351562 "/>
<path style=" stroke:none;fill-rule:nonzero;fill:rgb(80%,80%,80%);fill-opacity:1;" d="M 182.988281 244.816406 C 182.898438 244.824219 182.808594 244.851562 182.730469 244.898438 C 182.652344 244.945312 182.582031 245.007812 182.523438 245.082031 C 182.460938 245.164062 182.414062 245.253906 182.382812 245.351562 C 182.351562 245.453125 182.332031 245.558594 182.332031 245.667969 L 182.332031 251.488281 C 182.332031 251.59375 182.347656 251.699219 182.382812 251.800781 C 182.414062 251.890625 182.460938 251.976562 182.523438 252.050781 C 182.582031 252.117188 182.652344 252.171875 182.730469 252.210938 C 182.8125 252.25 182.898438 252.269531 182.988281 252.261719 L 367.789062 242.253906 C 367.910156 242.246094 368.03125 242.214844 368.140625 242.160156 C 368.25 242.105469 368.347656 242.03125 368.429688 241.941406 C 368.601562 241.75 368.695312 241.503906 368.695312 241.25 L 368.695312 234.390625 C 368.695312 234.261719 368.671875 234.136719 368.625 234.019531 C 368.578125 233.910156 368.511719 233.8125 368.429688 233.730469 C 368.261719 233.558594 368.027344 233.472656 367.789062 233.488281 Z M 182.988281 244.816406 "/>
<path style=" stroke:none;fill-rule:nonzero;fill:rgb(80%,80%,80%);fill-opacity:1;" d="M 182.988281 263.742188 C 182.898438 263.746094 182.808594 263.769531 182.730469 263.816406 C 182.652344 263.863281 182.582031 263.925781 182.523438 264 C 182.460938 264.078125 182.414062 264.167969 182.382812 264.261719 C 182.351562 264.367188 182.332031 264.472656 182.332031 264.582031 L 182.332031 270.398438 C 182.332031 270.507812 182.347656 270.613281 182.382812 270.714844 C 182.414062 270.808594 182.460938 270.894531 182.523438 270.96875 C 182.582031 271.039062 182.652344 271.097656 182.730469 271.136719 C 182.8125 271.175781 182.898438 271.195312 182.988281 271.191406 L 367.789062 264.539062 C 367.910156 264.535156 368.03125 264.503906 368.140625 264.453125 C 368.25 264.398438 368.347656 264.328125 368.429688 264.238281 C 368.601562 264.050781 368.695312 263.804688 368.695312 263.550781 L 368.695312 256.6875 C 368.695312 256.5625 368.671875 256.4375 368.625 256.320312 C 368.578125 256.210938 368.511719 256.109375 368.429688 256.023438 C 368.347656 255.941406 368.25 255.875 368.140625 255.832031 C 368.027344 255.785156 367.910156 255.765625 367.789062 255.769531 Z M 182.988281 263.742188 "/>
<path style=" stroke:none;fill-rule:nonzero;fill:rgb(80%,80%,80%);fill-opacity:1;" d="M 182.988281 282.664062 C 182.898438 282.667969 182.808594 282.691406 182.730469 282.734375 C 182.652344 282.78125 182.582031 282.839844 182.527344 282.914062 C 182.464844 282.992188 182.417969 283.082031 182.386719 283.175781 C 182.351562 283.277344 182.335938 283.382812 182.335938 283.492188 L 182.335938 289.308594 C 182.335938 289.417969 182.351562 289.523438 182.386719 289.625 C 182.417969 289.71875 182.464844 289.804688 182.527344 289.882812 C 182.582031 289.953125 182.652344 290.011719 182.734375 290.054688 C 182.8125 290.09375 182.902344 290.117188 182.992188 290.113281 L 367.789062 286.824219 C 367.910156 286.820312 368.03125 286.789062 368.140625 286.738281 C 368.25 286.6875 368.347656 286.613281 368.429688 286.527344 C 368.511719 286.4375 368.578125 286.332031 368.625 286.21875 C 368.671875 286.101562 368.695312 285.972656 368.695312 285.847656 L 368.695312 278.988281 C 368.695312 278.863281 368.671875 278.734375 368.625 278.617188 C 368.578125 278.507812 368.511719 278.40625 368.429688 278.320312 C 368.347656 278.234375 368.25 278.164062 368.140625 278.117188 C 368.03125 278.070312 367.910156 278.050781 367.789062 278.054688 Z M 182.988281 282.664062 "/>
<path style=" stroke:none;fill-rule:nonzero;fill:rgb(80%,80%,80%);fill-opacity:1;" d="M 182.660156 320.460938 C 182.570312 320.460938 182.484375 320.480469 182.40625 320.523438 C 182.324219 320.5625 182.253906 320.621094 182.195312 320.695312 C 182.136719 320.769531 182.089844 320.855469 182.058594 320.949219 C 182.027344 321.050781 182.007812 321.15625 182.007812 321.265625 L 182.007812 327.082031 C 182.007812 327.1875 182.027344 327.296875 182.058594 327.398438 C 182.089844 327.492188 182.140625 327.578125 182.199219 327.65625 C 182.257812 327.726562 182.328125 327.789062 182.40625 327.832031 C 182.484375 327.875 182.574219 327.898438 182.664062 327.902344 L 367.339844 331.320312 C 367.457031 331.324219 367.578125 331.300781 367.691406 331.253906 C 367.796875 331.207031 367.898438 331.136719 367.976562 331.054688 C 368.0625 330.964844 368.128906 330.863281 368.171875 330.753906 C 368.21875 330.632812 368.246094 330.507812 368.246094 330.382812 L 368.246094 323.527344 C 368.246094 323.398438 368.21875 323.273438 368.171875 323.152344 C 368.128906 323.039062 368.0625 322.933594 367.976562 322.847656 C 367.898438 322.757812 367.800781 322.6875 367.691406 322.636719 C 367.578125 322.585938 367.460938 322.558594 367.339844 322.558594 Z M 182.660156 320.460938 "/>
<path style=" stroke:none;fill-rule:nonzero;fill:rgb(80%,80%,80%);fill-opacity:1;" d="M 182.660156 339.378906 C 182.574219 339.375 182.484375 339.394531 182.40625 339.4375 C 182.324219 339.476562 182.253906 339.535156 182.195312 339.609375 C 182.136719 339.683594 182.089844 339.769531 182.058594 339.863281 C 182.023438 339.964844 182.007812 340.066406 182.007812 340.171875 L 182.007812 345.988281 C 182.007812 346.09375 182.027344 346.203125 182.058594 346.304688 C 182.089844 346.398438 182.136719 346.488281 182.199219 346.570312 C 182.257812 346.640625 182.328125 346.703125 182.40625 346.75 C 182.484375 346.796875 182.574219 346.820312 182.664062 346.824219 L 367.335938 353.601562 C 367.457031 353.605469 367.578125 353.582031 367.691406 353.539062 C 367.796875 353.492188 367.898438 353.425781 367.976562 353.34375 C 368.0625 353.257812 368.128906 353.15625 368.171875 353.046875 C 368.21875 352.929688 368.246094 352.804688 368.242188 352.675781 L 368.242188 345.820312 C 368.246094 345.691406 368.21875 345.5625 368.171875 345.445312 C 368.128906 345.332031 368.0625 345.226562 367.976562 345.132812 C 367.898438 345.046875 367.800781 344.972656 367.691406 344.921875 C 367.578125 344.867188 367.460938 344.839844 367.335938 344.835938 Z M 182.660156 339.378906 "/>
<path style=" stroke:none;fill-rule:nonzero;fill:rgb(80%,80%,80%);fill-opacity:1;" d="M 182.660156 358.296875 C 182.574219 358.292969 182.484375 358.3125 182.40625 358.351562 C 182.328125 358.390625 182.257812 358.445312 182.199219 358.511719 C 182.136719 358.585938 182.089844 358.671875 182.058594 358.765625 C 182.027344 358.863281 182.007812 358.96875 182.007812 359.078125 L 182.007812 364.894531 C 182.007812 365 182.027344 365.109375 182.058594 365.210938 C 182.089844 365.308594 182.136719 365.398438 182.199219 365.476562 C 182.257812 365.550781 182.328125 365.613281 182.40625 365.664062 C 182.484375 365.707031 182.574219 365.734375 182.664062 365.742188 L 367.335938 375.875 C 367.578125 375.886719 367.808594 375.796875 367.976562 375.628906 C 368.0625 375.546875 368.128906 375.445312 368.171875 375.335938 C 368.21875 375.21875 368.246094 375.09375 368.242188 374.96875 L 368.242188 368.109375 C 368.242188 367.855469 368.148438 367.613281 367.976562 367.425781 C 367.898438 367.335938 367.800781 367.261719 367.691406 367.207031 C 367.582031 367.152344 367.460938 367.121094 367.335938 367.113281 Z M 182.660156 358.296875 "/>
<path style=" stroke:none;fill-rule:nonzero;fill:rgb(80%,80%,80%);fill-opacity:1;" d="M 182.660156 377.308594 C 182.574219 377.300781 182.484375 377.316406 182.40625 377.355469 C 182.324219 377.394531 182.253906 377.449219 182.199219 377.515625 C 182.136719 377.589844 182.089844 377.675781 182.058594 377.765625 C 182.023438 377.867188 182.007812 377.972656 182.007812 378.078125 L 182.007812 383.894531 C 182.007812 384.003906 182.027344 384.109375 182.058594 384.214844 C 182.089844 384.308594 182.136719 384.398438 182.199219 384.480469 C 182.257812 384.558594 182.328125 384.621094 182.40625 384.671875 C 182.484375 384.71875 182.574219 384.75 182.664062 384.757812 L 367.335938 398.261719 C 367.453125 398.269531 367.574219 398.253906 367.6875 398.210938 C 367.792969 398.171875 367.894531 398.109375 367.976562 398.027344 C 368.058594 397.945312 368.125 397.847656 368.167969 397.738281 C 368.21875 397.621094 368.242188 397.496094 368.242188 397.371094 L 368.242188 390.511719 C 368.242188 390.382812 368.214844 390.253906 368.167969 390.136719 C 368.125 390.019531 368.058594 389.910156 367.976562 389.816406 C 367.894531 389.726562 367.796875 389.648438 367.6875 389.59375 C 367.578125 389.539062 367.457031 389.503906 367.335938 389.496094 Z M 182.660156 377.308594 "/>
<path style=" stroke:none;fill-rule:nonzero;fill:rgb(80%,80%,80%);fill-opacity:1;" d="M 182.660156 396.226562 C 182.574219 396.21875 182.484375 396.230469 182.40625 396.269531 C 182.324219 396.304688 182.253906 396.359375 182.199219 396.429688 C 182.136719 396.5 182.089844 396.582031 182.058594 396.671875 C 182.023438 396.769531 182.007812 396.875 182.007812 396.980469 L 182.007812 402.796875 C 182.007812 402.90625 182.027344 403.015625 182.058594 403.117188 C 182.089844 403.214844 182.136719 403.308594 182.199219 403.390625 C 182.257812 403.464844 182.328125 403.53125 182.40625 403.582031 C 182.484375 403.628906 182.574219 403.660156 182.664062 403.667969 L 367.335938 420.535156 C 367.453125 420.546875 367.574219 420.53125 367.6875 420.492188 C 367.792969 420.453125 367.894531 420.390625 367.976562 420.3125 C 368.058594 420.230469 368.125 420.132812 368.167969 420.027344 C 368.21875 419.910156 368.242188 419.785156 368.242188 419.660156 L 368.242188 412.804688 C 368.242188 412.671875 368.214844 412.546875 368.167969 412.425781 C 368.125 412.308594 368.058594 412.199219 367.976562 412.105469 C 367.894531 412.011719 367.796875 411.933594 367.6875 411.875 C 367.578125 411.816406 367.457031 411.78125 367.335938 411.769531 Z M 182.660156 396.226562 "/>
<path style=" stroke:none;fill-rule:nonzero;fill:rgb(80%,80%,80%);fill-opacity:1;" d="M 182.660156 415.144531 C 182.574219 415.132812 182.484375 415.144531 182.40625 415.179688 C 182.324219 415.214844 182.253906 415.269531 182.199219 415.332031 C 182.136719 415.40625 182.089844 415.488281 182.058594 415.578125 C 182.023438 415.675781 182.007812 415.78125 182.007812 415.886719 L 182.007812 421.703125 C 182.007812 421.8125 182.027344 421.921875 182.058594 422.027344 C 182.089844 422.125 182.140625 422.214844 182.199219 422.300781 C 182.257812 422.378906 182.328125 422.445312 182.40625 422.496094 C 182.484375 422.546875 182.574219 422.578125 182.664062 422.589844 L 367.335938 442.808594 C 367.453125 442.824219 367.574219 442.808594 367.6875 442.773438 C 367.792969 442.738281 367.890625 442.679688 367.976562 442.601562 C 368.058594 442.519531 368.125 442.425781 368.167969 442.320312 C 368.21875 442.203125 368.242188 442.078125 368.242188 441.953125 L 368.242188 435.09375 C 368.242188 434.964844 368.214844 434.835938 368.167969 434.714844 C 368.125 434.597656 368.058594 434.488281 367.976562 434.390625 C 367.894531 434.296875 367.796875 434.214844 367.6875 434.15625 C 367.578125 434.09375 367.457031 434.058594 367.335938 434.042969 Z M 182.660156 415.144531 "/>
<path style=" stroke:none;fill-rule:nonzero;fill:rgb(80%,80%,80%);fill-opacity:1;" d="M 182.660156 434.15625 C 182.574219 434.144531 182.484375 434.15625 182.40625 434.1875 C 182.324219 434.222656 182.257812 434.269531 182.199219 434.332031 C 182.136719 434.40625 182.089844 434.488281 182.058594 434.578125 C 182.023438 434.679688 182.007812 434.78125 182.007812 434.886719 L 182.007812 440.703125 C 182.007812 440.8125 182.027344 440.921875 182.058594 441.027344 C 182.089844 441.125 182.140625 441.21875 182.199219 441.300781 C 182.257812 441.382812 182.328125 441.449219 182.40625 441.503906 C 182.484375 441.554688 182.570312 441.585938 182.664062 441.601562 L 367.335938 465.195312 C 367.453125 465.210938 367.574219 465.203125 367.6875 465.167969 C 367.792969 465.132812 367.894531 465.074219 367.976562 464.996094 C 368.058594 464.917969 368.125 464.820312 368.167969 464.714844 C 368.21875 464.601562 368.242188 464.476562 368.242188 464.351562 L 368.242188 457.496094 C 368.242188 457.367188 368.214844 457.238281 368.167969 457.117188 C 368.125 456.996094 368.058594 456.886719 367.976562 456.789062 C 367.894531 456.691406 367.796875 456.609375 367.6875 456.546875 C 367.578125 456.484375 367.457031 456.445312 367.335938 456.429688 Z M 182.660156 434.15625 "/>
<path style=" stroke:none;fill-rule:nonzero;fill:rgb(80%,80%,80%);fill-opacity:1;" d="M 182.660156 453.074219 C 182.574219 453.058594 182.484375 453.070312 182.40625 453.101562 C 182.324219 453.132812 182.253906 453.183594 182.199219 453.246094 C 182.136719 453.316406 182.089844 453.398438 182.058594 453.484375 C 182.023438 453.585938 182.007812 453.6875 182.007812 453.792969 L 182.007812 459.609375 C 182.007812 459.71875 182.027344 459.828125 182.058594 459.933594 C 182.089844 460.03125 182.140625 460.125 182.199219 460.210938 C 182.257812 460.292969 182.328125 460.359375 182.40625 460.414062 C 182.484375 460.46875 182.570312 460.503906 182.664062 460.515625 L 367.335938 487.46875 C 367.453125 487.488281 367.574219 487.480469 367.6875 487.445312 C 367.792969 487.414062 367.890625 487.359375 367.976562 487.285156 C 368.058594 487.207031 368.125 487.113281 368.167969 487.007812 C 368.21875 486.894531 368.242188 486.769531 368.242188 486.644531 L 368.242188 479.789062 C 368.242188 479.65625 368.214844 479.527344 368.167969 479.40625 C 368.125 479.285156 368.058594 479.171875 367.976562 479.074219 C 367.894531 478.976562 367.796875 478.894531 367.6875 478.828125 C 367.578125 478.765625 367.457031 478.722656 367.335938 478.707031 Z M 182.660156 453.074219 "/>
<path style=" stroke:none;fill-rule:nonzero;fill:rgb(80%,80%,80%);fill-opacity:1;" d="M 182.660156 471.992188 C 182.574219 471.976562 182.488281 471.984375 182.40625 472.015625 C 182.324219 472.046875 182.253906 472.09375 182.199219 472.15625 C 182.136719 472.222656 182.089844 472.304688 182.058594 472.390625 C 182.023438 472.492188 182.007812 472.59375 182.007812 472.699219 L 182.007812 478.515625 C 182.007812 478.625 182.027344 478.734375 182.058594 478.839844 C 182.089844 478.941406 182.140625 479.035156 182.199219 479.121094 C 182.257812 479.203125 182.328125 479.273438 182.40625 479.328125 C 182.484375 479.382812 182.570312 479.417969 182.664062 479.433594 L 367.335938 509.746094 C 367.453125 509.765625 367.570312 509.757812 367.6875 509.726562 C 367.792969 509.699219 367.890625 509.644531 367.976562 509.570312 C 368.058594 509.496094 368.125 509.402344 368.167969 509.296875 C 368.21875 509.183594 368.242188 509.0625 368.242188 508.9375 L 368.242188 502.078125 C 368.242188 501.949219 368.214844 501.816406 368.167969 501.695312 C 368.125 501.574219 368.058594 501.460938 367.976562 501.359375 C 367.894531 501.261719 367.796875 501.175781 367.6875 501.109375 C 367.578125 501.042969 367.460938 501 367.335938 500.980469 Z M 182.660156 471.992188 "/>
<path style=" stroke:none;fill-rule:nonzero;fill:rgb(41.568627%,35.294118%,80.392157%);fill-opacity:1;" d="M 422.976562 500.066406 C 433.117188 501.644531 442.871094 505.089844 451.75 510.230469 C 470.410156 521.03125 484.988281 537.671875 493.238281 557.582031 C 497.359375 567.496094 499.519531 578.117188 499.585938 588.855469 C 499.699219 598.765625 497.523438 608.566406 493.238281 617.507812 C 489.316406 625.558594 483.46875 632.519531 476.214844 637.773438 C 468.957031 642.972656 460.574219 646.382812 451.75 647.730469 C 442.144531 649.164062 432.347656 648.582031 422.980469 646.015625 C 413.121094 643.371094 403.804688 639.015625 395.449219 633.15625 C 387.234375 627.417969 379.941406 620.457031 373.828125 612.519531 C 367.832031 604.777344 363.054688 596.160156 359.667969 586.972656 C 356.339844 577.992188 354.609375 568.496094 354.558594 558.917969 C 354.480469 550.011719 356.21875 541.183594 359.667969 532.972656 C 366.160156 517.585938 379.34375 506.015625 395.449219 501.566406 C 404.414062 499.113281 413.800781 498.605469 422.976562 500.066406 Z M 422.976562 500.066406 "/>
<path style=" stroke:none;fill-rule:nonzero;fill:rgb(100%,100%,100%);fill-opacity:1;" d="M 416.128906 602.265625 L 395.078125 569.945312 L 407.234375 562.722656 L 417.308594 577.984375 L 452.554688 547.695312 L 464.785156 561.355469 Z M 416.128906 602.265625 "/>
<path style=" stroke:none;fill-rule:nonzero;fill:rgb(62.352941%,38.039216%,41.568627%);fill-opacity:1;" d="M 262.4375 564.601562 L 258.628906 511.925781 L 265.464844 462.5625 L 246.058594 461.253906 L 242.226562 515.78125 L 253.054688 567.058594 C 251.164062 569.667969 251.117188 573.183594 252.941406 575.839844 C 254.761719 578.496094 258.054688 579.726562 261.175781 578.910156 C 264.292969 578.09375 266.5625 575.40625 266.84375 572.199219 C 267.128906 568.992188 265.363281 565.953125 262.4375 564.601562 Z M 262.4375 564.601562 "/>
<path style=" stroke:none;fill-rule:nonzero;fill:rgb(79.607843%,79.607843%,79.607843%);fill-opacity:1;" d="M 243.582031 468.347656 L 248.136719 448.644531 C 249.949219 440.8125 257.5625 435.75 265.496094 437.105469 C 273.429688 438.464844 278.921875 445.769531 278.023438 453.757812 L 275.511719 476.023438 Z M 243.582031 468.347656 "/>
<path style=" stroke:none;fill-rule:nonzero;fill:rgb(62.352941%,38.039216%,41.568627%);fill-opacity:1;" d="M 279.507812 736.226562 L 288.65625 736.222656 L 293.007812 700.96875 L 279.507812 700.96875 Z M 279.507812 736.226562 "/>
<path style=" stroke:none;fill-rule:nonzero;fill:rgb(18.431373%,18.039216%,25.490196%);fill-opacity:1;" d="M 277.175781 733.242188 L 295.191406 733.238281 C 301.535156 733.242188 306.675781 738.375 306.675781 744.710938 L 306.675781 745.085938 L 277.175781 745.085938 Z M 277.175781 733.242188 "/>
<path style=" stroke:none;fill-rule:nonzero;fill:rgb(62.352941%,38.039216%,41.568627%);fill-opacity:1;" d="M 325.089844 735.925781 L 333.882812 733.410156 L 328.351562 698.316406 L 315.371094 702.03125 Z M 325.089844 735.925781 "/>
<path style=" stroke:none;fill-rule:nonzero;fill:rgb(18.431373%,18.039216%,25.490196%);fill-opacity:1;" d="M 322.023438 733.699219 L 339.34375 728.742188 C 345.441406 726.996094 351.796875 730.519531 353.542969 736.609375 L 353.648438 736.96875 L 325.289062 745.085938 Z M 322.023438 733.699219 "/>
<path style=" stroke:none;fill-rule:nonzero;fill:rgb(18.431373%,18.039216%,25.490196%);fill-opacity:1;" d="M 274.5625 723.429688 L 278.820312 616.625 L 267.765625 568.292969 C 252.894531 543.378906 268.9375 503.636719 269.101562 503.238281 L 269.164062 503.09375 L 269.320312 503.070312 L 308.226562 497.804688 L 308.773438 499.058594 C 323.992188 533.816406 328.214844 572.394531 320.875 609.621094 L 316.828125 630.3125 L 336.839844 711.046875 L 317.898438 720.507812 L 303.367188 682.855469 L 293.542969 721.378906 Z M 274.5625 723.429688 "/>
<path style=" stroke:none;fill-rule:nonzero;fill:rgb(79.607843%,79.607843%,79.607843%);fill-opacity:1;" d="M 263.980469 513.144531 L 251.285156 475.984375 C 243.394531 462.101562 248.402344 449.777344 253.988281 441.882812 C 260.023438 433.355469 260.386719 428.574219 260.464844 428.523438 L 260.53125 428.480469 L 277.207031 427.976562 L 292.640625 443.644531 C 293.613281 443.265625 301.8125 463.457031 301.117188 464.46875 L 311.898438 499.285156 Z M 263.980469 513.144531 "/>
<path style=" stroke:none;fill-rule:nonzero;fill:rgb(62.352941%,38.039216%,41.568627%);fill-opacity:1;" d="M 366.753906 519.570312 L 324.941406 487.257812 L 292.699219 449.234375 L 278.773438 462.804688 L 316.871094 502.035156 L 362.324219 528.191406 C 363.011719 531.339844 365.601562 533.714844 368.796875 534.132812 C 371.992188 534.550781 375.105469 532.917969 376.578125 530.054688 C 378.050781 527.1875 377.5625 523.707031 375.359375 521.355469 C 373.15625 519.003906 369.710938 518.289062 366.753906 519.570312 Z M 366.753906 519.570312 "/>
<path style=" stroke:none;fill-rule:nonzero;fill:rgb(79.607843%,79.607843%,79.607843%);fill-opacity:1;" d="M 274.816406 476.554688 L 263.164062 460.015625 C 258.535156 453.441406 259.839844 444.398438 266.144531 439.398438 C 272.449219 434.402344 281.558594 435.1875 286.917969 441.1875 L 301.84375 457.910156 Z M 274.816406 476.554688 "/>
<path style=" stroke:none;fill-rule:nonzero;fill:rgb(62.352941%,38.039216%,41.568627%);fill-opacity:1;" d="M 286.710938 403.632812 C 286.710938 414.5625 277.84375 423.417969 266.90625 423.417969 C 255.96875 423.417969 247.105469 414.5625 247.105469 403.632812 C 247.105469 392.707031 255.96875 383.847656 266.90625 383.847656 C 277.84375 383.847656 286.710938 392.707031 286.710938 403.632812 Z M 286.710938 403.632812 "/>
<path style=" stroke:none;fill-rule:nonzero;fill:rgb(18.431373%,18.039216%,25.490196%);fill-opacity:1;" d="M 287.042969 393.597656 L 255.597656 393.597656 L 255.597656 379.902344 C 262.5 377.164062 269.253906 374.832031 273.335938 379.902344 C 280.90625 379.902344 287.042969 386.03125 287.042969 393.597656 Z M 287.042969 393.597656 "/>
<path style=" stroke:none;fill-rule:nonzero;fill:rgb(18.431373%,18.039216%,25.490196%);fill-opacity:1;" d="M 259.933594 376.617188 C 231.121094 375.832031 236.578125 423.253906 236.578125 423.253906 C 236.578125 423.253906 242.011719 423.972656 244.492188 424.394531 L 247.488281 422.707031 L 250.710938 424.820312 C 252.191406 424.828125 253.746094 424.796875 255.359375 424.769531 L 256.835938 421.730469 L 260.128906 424.714844 C 266.128906 424.722656 282.40625 424.886719 282.40625 424.886719 C 282.40625 424.886719 292.214844 377.5 259.933594 376.617188 Z M 259.933594 376.617188 "/>
<path style=" stroke:none;fill-rule:nonzero;fill:rgb(100%,71.764706%,71.764706%);fill-opacity:1;" d="M 143.851562 457.867188 C 144.082031 455.988281 143.46875 454.105469 142.175781 452.726562 C 140.882812 451.34375 139.042969 450.605469 137.152344 450.707031 L 130.824219 437.542969 L 121.878906 439.4375 L 131.078125 457.902344 C 131.46875 461.132812 134.21875 463.5625 137.480469 463.550781 C 140.738281 463.542969 143.476562 461.101562 143.851562 457.867188 Z M 143.851562 457.867188 "/>
<path style=" stroke:none;fill-rule:nonzero;fill:rgb(100%,71.764706%,71.764706%);fill-opacity:1;" d="M 6.4375 610.707031 L 13.882812 614.511719 L 32.121094 587.632812 L 21.132812 582.015625 Z M 6.4375 610.707031 "/>
<path style=" stroke:none;fill-rule:nonzero;fill:rgb(18.431373%,18.039216%,25.490196%);fill-opacity:1;" d="M 5.78125 607.308594 L 20.441406 614.804688 L 20.445312 614.804688 C 25.605469 617.441406 27.644531 623.761719 25.003906 628.917969 L 24.851562 629.21875 L 0.84375 616.945312 Z M 5.78125 607.308594 "/>
<path style=" stroke:none;fill-rule:nonzero;fill:rgb(100%,71.764706%,71.764706%);fill-opacity:1;" d="M 92.421875 621.121094 L 100.785156 621.121094 L 104.761719 588.890625 L 92.417969 588.890625 Z M 92.421875 621.121094 "/>
<path style=" stroke:none;fill-rule:nonzero;fill:rgb(18.431373%,18.039216%,25.490196%);fill-opacity:1;" d="M 90.289062 618.390625 L 106.757812 618.390625 C 112.554688 618.390625 117.253906 623.085938 117.253906 628.878906 L 117.253906 629.21875 L 90.289062 629.21875 Z M 90.289062 618.390625 "/>
<path style=" stroke:none;fill-rule:nonzero;fill:rgb(41.568627%,35.294118%,80.392157%);fill-opacity:1;" d="M 53.300781 358.238281 C 53.300781 358.238281 47.703125 353.949219 47.703125 364.421875 L 46.816406 399.023438 L 56.691406 431.710938 L 62.441406 421.109375 L 60.082031 398.140625 Z M 53.300781 358.238281 "/>
<path style=" stroke:none;fill-rule:nonzero;fill:rgb(18.431373%,18.039216%,25.490196%);fill-opacity:1;" d="M 113.210938 452.882812 C 113.210938 452.882812 119.703125 484.480469 111.476562 510.410156 L 106.933594 610.117188 L 90.261719 608.816406 L 84.417969 534.851562 L 78.789062 498.082031 L 67.101562 531.605469 L 28.570312 602.546875 L 10.816406 588.703125 C 10.816406 588.703125 30.488281 535.078125 45.019531 523.820312 L 52.308594 440.886719 Z M 113.210938 452.882812 "/>
<path style=" stroke:none;fill-rule:nonzero;fill:rgb(100%,72.156863%,72.156863%);fill-opacity:1;" d="M 112.457031 297 C 112.457031 307.488281 103.949219 315.988281 93.453125 315.988281 C 82.957031 315.988281 74.445312 307.488281 74.445312 297 C 74.445312 286.515625 82.957031 278.011719 93.453125 278.011719 C 103.949219 278.011719 112.457031 286.515625 112.457031 297 Z M 112.457031 297 "/>
<path style=" stroke:none;fill-rule:nonzero;fill:rgb(18.431373%,18.039216%,25.490196%);fill-opacity:1;" d="M 92.105469 301.027344 C 94.386719 301.324219 96.105469 298.996094 96.902344 296.84375 C 97.699219 294.691406 98.304688 292.183594 100.285156 291.019531 C 102.992188 289.433594 106.453125 291.34375 109.550781 290.820312 C 113.042969 290.226562 115.316406 286.527344 115.496094 282.988281 C 115.671875 279.453125 114.265625 276.050781 112.882812 272.789062 L 112.398438 276.839844 C 112.53125 274.046875 111.199219 271.386719 108.882812 269.816406 L 109.503906 275.761719 C 109.238281 274.105469 108.320312 272.625 106.957031 271.644531 C 105.59375 270.664062 103.894531 270.265625 102.238281 270.539062 L 102.335938 274.085938 C 98.316406 273.464844 94.242188 273.265625 90.179688 273.488281 C 86.089844 273.726562 82.175781 275.234375 78.984375 277.796875 C 74.394531 281.785156 72.71875 288.34375 73.28125 294.394531 C 73.84375 300.441406 76.34375 306.125 78.949219 311.617188 C 79.605469 312.996094 80.511719 314.554688 82.03125 314.730469 C 83.445312 314.75 84.699219 313.808594 85.070312 312.441406 C 85.394531 311.101562 85.382812 309.703125 85.03125 308.367188 C 84.496094 306.359375 84.324219 304.269531 84.527344 302.199219 C 84.886719 300.15625 86.359375 298.140625 88.417969 297.886719 C 90.480469 297.636719 92.589844 299.992188 91.597656 301.816406 Z M 92.105469 301.027344 "/>
<path style=" stroke:none;fill-rule:nonzero;fill:rgb(41.568627%,35.294118%,80.392157%);fill-opacity:1;" d="M 75.261719 322.898438 L 79.242188 317.378906 C 79.242188 317.378906 83.6875 318.886719 95.601562 324.8125 L 96.441406 329.984375 L 117.117188 457.039062 L 79.535156 455.417969 L 69.300781 455.199219 L 61.824219 455.042969 L 51.828125 454.828125 L 51.679688 418.3125 L 54.921875 390.335938 L 49.914062 363.980469 C 49.914062 363.980469 43.605469 339.777344 67.890625 326.726562 Z M 75.261719 322.898438 "/>
<path style=" stroke:none;fill-rule:nonzero;fill:rgb(79.607843%,79.607843%,79.607843%);fill-opacity:1;" d="M 127.347656 451.109375 L 128.710938 455.878906 L 138.261719 449.664062 L 134.65625 445.542969 Z M 127.347656 451.109375 "/>
<path style=" stroke:none;fill-rule:nonzero;fill:rgb(41.568627%,35.294118%,80.392157%);fill-opacity:1;" d="M 82.371094 338.253906 C 82.371094 338.253906 97.175781 319.371094 106.121094 340.417969 L 108.941406 362.472656 C 108.941406 362.472656 119.78125 389.886719 120.109375 400.976562 C 120.109375 400.976562 127.457031 415.453125 127.390625 423.054688 L 138.261719 447.644531 L 127.109375 454.5625 L 96.253906 407.289062 Z M 82.371094 338.253906 "/>
</g>
</svg>
