<?xml version="1.0" encoding="UTF-8"?>
<svg xmlns="http://www.w3.org/2000/svg" xmlns:xlink="http://www.w3.org/1999/xlink" width="500px" height="px" viewBox="0 0 500 471" version="1.1">
<g id="surface1">
<path style=" stroke:none;fill-rule:nonzero;fill:rgb(80%,80%,80%);fill-opacity:1;" d="M 401.027344 364.699219 C 389.648438 364.699219 380.421875 355.46875 380.421875 344.085938 C 380.421875 332.699219 389.648438 323.46875 401.027344 323.46875 C 412.402344 323.46875 421.628906 332.699219 421.628906 344.085938 C 421.613281 355.464844 412.398438 364.6875 401.027344 364.699219 Z M 401.027344 364.699219 "/>
<path style=" stroke:none;fill-rule:nonzero;fill:rgb(100%,100%,100%);fill-opacity:1;" d="M 410.535156 343.292969 L 401.816406 343.292969 L 401.816406 333.378906 C 401.816406 332.941406 401.464844 332.585938 401.027344 332.585938 C 400.589844 332.585938 400.234375 332.941406 400.234375 333.378906 L 400.234375 343.292969 L 391.515625 343.292969 C 391.078125 343.292969 390.726562 343.648438 390.726562 344.085938 C 390.726562 344.523438 391.078125 344.878906 391.515625 344.878906 L 400.234375 344.878906 L 400.234375 354.789062 C 400.234375 355.226562 400.589844 355.582031 401.027344 355.582031 C 401.464844 355.582031 401.816406 355.226562 401.816406 354.789062 L 401.816406 344.878906 L 410.535156 344.878906 C 410.972656 344.878906 411.328125 344.523438 411.328125 344.085938 C 411.328125 343.648438 410.972656 343.292969 410.535156 343.292969 Z M 410.535156 343.292969 "/>
<path style=" stroke:none;fill-rule:nonzero;fill:rgb(100%,72.156863%,72.156863%);fill-opacity:1;" d="M 480.363281 461.308594 L 471.304688 461.308594 L 467 426.34375 L 480.367188 426.34375 Z M 480.363281 461.308594 "/>
<path style=" stroke:none;fill-rule:nonzero;fill:rgb(18.431373%,18.039216%,25.490196%);fill-opacity:1;" d="M 464.835938 458.71875 L 482.304688 458.71875 L 482.304688 469.726562 L 453.835938 469.726562 C 453.835938 463.648438 458.761719 458.71875 464.835938 458.71875 Z M 464.835938 458.71875 "/>
<path style=" stroke:none;fill-rule:nonzero;fill:rgb(100%,72.156863%,72.156863%);fill-opacity:1;" d="M 444.3125 461.308594 L 435.253906 461.308594 L 430.945312 426.34375 L 444.3125 426.34375 Z M 444.3125 461.308594 "/>
<path style=" stroke:none;fill-rule:nonzero;fill:rgb(18.431373%,18.039216%,25.490196%);fill-opacity:1;" d="M 428.78125 458.71875 L 446.25 458.71875 L 446.25 469.726562 L 417.78125 469.726562 C 417.78125 463.648438 422.707031 458.71875 428.78125 458.71875 Z M 428.78125 458.71875 "/>
<path style=" stroke:none;fill-rule:nonzero;fill:rgb(100%,72.156863%,72.156863%);fill-opacity:1;" d="M 487.34375 340.425781 C 485.867188 338.796875 485.1875 336.59375 485.492188 334.414062 C 485.792969 332.234375 487.046875 330.300781 488.910156 329.132812 L 486.101562 312.375 L 495.863281 308.1875 L 499.492188 331.90625 C 501.285156 335.242188 500.300781 339.394531 497.199219 341.566406 C 494.101562 343.742188 489.867188 343.25 487.34375 340.425781 Z M 487.34375 340.425781 "/>
<path style=" stroke:none;fill-rule:nonzero;fill:rgb(100%,72.156863%,72.156863%);fill-opacity:1;" d="M 410.925781 332.507812 C 412.652344 331.144531 413.683594 329.085938 413.746094 326.886719 C 413.808594 324.6875 412.890625 322.570312 411.246094 321.113281 L 416.78125 305.050781 L 407.84375 299.304688 L 400.347656 322.097656 C 398.03125 325.09375 398.316406 329.347656 401.015625 332.003906 C 403.714844 334.660156 407.972656 334.878906 410.925781 332.507812 Z M 410.925781 332.507812 "/>
<path style=" stroke:none;fill-rule:nonzero;fill:rgb(100%,72.156863%,72.156863%);fill-opacity:1;" d="M 476.78125 194.699219 C 476.78125 205.453125 468.070312 214.171875 457.320312 214.171875 C 446.574219 214.171875 437.859375 205.453125 437.859375 194.699219 C 437.859375 183.941406 446.574219 175.222656 457.320312 175.222656 C 468.070312 175.222656 476.78125 183.941406 476.78125 194.699219 Z M 476.78125 194.699219 "/>
<path style=" stroke:none;fill-rule:nonzero;fill:rgb(24.705882%,23.921569%,33.72549%);fill-opacity:1;" d="M 410.324219 320.492188 C 409.992188 320.492188 409.660156 320.445312 409.335938 320.351562 L 403.664062 318.722656 C 401.78125 318.175781 400.6875 316.210938 401.21875 314.320312 L 412.925781 272.960938 L 429.25 232.855469 C 430.875 228.871094 434.265625 226.253906 438.101562 226.035156 C 441.679688 225.859375 445.027344 227.808594 446.640625 231.011719 C 448.421875 234.410156 448.527344 238.441406 446.925781 241.929688 L 428.367188 282.535156 L 413.617188 318.285156 C 413.066406 319.621094 411.765625 320.492188 410.324219 320.492188 Z M 410.324219 320.492188 "/>
<path style=" stroke:none;fill-rule:nonzero;fill:rgb(18.431373%,18.039216%,25.490196%);fill-opacity:1;" d="M 468.304688 211.03125 L 457.492188 211.222656 C 455.207031 211.265625 453.035156 210.222656 451.644531 208.410156 C 450.253906 206.597656 449.808594 204.230469 450.441406 202.03125 C 450.671875 201.25 450.847656 200.453125 450.960938 199.644531 C 451.082031 198.761719 451.105469 197.871094 451.03125 196.984375 C 450.890625 195.15625 449.503906 193.667969 447.691406 193.402344 C 445.878906 193.136719 444.125 194.160156 443.460938 195.867188 C 441.644531 195.894531 437.769531 195.300781 435.949219 195.328125 C 432.089844 185.421875 440.503906 172.464844 449.558594 167.597656 C 458.792969 162.632812 470.777344 167.683594 474.316406 178.023438 C 479.226562 178.113281 483.21875 182.960938 483.851562 188.417969 C 484.484375 193.875 482.238281 199.570312 478.808594 203.753906 C 475.375 207.9375 470.871094 210.984375 468.304688 211.03125 Z M 468.304688 211.03125 "/>
<path style=" stroke:none;fill-rule:nonzero;fill:rgb(18.431373%,18.039216%,25.490196%);fill-opacity:1;" d="M 432.757812 458.046875 C 430.945312 458.035156 429.425781 456.667969 429.222656 454.867188 L 425.210938 319.882812 L 475.753906 323.480469 L 475.792969 323.804688 C 487.21875 419.484375 483.3125 452.601562 483.273438 452.925781 C 483.214844 453.917969 482.75 454.835938 481.984375 455.46875 C 481.222656 456.101562 480.230469 456.386719 479.25 456.257812 L 468.078125 456.527344 C 466.328125 456.328125 464.988281 454.882812 464.917969 453.121094 L 454.480469 355.351562 C 454.347656 354.828125 453.859375 354.476562 453.320312 354.515625 C 452.765625 354.511719 452.289062 354.90625 452.179688 355.449219 L 448.148438 453.535156 C 448.238281 455.429688 446.828125 457.054688 444.945312 457.238281 L 433.113281 458.027344 C 432.996094 458.039062 432.878906 458.046875 432.757812 458.046875 Z M 432.757812 458.046875 "/>
<path style=" stroke:none;fill-rule:nonzero;fill:rgb(24.705882%,23.921569%,33.72549%);fill-opacity:1;" d="M 453.730469 336.007812 C 453.429688 336.007812 453.128906 336.003906 452.824219 335.996094 C 438.289062 335.558594 426.921875 324.554688 423.78125 321.191406 C 422.96875 320.320312 422.648438 319.101562 422.925781 317.945312 L 431.308594 282.449219 L 429.085938 251.589844 C 428.378906 242.925781 431.40625 234.375 437.410156 228.09375 C 442.410156 222.804688 449.460938 219.949219 456.734375 220.269531 C 470.882812 220.945312 482.042969 233.601562 482.144531 249.078125 C 482.300781 273.054688 481.59375 274.699219 481.363281 275.242188 C 474.300781 291.730469 478.160156 314.878906 479.507812 321.582031 C 479.753906 322.796875 479.351562 324.054688 478.449219 324.902344 C 470.683594 332.277344 462.371094 336.007812 453.730469 336.007812 Z M 453.730469 336.007812 "/>
<path style=" stroke:none;fill-rule:nonzero;fill:rgb(24.705882%,23.921569%,33.72549%);fill-opacity:1;" d="M 490.234375 326.988281 C 488.574219 326.984375 487.132812 325.835938 486.761719 324.214844 L 478.113281 286.507812 L 466.519531 243.40625 C 465.515625 239.703125 466.285156 235.742188 468.601562 232.683594 C 470.722656 229.792969 474.34375 228.425781 477.84375 229.1875 C 481.59375 230.039062 484.503906 233.179688 485.449219 237.378906 L 494.921875 279.585938 L 499.644531 322.355469 C 499.855469 324.308594 498.457031 326.066406 496.503906 326.292969 L 490.640625 326.964844 C 490.507812 326.980469 490.371094 326.988281 490.234375 326.988281 Z M 490.234375 326.988281 "/>
<path style=" stroke:none;fill-rule:nonzero;fill:rgb(100%,72.156863%,72.156863%);fill-opacity:1;" d="M 24.429688 331.054688 C 26.507812 329.628906 27.847656 327.355469 28.089844 324.847656 C 28.332031 322.335938 27.453125 319.847656 25.683594 318.050781 L 28.988281 244.296875 L 12.175781 246.183594 L 13.152344 318.328125 C 10.269531 321.570312 10.265625 326.457031 13.144531 329.703125 C 16.019531 332.949219 20.871094 333.53125 24.429688 331.054688 Z M 24.429688 331.054688 "/>
<path style=" stroke:none;fill-rule:nonzero;fill:rgb(100%,72.156863%,72.156863%);fill-opacity:1;" d="M 55.097656 455.90625 L 64.667969 457.589844 L 74.121094 421.460938 L 61.585938 418.976562 Z M 55.097656 455.90625 "/>
<path style=" stroke:none;fill-rule:nonzero;fill:rgb(18.431373%,18.039216%,25.490196%);fill-opacity:1;" d="M 81.558594 469.726562 L 51.488281 464.4375 L 53.527344 452.8125 L 71.980469 456.058594 C 78.398438 457.1875 82.683594 463.304688 81.558594 469.726562 Z M 81.558594 469.726562 "/>
<path style=" stroke:none;fill-rule:nonzero;fill:rgb(100%,72.156863%,72.156863%);fill-opacity:1;" d="M 28.835938 460.699219 L 38.550781 460.699219 L 43.171875 423.203125 L 28.835938 423.203125 Z M 28.835938 460.699219 "/>
<path style=" stroke:none;fill-rule:nonzero;fill:rgb(18.431373%,18.039216%,25.490196%);fill-opacity:1;" d="M 57.289062 469.726562 L 26.753906 469.726562 L 26.753906 457.921875 L 45.492188 457.921875 C 52.003906 457.921875 57.285156 463.207031 57.289062 469.726562 Z M 57.289062 469.726562 "/>
<path style=" stroke:none;fill-rule:nonzero;fill:rgb(18.431373%,18.039216%,25.490196%);fill-opacity:1;" d="M 70.164062 450.433594 C 70.011719 450.433594 69.859375 450.421875 69.707031 450.40625 L 58.273438 449.464844 C 57.222656 449.339844 56.265625 448.789062 55.632812 447.941406 C 54.996094 447.09375 54.738281 446.019531 54.914062 444.976562 L 65.472656 385.757812 L 58.335938 348.117188 C 58.214844 347.484375 57.648438 347.035156 57.007812 347.070312 C 56.363281 347.101562 55.84375 347.601562 55.785156 348.242188 L 46.867188 448.648438 C 46.664062 450.742188 44.835938 452.300781 42.738281 452.167969 L 31.964844 451.765625 C 30.011719 451.628906 28.46875 450.050781 28.371094 448.09375 L 27.648438 327.753906 L 83.496094 320.769531 L 87.398438 381.0625 L 87.382812 381.125 L 73.917969 447.476562 C 73.496094 449.207031 71.945312 450.429688 70.164062 450.433594 Z M 70.164062 450.433594 "/>
<path style=" stroke:none;fill-rule:nonzero;fill:rgb(100%,72.156863%,72.156863%);fill-opacity:1;" d="M 65.523438 177.027344 C 65.523438 187.78125 56.808594 196.5 46.0625 196.5 C 35.3125 196.5 26.597656 187.78125 26.597656 177.027344 C 26.597656 166.269531 35.3125 157.550781 46.0625 157.550781 C 56.808594 157.550781 65.523438 166.269531 65.523438 177.027344 Z M 65.523438 177.027344 "/>
<path style=" stroke:none;fill-rule:nonzero;fill:rgb(41.568627%,35.294118%,80.392157%);fill-opacity:1;" d="M 64.398438 336.546875 C 61.355469 336.566406 58.371094 335.710938 55.796875 334.085938 C 46.367188 328.191406 35.660156 330.535156 30.117188 332.457031 C 29.003906 332.84375 27.769531 332.707031 26.773438 332.074219 C 25.785156 331.453125 25.136719 330.417969 25.011719 329.257812 L 14.929688 239.160156 C 13.238281 224.066406 22.328125 209.871094 36.535156 205.414062 C 37.070312 205.246094 37.613281 205.085938 38.164062 204.9375 C 47.113281 202.507812 56.679688 204.171875 64.292969 209.476562 C 72.042969 214.835938 77.023438 223.359375 77.894531 232.75 L 86.378906 323.449219 C 86.496094 324.640625 86.050781 325.816406 85.171875 326.628906 C 82.195312 329.382812 73.5625 336.546875 64.398438 336.546875 Z M 64.398438 336.546875 "/>
<path style=" stroke:none;fill-rule:nonzero;fill:rgb(41.568627%,35.294118%,80.392157%);fill-opacity:1;" d="M 33.699219 258.480469 L 10.957031 255.980469 C 9.648438 255.835938 8.464844 255.128906 7.71875 254.042969 C 6.972656 252.953125 6.734375 251.597656 7.070312 250.320312 L 12.859375 228.242188 C 13.65625 221.347656 19.878906 216.398438 26.769531 217.179688 C 33.660156 217.957031 38.625 224.167969 37.863281 231.066406 L 38.722656 253.804688 C 38.773438 255.121094 38.246094 256.394531 37.28125 257.292969 C 36.316406 258.191406 35.011719 258.625 33.699219 258.480469 Z M 33.699219 258.480469 "/>
<path style=" stroke:none;fill-rule:nonzero;fill:rgb(100%,72.156863%,72.156863%);fill-opacity:1;" d="M 86.289062 327.894531 C 88.179688 326.230469 89.238281 323.8125 89.175781 321.292969 C 89.113281 318.769531 87.9375 316.40625 85.96875 314.835938 L 80.363281 241.21875 L 63.890625 244.929688 L 73.5625 316.625 C 71.089844 320.1875 71.675781 325.042969 74.921875 327.917969 C 78.167969 330.792969 83.054688 330.785156 86.289062 327.894531 Z M 86.289062 327.894531 "/>
<path style=" stroke:none;fill-rule:nonzero;fill:rgb(41.568627%,35.294118%,80.392157%);fill-opacity:1;" d="M 57.574219 253.851562 C 56.609375 252.957031 56.085938 251.683594 56.136719 250.363281 L 56.996094 227.628906 C 56.234375 220.730469 61.199219 214.515625 68.089844 213.738281 C 74.980469 212.960938 81.203125 217.90625 82 224.800781 L 87.789062 246.882812 C 88.121094 248.15625 87.886719 249.515625 87.140625 250.601562 C 86.394531 251.6875 85.210938 252.394531 83.902344 252.539062 L 61.15625 255.042969 C 59.847656 255.1875 58.539062 254.753906 57.574219 253.851562 Z M 57.574219 253.851562 "/>
<path style=" stroke:none;fill-rule:nonzero;fill:rgb(18.431373%,18.039216%,25.490196%);fill-opacity:1;" d="M 44.902344 197.234375 C 44.558594 197.234375 44.210938 197.195312 43.875 197.113281 L 43.777344 197.089844 C 26.664062 194.472656 22.882812 184.554688 22.054688 180.410156 C 21.195312 176.121094 22.171875 171.984375 24.382812 170.375 C 23.179688 166.566406 23.371094 163.191406 24.960938 160.335938 C 27.730469 155.355469 33.742188 153.671875 34.546875 153.464844 C 39.347656 149.921875 45.089844 152.289062 46.136719 152.769531 C 55.421875 149.328125 58.972656 152.191406 59.613281 152.832031 C 63.761719 153.578125 66.292969 155.179688 67.132812 157.601562 C 68.710938 162.144531 63.722656 167.796875 63.507812 168.035156 L 63.398438 168.160156 L 55.964844 168.511719 C 54.539062 168.582031 53.207031 169.253906 52.304688 170.359375 C 51.402344 171.464844 51.007812 172.902344 51.226562 174.316406 C 51.425781 175.214844 51.679688 176.105469 51.988281 176.976562 C 53.257812 180.945312 54.207031 184.335938 52.980469 185.625 C 52.414062 186.136719 51.605469 186.277344 50.902344 185.988281 C 49.738281 185.675781 48.949219 185.742188 48.554688 186.179688 C 47.945312 186.863281 48.132812 188.585938 49.082031 191.039062 C 49.6875 192.617188 49.367188 194.402344 48.253906 195.675781 C 47.417969 196.660156 46.195312 197.230469 44.902344 197.234375 Z M 44.902344 197.234375 "/>
<path style=" stroke:none;fill-rule:nonzero;fill:rgb(80%,80%,80%);fill-opacity:1;" d="M 111.726562 470.953125 L 0.792969 470.953125 C 0.355469 470.953125 0 470.597656 0 470.160156 C 0 469.722656 0.355469 469.367188 0.792969 469.367188 L 111.726562 469.367188 C 112.164062 469.367188 112.519531 469.722656 112.519531 470.160156 C 112.519531 470.597656 112.164062 470.953125 111.726562 470.953125 Z M 111.726562 470.953125 "/>
<path style=" stroke:none;fill-rule:nonzero;fill:rgb(80%,80%,80%);fill-opacity:1;" d="M 498.414062 470.953125 L 387.480469 470.953125 C 387.042969 470.953125 386.6875 470.597656 386.6875 470.160156 C 386.6875 469.722656 387.042969 469.367188 387.480469 469.367188 L 498.414062 469.367188 C 498.851562 469.367188 499.207031 469.722656 499.207031 470.160156 C 499.207031 470.597656 498.851562 470.953125 498.414062 470.953125 Z M 498.414062 470.953125 "/>
<path style=" stroke:none;fill-rule:nonzero;fill:rgb(100%,100%,100%);fill-opacity:1;" d="M 339.707031 336.203125 L 147.949219 336.203125 C 132.640625 336.183594 120.234375 323.769531 120.214844 308.449219 L 120.214844 27.753906 C 120.234375 12.433594 132.640625 0.015625 147.949219 0 L 339.707031 0 C 355.019531 0.015625 367.425781 12.433594 367.441406 27.753906 L 367.441406 308.449219 C 367.425781 323.769531 355.019531 336.183594 339.707031 336.203125 Z M 339.707031 336.203125 "/>
<path style=" stroke:none;fill-rule:nonzero;fill:rgb(80%,80%,80%);fill-opacity:1;" d="M 309.597656 222.835938 L 178.0625 222.835938 C 164.625 222.773438 164.570312 202.289062 178.0625 202.21875 L 309.597656 202.21875 C 323.027344 202.285156 323.097656 222.765625 309.597656 222.835938 Z M 309.597656 222.835938 "/>
<path style=" stroke:none;fill-rule:nonzero;fill:rgb(80%,80%,80%);fill-opacity:1;" d="M 309.597656 57.859375 L 178.0625 57.859375 C 164.625 57.796875 164.570312 37.3125 178.0625 37.246094 L 309.597656 37.246094 C 323.027344 37.308594 323.097656 57.789062 309.597656 57.859375 Z M 309.597656 57.859375 "/>
<path style=" stroke:none;fill-rule:nonzero;fill:rgb(80%,80%,80%);fill-opacity:1;" d="M 309.597656 260.898438 L 178.0625 260.898438 C 164.625 260.832031 164.570312 240.351562 178.0625 240.28125 L 309.597656 240.28125 C 323.027344 240.34375 323.097656 260.828125 309.597656 260.898438 Z M 309.597656 260.898438 "/>
<path style=" stroke:none;fill-rule:nonzero;fill:rgb(80%,80%,80%);fill-opacity:1;" d="M 309.597656 298.957031 L 178.0625 298.957031 C 164.625 298.894531 164.570312 278.410156 178.0625 278.339844 L 309.597656 278.339844 C 323.027344 278.40625 323.097656 298.886719 309.597656 298.957031 Z M 309.597656 298.957031 "/>
<path style=" stroke:none;fill-rule:nonzero;fill:rgb(41.568627%,35.294118%,80.392157%);fill-opacity:1;" d="M 307.222656 177.480469 L 180.4375 177.480469 C 173.21875 177.472656 167.371094 171.621094 167.363281 164.398438 L 167.363281 93.351562 C 167.371094 86.128906 173.21875 80.277344 180.4375 80.269531 L 307.222656 80.269531 C 314.4375 80.277344 320.285156 86.128906 320.296875 93.351562 L 320.296875 164.398438 C 320.285156 171.621094 314.4375 177.472656 307.222656 177.480469 Z M 307.222656 177.480469 "/>
<path style=" stroke:none;fill-rule:nonzero;fill:rgb(90.196078%,90.196078%,90.196078%);fill-opacity:1;" d="M 339.707031 336.203125 L 147.949219 336.203125 C 132.640625 336.183594 120.234375 323.769531 120.214844 308.449219 L 120.214844 27.753906 C 120.234375 12.433594 132.640625 0.015625 147.949219 0 L 339.707031 0 C 355.019531 0.015625 367.425781 12.433594 367.441406 27.753906 L 367.441406 308.449219 C 367.425781 323.769531 355.019531 336.183594 339.707031 336.203125 Z M 147.949219 4.757812 C 135.265625 4.773438 124.984375 15.058594 124.96875 27.753906 L 124.96875 308.449219 C 124.984375 321.144531 135.265625 331.429688 147.949219 331.445312 L 339.707031 331.445312 C 352.394531 331.429688 362.675781 321.144531 362.6875 308.449219 L 362.6875 27.753906 C 362.675781 15.058594 352.394531 4.773438 339.707031 4.757812 Z M 147.949219 4.757812 "/>
</g>
</svg>
