<?xml version="1.0" encoding="UTF-8"?>
<svg xmlns="http://www.w3.org/2000/svg" xmlns:xlink="http://www.w3.org/1999/xlink" width="500px" height="px" viewBox="0 0 499 337" version="1.1">
<g id="surface1">
<path style=" stroke:none;fill-rule:nonzero;fill:rgb(24.705882%,23.921569%,33.72549%);fill-opacity:1;" d="M 495.785156 278.335938 L 248.890625 278.335938 C 247.09375 278.332031 245.636719 276.875 245.636719 275.074219 L 245.636719 3.257812 C 245.636719 1.460938 247.09375 0.00390625 248.890625 0 L 495.785156 0 C 497.585938 0.00390625 499.042969 1.460938 499.042969 3.257812 L 499.042969 275.074219 C 499.042969 276.875 497.585938 278.332031 495.785156 278.335938 Z M 248.890625 1.304688 C 247.8125 1.304688 246.9375 2.179688 246.9375 3.257812 L 246.9375 275.074219 C 246.9375 276.15625 247.8125 277.03125 248.890625 277.03125 L 495.785156 277.03125 C 496.867188 277.03125 497.738281 276.15625 497.742188 275.074219 L 497.742188 3.257812 C 497.738281 2.179688 496.867188 1.304688 495.785156 1.304688 Z M 248.890625 1.304688 "/>
<path style=" stroke:none;fill-rule:nonzero;fill:rgb(94.901961%,94.901961%,94.901961%);fill-opacity:1;" d="M 355.402344 103.640625 L 294.167969 103.640625 C 292.367188 103.640625 290.910156 102.183594 290.910156 100.382812 L 290.910156 39.109375 C 290.910156 37.3125 292.367188 35.851562 294.167969 35.851562 L 355.402344 35.851562 C 357.199219 35.851562 358.65625 37.3125 358.660156 39.109375 L 358.660156 100.382812 C 358.65625 102.183594 357.199219 103.640625 355.402344 103.640625 Z M 294.167969 37.15625 C 293.089844 37.15625 292.214844 38.03125 292.210938 39.109375 L 292.210938 100.382812 C 292.214844 101.460938 293.089844 102.335938 294.167969 102.339844 L 355.402344 102.339844 C 356.480469 102.335938 357.355469 101.460938 357.355469 100.382812 L 357.355469 39.109375 C 357.355469 38.03125 356.480469 37.15625 355.402344 37.15625 Z M 294.167969 37.15625 "/>
<path style=" stroke:none;fill-rule:nonzero;fill:rgb(41.568627%,35.294118%,80.392157%);fill-opacity:1;" d="M 337.8125 111.136719 L 276.578125 111.136719 C 274.960938 111.136719 273.648438 109.824219 273.648438 108.203125 L 273.648438 46.933594 C 273.648438 45.3125 274.960938 44 276.578125 44 L 337.8125 44 C 339.429688 44 340.742188 45.3125 340.746094 46.933594 L 340.746094 108.203125 C 340.742188 109.824219 339.429688 111.136719 337.8125 111.136719 Z M 337.8125 111.136719 "/>
<path style=" stroke:none;fill-rule:nonzero;fill:rgb(80%,80%,80%);fill-opacity:1;" d="M 468.101562 141.121094 L 276.578125 141.121094 C 274.960938 141.121094 273.648438 139.808594 273.648438 138.191406 C 273.648438 136.570312 274.960938 135.257812 276.578125 135.257812 L 468.101562 135.257812 C 469.71875 135.257812 471.03125 136.570312 471.03125 138.191406 C 471.03125 139.808594 469.71875 141.121094 468.101562 141.121094 Z M 468.101562 141.121094 "/>
<path style=" stroke:none;fill-rule:nonzero;fill:rgb(80%,80%,80%);fill-opacity:1;" d="M 421.847656 161.328125 L 276.578125 161.328125 C 274.960938 161.328125 273.648438 160.015625 273.648438 158.398438 C 273.648438 156.777344 274.960938 155.464844 276.578125 155.464844 L 421.847656 155.464844 C 423.46875 155.464844 424.78125 156.777344 424.78125 158.398438 C 424.78125 160.015625 423.46875 161.328125 421.847656 161.328125 Z M 421.847656 161.328125 "/>
<path style=" stroke:none;fill-rule:nonzero;fill:rgb(80%,80%,80%);fill-opacity:1;" d="M 467.449219 66.8125 L 382.761719 66.8125 C 381.144531 66.8125 379.832031 65.5 379.832031 63.878906 C 379.832031 62.261719 381.144531 60.945312 382.761719 60.945312 L 467.449219 60.945312 C 469.066406 60.945312 470.378906 62.261719 470.378906 63.878906 C 470.378906 65.5 469.066406 66.8125 467.449219 66.8125 Z M 467.449219 66.8125 "/>
<path style=" stroke:none;fill-rule:nonzero;fill:rgb(80%,80%,80%);fill-opacity:1;" d="M 446.3125 87.019531 L 382.761719 87.019531 C 381.144531 87.019531 379.832031 85.707031 379.832031 84.085938 C 379.832031 82.46875 381.144531 81.152344 382.761719 81.152344 L 446.3125 81.152344 C 447.933594 81.152344 449.246094 82.46875 449.246094 84.085938 C 449.246094 85.707031 447.933594 87.019531 446.3125 87.019531 Z M 446.3125 87.019531 "/>
<path style=" stroke:none;fill-rule:nonzero;fill:rgb(80%,80%,80%);fill-opacity:1;" d="M 468.101562 181.535156 L 276.578125 181.535156 C 274.960938 181.535156 273.648438 180.222656 273.648438 178.601562 C 273.648438 176.984375 274.960938 175.671875 276.578125 175.671875 L 468.101562 175.671875 C 469.71875 175.671875 471.03125 176.984375 471.03125 178.601562 C 471.03125 180.222656 469.71875 181.535156 468.101562 181.535156 Z M 468.101562 181.535156 "/>
<path style=" stroke:none;fill-rule:nonzero;fill:rgb(80%,80%,80%);fill-opacity:1;" d="M 421.847656 201.742188 L 276.578125 201.742188 C 274.960938 201.742188 273.648438 200.429688 273.648438 198.808594 C 273.648438 197.191406 274.960938 195.878906 276.578125 195.878906 L 421.847656 195.878906 C 423.46875 195.878906 424.78125 197.191406 424.78125 198.808594 C 424.78125 200.429688 423.46875 201.742188 421.847656 201.742188 Z M 421.847656 201.742188 "/>
<path style=" stroke:none;fill-rule:nonzero;fill:rgb(80%,80%,80%);fill-opacity:1;" d="M 468.101562 221.949219 L 276.578125 221.949219 C 274.960938 221.949219 273.648438 220.636719 273.648438 219.015625 C 273.648438 217.398438 274.960938 216.085938 276.578125 216.085938 L 468.101562 216.085938 C 469.71875 216.085938 471.03125 217.398438 471.03125 219.015625 C 471.03125 220.636719 469.71875 221.949219 468.101562 221.949219 Z M 468.101562 221.949219 "/>
<path style=" stroke:none;fill-rule:nonzero;fill:rgb(80%,80%,80%);fill-opacity:1;" d="M 468.101562 242.15625 L 276.578125 242.15625 C 274.960938 242.15625 273.648438 240.84375 273.648438 239.222656 C 273.648438 237.605469 274.960938 236.292969 276.578125 236.292969 L 468.101562 236.292969 C 469.71875 236.292969 471.03125 237.605469 471.03125 239.222656 C 471.03125 240.84375 469.71875 242.15625 468.101562 242.15625 Z M 468.101562 242.15625 "/>
<path style=" stroke:none;fill-rule:nonzero;fill:rgb(100%,100%,100%);fill-opacity:1;" d="M 313.664062 253.117188 L 173.605469 253.117188 C 171.808594 253.113281 170.351562 251.65625 170.347656 249.855469 L 170.347656 163.160156 C 170.351562 161.363281 171.808594 159.90625 173.605469 159.902344 L 313.664062 159.902344 C 315.460938 159.90625 316.917969 161.363281 316.921875 163.160156 L 316.921875 249.855469 C 316.917969 251.65625 315.460938 253.113281 313.664062 253.117188 Z M 313.664062 253.117188 "/>
<path style=" stroke:none;fill-rule:nonzero;fill:rgb(24.705882%,23.921569%,33.72549%);fill-opacity:1;" d="M 313.664062 253.117188 L 173.605469 253.117188 C 171.808594 253.113281 170.351562 251.65625 170.347656 249.855469 L 170.347656 163.160156 C 170.351562 161.363281 171.808594 159.90625 173.605469 159.902344 L 313.664062 159.902344 C 315.460938 159.90625 316.917969 161.363281 316.921875 163.160156 L 316.921875 249.855469 C 316.917969 251.65625 315.460938 253.113281 313.664062 253.117188 Z M 173.605469 161.207031 C 172.527344 161.207031 171.652344 162.082031 171.652344 163.160156 L 171.652344 249.855469 C 171.652344 250.9375 172.527344 251.8125 173.605469 251.8125 L 313.664062 251.8125 C 314.742188 251.8125 315.617188 250.9375 315.617188 249.855469 L 315.617188 163.160156 C 315.617188 162.082031 314.742188 161.207031 313.664062 161.207031 Z M 173.605469 161.207031 "/>
<path style=" stroke:none;fill-rule:nonzero;fill:rgb(80%,80%,80%);fill-opacity:1;" d="M 285.976562 199.339844 L 201.292969 199.339844 C 199.671875 199.339844 198.359375 198.027344 198.359375 196.40625 C 198.359375 194.785156 199.671875 193.472656 201.292969 193.472656 L 285.976562 193.472656 C 287.597656 193.472656 288.910156 194.785156 288.910156 196.40625 C 288.910156 198.027344 287.597656 199.339844 285.976562 199.339844 Z M 285.976562 199.339844 "/>
<path style=" stroke:none;fill-rule:nonzero;fill:rgb(80%,80%,80%);fill-opacity:1;" d="M 285.976562 219.546875 L 201.292969 219.546875 C 199.671875 219.546875 198.359375 218.234375 198.359375 216.613281 C 198.359375 214.992188 199.671875 213.679688 201.292969 213.679688 L 285.976562 213.679688 C 287.597656 213.679688 288.910156 214.992188 288.910156 216.613281 C 288.910156 218.234375 287.597656 219.546875 285.976562 219.546875 Z M 285.976562 219.546875 "/>
<path style=" stroke:none;fill-rule:nonzero;fill:rgb(62.745098%,38.039216%,41.568627%);fill-opacity:1;" d="M 150.046875 329.105469 L 158.035156 329.105469 L 161.835938 298.28125 L 150.046875 298.285156 Z M 150.046875 329.105469 "/>
<path style=" stroke:none;fill-rule:nonzero;fill:rgb(18.431373%,18.039216%,25.490196%);fill-opacity:1;" d="M 148.011719 326.496094 L 163.742188 326.496094 C 169.277344 326.496094 173.761719 330.988281 173.761719 336.527344 L 173.761719 336.851562 L 148.011719 336.851562 Z M 148.011719 326.496094 "/>
<path style=" stroke:none;fill-rule:nonzero;fill:rgb(62.745098%,38.039216%,41.568627%);fill-opacity:1;" d="M 87.863281 325.648438 L 95.761719 326.839844 L 104.121094 296.933594 L 93.769531 295.171875 Z M 87.863281 325.648438 "/>
<path style=" stroke:none;fill-rule:nonzero;fill:rgb(18.431373%,18.039216%,25.490196%);fill-opacity:1;" d="M 86.238281 322.761719 L 101.789062 325.117188 C 107.265625 325.945312 111.03125 331.054688 110.203125 336.53125 L 110.15625 336.851562 L 84.691406 333.003906 Z M 86.238281 322.761719 "/>
<path style=" stroke:none;fill-rule:nonzero;fill:rgb(62.745098%,38.039216%,41.568627%);fill-opacity:1;" d="M 112.488281 176.351562 L 121.355469 178.675781 L 120.765625 193.0625 L 120.691406 219.253906 C 122.480469 220.492188 123.320312 222.703125 122.804688 224.816406 C 122.285156 226.929688 120.519531 228.507812 118.363281 228.777344 C 116.203125 229.050781 114.101562 227.960938 113.078125 226.039062 C 112.054688 224.121094 112.324219 221.765625 113.75 220.125 L 111.023438 193.835938 Z M 112.488281 176.351562 "/>
<path style=" stroke:none;fill-rule:nonzero;fill:rgb(41.568627%,35.294118%,80.392157%);fill-opacity:1;" d="M 110.945312 159.871094 C 111.042969 157.035156 112.792969 154.515625 115.417969 153.429688 C 117.878906 152.332031 120.753906 152.792969 122.746094 154.609375 C 124.160156 155.875 124.949219 157.703125 124.894531 159.601562 C 124.917969 168.03125 123.015625 180.316406 122.996094 180.4375 L 122.96875 180.632812 L 110.007812 185 Z M 110.945312 159.871094 "/>
<path style=" stroke:none;fill-rule:nonzero;fill:rgb(18.431373%,18.039216%,25.490196%);fill-opacity:1;" d="M 134.121094 183.796875 L 153.945312 178.660156 L 163.109375 209.542969 L 163.433594 324.59375 L 148.273438 324.496094 L 141.9375 231.378906 L 101.546875 317.421875 L 85.261719 315.464844 L 120.765625 223.230469 C 120.765625 223.230469 118.8125 206.933594 125 198.789062 L 123.695312 190.3125 Z M 134.121094 183.796875 "/>
<path style=" stroke:none;fill-rule:nonzero;fill:rgb(41.568627%,35.294118%,80.392157%);fill-opacity:1;" d="M 120.753906 191.480469 C 120.191406 190.796875 119.953125 189.902344 120.105469 189.035156 L 111.0625 161.886719 C 110.199219 159.296875 110.945312 156.4375 112.964844 154.597656 L 116.890625 151.027344 L 119.550781 140.378906 L 134.839844 144.121094 L 133.582031 149.164062 L 140.5 147.902344 L 155.074219 180.386719 L 124.609375 192.570312 L 123.109375 192.59375 C 122.195312 192.597656 121.328125 192.1875 120.753906 191.480469 Z M 120.753906 191.480469 "/>
<path style=" stroke:none;fill-rule:nonzero;fill:rgb(62.745098%,38.039216%,41.568627%);fill-opacity:1;" d="M 141.972656 168.558594 L 150.710938 165.78125 L 157.898438 178.253906 L 171.828125 200.429688 C 174 200.519531 175.890625 201.941406 176.585938 204.003906 C 177.277344 206.066406 176.625 208.34375 174.945312 209.726562 C 173.269531 211.109375 170.910156 211.3125 169.019531 210.238281 C 167.128906 209.164062 166.097656 207.03125 166.425781 204.878906 L 150.078125 184.121094 Z M 141.972656 168.558594 "/>
<path style=" stroke:none;fill-rule:nonzero;fill:rgb(41.568627%,35.294118%,80.392157%);fill-opacity:1;" d="M 131.867188 155.457031 C 130.433594 153.003906 130.570312 149.941406 132.207031 147.621094 C 133.699219 145.375 136.378906 144.230469 139.03125 144.699219 C 140.902344 145.011719 142.542969 146.136719 143.515625 147.769531 C 148.035156 154.878906 152.992188 166.277344 153.039062 166.390625 L 153.121094 166.574219 L 144.5 177.195312 Z M 131.867188 155.457031 "/>
<path style=" stroke:none;fill-rule:nonzero;fill:rgb(62.745098%,38.039216%,41.568627%);fill-opacity:1;" d="M 143.011719 126.242188 C 143.011719 132.957031 137.574219 138.398438 130.863281 138.398438 C 124.152344 138.398438 118.714844 132.957031 118.714844 126.242188 C 118.714844 119.53125 124.152344 114.085938 130.863281 114.085938 C 137.574219 114.085938 143.011719 119.53125 143.011719 126.242188 Z M 143.011719 126.242188 "/>
<path style=" stroke:none;fill-rule:nonzero;fill:rgb(18.431373%,18.039216%,25.490196%);fill-opacity:1;" d="M 121.097656 109.40625 C 121.097656 115.875 115.855469 121.117188 109.394531 121.117188 C 102.929688 121.117188 97.691406 115.875 97.691406 109.40625 C 97.691406 102.9375 102.929688 97.695312 109.394531 97.695312 C 115.855469 97.695312 121.097656 102.9375 121.097656 109.40625 Z M 121.097656 109.40625 "/>
<path style=" stroke:none;fill-rule:nonzero;fill:rgb(18.431373%,18.039216%,25.490196%);fill-opacity:1;" d="M 99.300781 119.101562 C 102.375 121.324219 106.332031 121.921875 109.921875 120.699219 C 113.511719 119.476562 116.289062 116.589844 117.371094 112.953125 C 116.820312 117.332031 113.855469 121.03125 109.703125 122.519531 C 105.550781 124.003906 100.917969 123.03125 97.714844 119.996094 C 94.511719 116.960938 93.285156 112.382812 94.542969 108.152344 C 94.011719 112.398438 95.832031 116.597656 99.300781 119.101562 Z M 99.300781 119.101562 "/>
<path style=" stroke:none;fill-rule:nonzero;fill:rgb(18.431373%,18.039216%,25.490196%);fill-opacity:1;" d="M 145.480469 119.117188 C 143.4375 115.457031 142.65625 113.925781 140.023438 111.703125 C 137.695312 109.734375 134.828125 109.15625 132.519531 111.019531 C 126.90625 108.59375 120.363281 110.140625 116.429688 114.828125 C 112.5 119.511719 112.105469 126.226562 115.464844 131.339844 C 118.824219 136.453125 125.136719 138.753906 130.996094 137 C 136.855469 135.246094 140.871094 129.851562 140.867188 123.730469 C 140.867188 123.207031 140.835938 122.6875 140.773438 122.164062 C 142.785156 121.882812 143.472656 119.398438 145.480469 119.117188 Z M 145.480469 119.117188 "/>
<path style=" stroke:none;fill-rule:nonzero;fill:rgb(80%,80%,80%);fill-opacity:1;" d="M 248.847656 337 L 0.652344 337 C 0.292969 337 0 336.707031 0 336.347656 C 0 335.988281 0.292969 335.695312 0.652344 335.695312 L 248.847656 335.695312 C 249.207031 335.695312 249.5 335.988281 249.5 336.347656 C 249.5 336.707031 249.207031 337 248.847656 337 Z M 248.847656 337 "/>
</g>
</svg>
