<?xml version="1.0" encoding="UTF-8"?>
<svg xmlns="http://www.w3.org/2000/svg" xmlns:xlink="http://www.w3.org/1999/xlink" width="500px" height="px" viewBox="0 0 499 250" version="1.1">
<defs>
<filter id="alpha" filterUnits="objectBoundingBox" x="0%" y="0%" width="100%" height="100%">
  <feColorMatrix type="matrix" in="SourceGraphic" values="0 0 0 0 1 0 0 0 0 1 0 0 0 0 1 0 0 0 1 0"/>
</filter>
<mask id="mask0">
  <g filter="url(#alpha)">
<rect x="0" y="0" width="499" height="250" style="fill:rgb(0%,0%,0%);fill-opacity:0.2;stroke:none;"/>
  </g>
</mask>
<clipPath id="clip1">
  <rect x="0" y="0" width="499" height="250"/>
</clipPath>
<g id="surface5" clip-path="url(#clip1)">
<path style=" stroke:none;fill-rule:nonzero;fill:rgb(0%,0%,0%);fill-opacity:1;" d="M 95.460938 167.164062 L 88.644531 167.164062 L 91.992188 162.296875 L 92.230469 161.949219 L 92.351562 161.773438 L 92.65625 162.296875 Z M 95.460938 167.164062 "/>
</g>
<mask id="mask1">
  <g filter="url(#alpha)">
<rect x="0" y="0" width="499" height="250" style="fill:rgb(0%,0%,0%);fill-opacity:0.2;stroke:none;"/>
  </g>
</mask>
<clipPath id="clip2">
  <rect x="0" y="0" width="499" height="250"/>
</clipPath>
<g id="surface8" clip-path="url(#clip2)">
<path style=" stroke:none;fill-rule:nonzero;fill:rgb(0%,0%,0%);fill-opacity:1;" d="M 180.933594 151.226562 L 166.507812 151.226562 L 173.589844 140.929688 L 174.351562 139.816406 L 174.996094 140.929688 Z M 180.933594 151.226562 "/>
</g>
<mask id="mask2">
  <g filter="url(#alpha)">
<rect x="0" y="0" width="499" height="250" style="fill:rgb(0%,0%,0%);fill-opacity:0.2;stroke:none;"/>
  </g>
</mask>
<clipPath id="clip3">
  <rect x="0" y="0" width="499" height="250"/>
</clipPath>
<g id="surface11" clip-path="url(#clip3)">
<path style=" stroke:none;fill-rule:nonzero;fill:rgb(0%,0%,0%);fill-opacity:1;" d="M 340.238281 139.085938 L 322.496094 143.601562 L 327.988281 128.722656 L 328.386719 127.652344 L 328.582031 127.113281 L 329.71875 128.28125 Z M 340.238281 139.085938 "/>
</g>
</defs>
<g id="surface1">
<path style=" stroke:none;fill-rule:nonzero;fill:rgb(89.803922%,89.803922%,89.803922%);fill-opacity:1;" d="M 132.101562 119.308594 L 131.171875 119.308594 L 131.171875 93.78125 C 131.171875 85.621094 124.5625 79.003906 116.40625 79.003906 L 62.371094 79.003906 C 54.21875 79.003906 47.609375 85.621094 47.609375 93.78125 L 47.609375 233.835938 C 47.609375 241.996094 54.21875 248.613281 62.371094 248.613281 L 116.40625 248.613281 C 124.5625 248.613281 131.171875 241.996094 131.171875 233.835938 L 131.171875 137.480469 L 132.101562 137.480469 Z M 132.101562 119.308594 "/>
<path style=" stroke:none;fill-rule:nonzero;fill:rgb(100%,100%,100%);fill-opacity:1;" d="M 117.003906 82.847656 L 109.949219 82.847656 C 110.609375 84.464844 110.421875 86.304688 109.449219 87.753906 C 108.472656 89.203125 106.84375 90.070312 105.101562 90.070312 L 74.144531 90.070312 C 72.398438 90.070312 70.769531 89.203125 69.796875 87.753906 C 68.824219 86.304688 68.636719 84.464844 69.292969 82.847656 L 62.707031 82.847656 C 56.617188 82.847656 51.679688 87.789062 51.679688 93.882812 L 51.679688 233.734375 C 51.679688 239.828125 56.617188 244.765625 62.707031 244.765625 L 117.003906 244.765625 C 123.09375 244.765625 128.027344 239.828125 128.027344 233.734375 L 128.027344 93.882812 C 128.027344 87.789062 123.09375 82.847656 117.003906 82.847656 Z M 117.003906 82.847656 "/>
<path style=" stroke:none;fill-rule:nonzero;fill:rgb(100%,100%,100%);fill-opacity:1;" d="M 66.621094 141.671875 L 115.492188 141.671875 L 115.492188 174.671875 L 66.621094 174.671875 Z M 66.621094 141.671875 "/>
<path style=" stroke:none;fill-rule:nonzero;fill:rgb(24.705882%,23.921569%,33.72549%);fill-opacity:1;" d="M 115.660156 174.84375 L 66.453125 174.84375 L 66.453125 141.503906 L 115.660156 141.503906 Z M 66.789062 174.503906 L 115.324219 174.503906 L 115.324219 141.839844 L 66.789062 141.839844 Z M 66.789062 174.503906 "/>
<path style=" stroke:none;fill-rule:nonzero;fill:rgb(90.196078%,90.196078%,90.196078%);fill-opacity:1;" d="M 70.75 167.441406 L 111.363281 167.441406 L 111.363281 144.292969 L 70.75 144.292969 Z M 70.75 167.441406 "/>
<path style=" stroke:none;fill-rule:nonzero;fill:rgb(41.568627%,35.294118%,80.392157%);fill-opacity:1;" d="M 86.769531 154.609375 C 86.769531 156.859375 84.945312 158.683594 82.699219 158.683594 C 80.449219 158.683594 78.628906 156.859375 78.628906 154.609375 C 78.628906 152.359375 80.449219 150.535156 82.699219 150.535156 C 84.945312 150.535156 86.769531 152.359375 86.769531 154.609375 Z M 86.769531 154.609375 "/>
<path style=" stroke:none;fill-rule:nonzero;fill:rgb(24.705882%,23.921569%,33.72549%);fill-opacity:1;" d="M 95.460938 167.164062 L 75.496094 167.164062 C 75.46875 167.164062 75.445312 167.164062 75.421875 167.160156 L 84.863281 150.785156 C 84.980469 150.578125 85.199219 150.449219 85.4375 150.449219 C 85.675781 150.449219 85.898438 150.578125 86.015625 150.785156 L 92.351562 161.773438 L 92.65625 162.296875 Z M 95.460938 167.164062 "/>
<use xlink:href="#surface5" mask="url(#mask0)"/>
<path style=" stroke:none;fill-rule:nonzero;fill:rgb(24.705882%,23.921569%,33.72549%);fill-opacity:1;" d="M 106.578125 167.164062 L 89.308594 167.164062 L 92.65625 162.296875 L 92.898438 161.949219 L 97.257812 155.605469 C 97.414062 155.410156 97.644531 155.292969 97.894531 155.277344 C 98.144531 155.261719 98.390625 155.351562 98.566406 155.527344 C 98.589844 155.554688 98.613281 155.578125 98.628906 155.605469 Z M 106.578125 167.164062 "/>
<path style=" stroke:none;fill-rule:nonzero;fill:rgb(89.803922%,89.803922%,89.803922%);fill-opacity:1;" d="M 234.035156 248.738281 L 103.046875 248.738281 C 96.582031 248.730469 91.34375 243.488281 91.339844 237.015625 L 91.339844 46.886719 C 91.34375 40.414062 96.582031 35.171875 103.046875 35.164062 L 234.035156 35.164062 C 240.496094 35.171875 245.734375 40.414062 245.742188 46.886719 L 245.742188 237.015625 C 245.734375 243.488281 240.496094 248.730469 234.035156 248.738281 Z M 234.035156 248.738281 "/>
<path style=" stroke:none;fill-rule:nonzero;fill:rgb(100%,100%,100%);fill-opacity:1;" d="M 234.265625 241.261719 L 102.816406 241.261719 C 100.824219 241.257812 99.210938 239.640625 99.207031 237.648438 L 99.207031 46.253906 C 99.210938 44.261719 100.824219 42.644531 102.816406 42.640625 L 234.265625 42.640625 C 236.257812 42.644531 237.871094 44.261719 237.875 46.253906 L 237.875 237.648438 C 237.871094 239.640625 236.257812 241.257812 234.265625 241.261719 Z M 234.265625 241.261719 "/>
<path style=" stroke:none;fill-rule:nonzero;fill:rgb(100%,100%,100%);fill-opacity:1;" d="M 169.039062 38.753906 C 169.039062 39.304688 168.59375 39.75 168.042969 39.75 C 167.492188 39.75 167.046875 39.304688 167.046875 38.753906 C 167.046875 38.203125 167.492188 37.757812 168.042969 37.757812 C 168.59375 37.757812 169.039062 38.203125 169.039062 38.753906 Z M 169.039062 38.753906 "/>
<path style=" stroke:none;fill-rule:nonzero;fill:rgb(100%,100%,100%);fill-opacity:1;" d="M 119.898438 97.28125 L 223.320312 97.28125 L 223.320312 167.117188 L 119.898438 167.117188 Z M 119.898438 97.28125 "/>
<path style=" stroke:none;fill-rule:nonzero;fill:rgb(24.705882%,23.921569%,33.72549%);fill-opacity:1;" d="M 223.679688 167.476562 L 119.542969 167.476562 L 119.542969 96.921875 L 223.679688 96.921875 Z M 120.253906 166.761719 L 222.964844 166.761719 L 222.964844 97.636719 L 120.253906 97.636719 Z M 120.253906 166.761719 "/>
<path style=" stroke:none;fill-rule:nonzero;fill:rgb(90.196078%,90.196078%,90.196078%);fill-opacity:1;" d="M 128.640625 151.808594 L 214.582031 151.808594 L 214.582031 102.820312 L 128.640625 102.820312 Z M 128.640625 151.808594 "/>
<path style=" stroke:none;fill-rule:nonzero;fill:rgb(41.568627%,35.294118%,80.392157%);fill-opacity:1;" d="M 162.535156 124.65625 C 162.535156 129.417969 158.679688 133.277344 153.921875 133.277344 C 149.164062 133.277344 145.308594 129.417969 145.308594 124.65625 C 145.308594 119.894531 149.164062 116.035156 153.921875 116.035156 C 158.679688 116.035156 162.535156 119.894531 162.535156 124.65625 Z M 162.535156 124.65625 "/>
<path style=" stroke:none;fill-rule:nonzero;fill:rgb(24.705882%,23.921569%,33.72549%);fill-opacity:1;" d="M 180.933594 151.226562 L 138.675781 151.226562 C 138.625 151.226562 138.570312 151.222656 138.519531 151.214844 L 158.503906 116.566406 C 158.753906 116.125 159.21875 115.855469 159.722656 115.855469 C 160.226562 115.855469 160.691406 116.125 160.941406 116.566406 L 174.351562 139.816406 L 174.996094 140.929688 Z M 180.933594 151.226562 "/>
<use xlink:href="#surface8" mask="url(#mask1)"/>
<path style=" stroke:none;fill-rule:nonzero;fill:rgb(24.705882%,23.921569%,33.72549%);fill-opacity:1;" d="M 204.460938 151.226562 L 167.914062 151.226562 L 174.996094 140.929688 L 175.503906 140.1875 L 184.734375 126.769531 C 185.0625 126.355469 185.554688 126.097656 186.082031 126.066406 C 186.613281 126.035156 187.128906 126.230469 187.503906 126.601562 C 187.554688 126.65625 187.597656 126.710938 187.640625 126.769531 Z M 204.460938 151.226562 "/>
<path style=" stroke:none;fill-rule:nonzero;fill:rgb(90.196078%,90.196078%,90.196078%);fill-opacity:1;" d="M 364.078125 246.480469 L 357.449219 243.6875 L 352.898438 210.417969 L 292.332031 210.417969 L 287.402344 243.550781 L 281.46875 246.519531 C 280.882812 246.8125 280.578125 247.46875 280.726562 248.105469 C 280.878906 248.738281 281.445312 249.191406 282.097656 249.191406 L 363.53125 249.191406 C 364.203125 249.191406 364.78125 248.714844 364.914062 248.058594 C 365.046875 247.402344 364.695312 246.742188 364.078125 246.480469 Z M 364.078125 246.480469 "/>
<path style=" stroke:none;fill-rule:nonzero;fill:rgb(80%,80%,80%);fill-opacity:1;" d="M 471.714844 214.84375 L 174.183594 214.84375 C 170.933594 214.835938 168.300781 212.199219 168.300781 208.945312 L 168.300781 166.949219 L 477.59375 166.949219 L 477.59375 208.945312 C 477.59375 212.199219 474.964844 214.835938 471.714844 214.84375 Z M 471.714844 214.84375 "/>
<path style=" stroke:none;fill-rule:nonzero;fill:rgb(89.803922%,89.803922%,89.803922%);fill-opacity:1;" d="M 477.90625 186.796875 L 168.027344 186.796875 L 168.027344 7.113281 C 168.035156 3.1875 171.210938 0.00390625 175.136719 0 L 470.800781 0 C 474.722656 0.00390625 477.902344 3.1875 477.90625 7.113281 Z M 477.90625 186.796875 "/>
<path style=" stroke:none;fill-rule:nonzero;fill:rgb(100%,100%,100%);fill-opacity:1;" d="M 459.398438 173.757812 L 186.535156 173.757812 C 183.511719 173.753906 181.0625 171.300781 181.058594 168.273438 L 181.058594 18.523438 C 181.0625 15.496094 183.511719 13.042969 186.535156 13.042969 L 459.398438 13.042969 C 462.421875 13.042969 464.871094 15.496094 464.875 18.523438 L 464.875 168.273438 C 464.871094 171.300781 462.421875 173.753906 459.398438 173.757812 Z M 459.398438 173.757812 "/>
<path style=" stroke:none;fill-rule:nonzero;fill:rgb(80%,80%,80%);fill-opacity:1;" d="M 498.425781 250.078125 L 0.722656 250.078125 C 0.398438 250.085938 0.113281 249.871094 0.0234375 249.5625 C -0.03125 249.355469 0.0117188 249.132812 0.144531 248.960938 C 0.273438 248.789062 0.476562 248.691406 0.695312 248.691406 L 498.371094 248.691406 C 498.710938 248.675781 499.015625 248.902344 499.105469 249.234375 C 499.148438 249.4375 499.097656 249.652344 498.96875 249.816406 C 498.835938 249.980469 498.636719 250.078125 498.425781 250.078125 Z M 498.425781 250.078125 "/>
<path style=" stroke:none;fill-rule:nonzero;fill:rgb(18.431373%,18.039216%,25.490196%);fill-opacity:1;" d="M 387.785156 66.074219 C 389.1875 61.605469 392.371094 57.507812 396.777344 55.996094 C 401.183594 54.484375 408.867188 55.898438 410.945312 60.089844 C 413.9375 66.132812 412.59375 73.53125 411.007812 80.09375 C 410.179688 80.050781 409.34375 80.015625 408.503906 79.984375 L 407.320312 76.03125 L 407.320312 79.945312 C 400.78125 79.742188 393.972656 79.871094 387.160156 80 C 386.546875 75.355469 386.386719 70.539062 387.785156 66.074219 Z M 387.785156 66.074219 "/>
<path style=" stroke:none;fill-rule:nonzero;fill:rgb(62.352941%,38.039216%,41.568627%);fill-opacity:1;" d="M 447.878906 236.324219 L 442.378906 238.632812 L 430.867188 218.492188 L 438.988281 215.085938 Z M 447.878906 236.324219 "/>
<path style=" stroke:none;fill-rule:nonzero;fill:rgb(18.431373%,18.039216%,25.490196%);fill-opacity:1;" d="M 451.515625 241.074219 L 433.777344 248.515625 L 433.683594 248.289062 C 432.085938 244.472656 433.882812 240.082031 437.695312 238.484375 L 448.53125 233.9375 Z M 451.515625 241.074219 "/>
<path style=" stroke:none;fill-rule:nonzero;fill:rgb(62.352941%,38.039216%,41.568627%);fill-opacity:1;" d="M 367.203125 141.183594 C 366.507812 140.179688 366.292969 138.917969 366.617188 137.738281 C 366.9375 136.558594 367.765625 135.585938 368.878906 135.074219 L 380.703125 99.363281 L 388.621094 103.589844 L 374.507812 137.367188 C 375.253906 139.332031 374.414062 141.546875 372.550781 142.523438 C 370.6875 143.496094 368.390625 142.921875 367.203125 141.183594 Z M 367.203125 141.183594 "/>
<path style=" stroke:none;fill-rule:nonzero;fill:rgb(62.352941%,38.039216%,41.568627%);fill-opacity:1;" d="M 381.78125 242.726562 L 375.816406 242.726562 L 372.980469 219.699219 L 381.78125 219.699219 Z M 381.78125 242.726562 "/>
<path style=" stroke:none;fill-rule:nonzero;fill:rgb(18.431373%,18.039216%,25.490196%);fill-opacity:1;" d="M 383.304688 248.515625 L 364.070312 248.511719 L 364.070312 248.269531 C 364.070312 244.132812 367.421875 240.777344 371.554688 240.777344 L 383.304688 240.777344 Z M 383.304688 248.515625 "/>
<path style=" stroke:none;fill-rule:nonzero;fill:rgb(62.352941%,38.039216%,41.568627%);fill-opacity:1;" d="M 405.699219 111.742188 L 407.050781 115.261719 L 406.777344 118.777344 L 380.828125 115.53125 L 381.640625 112.554688 L 384.613281 109.039062 Z M 405.699219 111.742188 "/>
<path style=" stroke:none;fill-rule:nonzero;fill:rgb(62.352941%,38.039216%,41.568627%);fill-opacity:1;" d="M 406.78125 70.636719 C 406.78125 75.859375 402.550781 80.089844 397.335938 80.089844 C 392.117188 80.089844 387.886719 75.859375 387.886719 70.636719 C 387.886719 65.414062 392.117188 61.179688 397.335938 61.179688 C 402.550781 61.179688 406.78125 65.414062 406.78125 70.636719 Z M 406.78125 70.636719 "/>
<path style=" stroke:none;fill-rule:nonzero;fill:rgb(41.568627%,35.294118%,80.392157%);fill-opacity:1;" d="M 387.316406 86.851562 L 392.722656 83.605469 L 403.535156 82.523438 L 413.09375 84.6875 L 412.996094 102.273438 L 407.050781 115.261719 L 381.640625 112.554688 L 380.558594 109.015625 C 380.558594 109.015625 373.53125 99.570312 381.097656 94.15625 Z M 387.316406 86.851562 "/>
<path style=" stroke:none;fill-rule:nonzero;fill:rgb(41.568627%,35.294118%,80.392157%);fill-opacity:1;" d="M 388.667969 87.664062 L 387.316406 86.851562 C 387.316406 86.851562 380.019531 88.203125 378.394531 92.535156 C 376.773438 96.863281 375.152344 116.34375 375.152344 116.34375 L 381.910156 117.148438 L 384.34375 101.191406 Z M 388.667969 87.664062 "/>
<path style=" stroke:none;fill-rule:nonzero;fill:rgb(18.431373%,18.039216%,25.490196%);fill-opacity:1;" d="M 407.050781 117.425781 L 407.050781 123.4375 C 407.050781 123.4375 414.078125 132.578125 410.292969 139.613281 C 410.292969 139.613281 418.402344 154.761719 418.941406 160.175781 L 426.511719 185.066406 C 426.511719 185.066406 445.433594 204.007812 443.8125 217.535156 L 444.894531 221.863281 L 432.457031 227.273438 L 429.753906 223.488281 L 408.671875 187.230469 L 390.832031 154.222656 L 387.585938 193.183594 C 387.585938 193.183594 389.75 223.488281 383.800781 226.734375 L 383.261719 231.601562 L 370.640625 231.601562 L 370.640625 226.972656 C 370.640625 226.972656 365.960938 210.5 368.664062 198.054688 L 367.582031 145.5625 C 367.582031 145.5625 372.449219 123.378906 378.394531 119.589844 L 380.558594 114.179688 Z M 407.050781 117.425781 "/>
<path style=" stroke:none;fill-rule:nonzero;fill:rgb(18.431373%,18.039216%,25.490196%);fill-opacity:1;" d="M 390.84375 58.320312 C 394.539062 56.066406 399.171875 56.003906 402.925781 58.164062 C 406.683594 60.320312 408.964844 64.355469 408.882812 68.6875 C 403.601562 68.929688 398.054688 68.992188 392.429688 69.003906 L 391.101562 65.75 L 390.316406 69.007812 C 388.601562 69.007812 386.886719 69.003906 385.164062 69 C 385.023438 64.683594 387.183594 60.617188 390.84375 58.320312 Z M 390.84375 58.320312 "/>
<path style=" stroke:none;fill-rule:nonzero;fill:rgb(100%,100%,100%);fill-opacity:1;" d="M 248.324219 91.847656 L 375.515625 59.476562 L 397.335938 145.359375 L 270.148438 177.734375 Z M 248.324219 91.847656 "/>
<path style=" stroke:none;fill-rule:nonzero;fill:rgb(24.705882%,23.921569%,33.72549%);fill-opacity:1;" d="M 397.886719 145.6875 L 269.820312 178.285156 L 247.773438 91.523438 L 375.839844 58.925781 Z M 270.472656 177.183594 L 396.785156 145.035156 L 375.1875 60.027344 L 248.875 92.175781 Z M 270.472656 177.183594 "/>
<path style=" stroke:none;fill-rule:nonzero;fill:rgb(90.196078%,90.196078%,90.196078%);fill-opacity:1;" d="M 276.113281 156.171875 L 381.804688 129.269531 L 366.496094 69.023438 L 260.804688 95.925781 Z M 276.113281 156.171875 "/>
<path style=" stroke:none;fill-rule:nonzero;fill:rgb(41.568627%,35.294118%,80.392157%);fill-opacity:1;" d="M 309.648438 114.867188 C 309.648438 120.910156 304.757812 125.808594 298.71875 125.808594 C 292.683594 125.808594 287.789062 120.910156 287.789062 114.867188 C 287.789062 108.824219 292.683594 103.925781 298.71875 103.925781 C 304.757812 103.925781 309.648438 108.824219 309.648438 114.867188 Z M 309.648438 114.867188 "/>
<path style=" stroke:none;fill-rule:nonzero;fill:rgb(24.705882%,23.921569%,33.72549%);fill-opacity:1;" d="M 340.242188 139.085938 L 288.273438 152.3125 C 288.207031 152.332031 288.144531 152.34375 288.074219 152.347656 L 301.828125 103.480469 C 301.996094 102.863281 302.484375 102.382812 303.101562 102.226562 C 303.722656 102.066406 304.378906 102.253906 304.824219 102.71875 L 328.582031 127.113281 L 329.71875 128.28125 Z M 340.242188 139.085938 "/>
<use xlink:href="#surface11" mask="url(#mask2)"/>
<path style=" stroke:none;fill-rule:nonzero;fill:rgb(24.705882%,23.921569%,33.72549%);fill-opacity:1;" d="M 369.175781 131.722656 L 324.226562 143.160156 L 329.71875 128.28125 L 330.117188 127.210938 L 337.273438 107.820312 C 337.550781 107.207031 338.074219 106.738281 338.710938 106.535156 C 339.351562 106.332031 340.050781 106.40625 340.628906 106.746094 C 340.703125 106.796875 340.777344 106.851562 340.84375 106.910156 Z M 369.175781 131.722656 "/>
<path style=" stroke:none;fill-rule:nonzero;fill:rgb(62.352941%,38.039216%,41.568627%);fill-opacity:1;" d="M 398.0625 129.851562 C 398.28125 129.902344 398.496094 129.96875 398.703125 130.050781 L 415.195312 118.6875 L 414.816406 113.832031 L 422.0625 112.304688 L 423.5625 120.832031 C 423.8125 122.246094 423.101562 123.65625 421.8125 124.292969 L 401.382812 134.378906 C 401.222656 136.136719 399.996094 137.609375 398.296875 138.082031 C 396.601562 138.554688 394.789062 137.929688 393.746094 136.507812 C 392.703125 135.085938 392.648438 133.164062 393.605469 131.6875 C 394.566406 130.207031 396.339844 129.476562 398.0625 129.851562 Z M 398.0625 129.851562 "/>
<path style=" stroke:none;fill-rule:nonzero;fill:rgb(41.568627%,35.294118%,80.392157%);fill-opacity:1;" d="M 409.210938 85.5 L 413.09375 84.6875 C 413.09375 84.6875 421.644531 81.710938 422.1875 92.535156 L 423.269531 117.96875 L 415.238281 119.050781 L 411.914062 96.863281 Z M 409.210938 85.5 "/>
</g>
</svg>
