<?xml version="1.0" encoding="UTF-8"?>
<svg xmlns="http://www.w3.org/2000/svg" xmlns:xlink="http://www.w3.org/1999/xlink" width="500px" height="px" viewBox="0 0 500 261" version="1.1">
<g id="surface1">
<path style=" stroke:none;fill-rule:nonzero;fill:rgb(90.196078%,90.196078%,90.196078%);fill-opacity:1;" d="M 465.917969 254.859375 C 465.269531 256.527344 464.46875 258.132812 463.519531 259.648438 C 463.253906 260.066406 462.976562 260.480469 462.679688 260.878906 L 438.179688 260.878906 C 438.007812 260.75 437.839844 260.613281 437.667969 260.484375 C 436.808594 260.417969 435.953125 260.332031 435.117188 260.238281 C 435.203125 260.164062 435.296875 260.089844 435.382812 260.019531 C 434.9375 260.054688 434.496094 260.089844 434.054688 260.109375 C 434.402344 260.152344 434.761719 260.195312 435.117188 260.238281 C 434.851562 260.453125 434.582031 260.671875 434.304688 260.878906 L 433.234375 260.878906 L 433.953125 260.109375 C 433.382812 260.128906 432.816406 260.140625 432.246094 260.128906 L 434.035156 259.648438 L 435.964844 259.132812 C 436.039062 259.191406 436.121094 259.253906 436.191406 259.316406 C 442.851562 253.457031 446.851562 245.148438 447.28125 236.285156 C 447.707031 227.421875 444.523438 218.765625 438.457031 212.292969 C 448.21875 218.847656 454.941406 229.050781 457.121094 240.613281 C 457.675781 243.414062 457.757812 246.285156 457.367188 249.109375 C 457.582031 248.871094 457.796875 248.628906 458.007812 248.382812 C 464.3125 240.738281 466.894531 230.675781 465.042969 220.933594 C 469.859375 231.671875 470.175781 243.890625 465.917969 254.859375 Z M 465.917969 254.859375 "/>
<path style=" stroke:none;fill-rule:nonzero;fill:rgb(18.431373%,18.039216%,25.490196%);fill-opacity:1;" d="M 360.960938 31.691406 C 360.960938 41.238281 353.230469 48.976562 343.691406 48.976562 C 334.152344 48.976562 326.421875 41.238281 326.421875 31.691406 C 326.421875 22.144531 334.152344 14.40625 343.691406 14.40625 C 353.230469 14.40625 360.960938 22.144531 360.960938 31.691406 Z M 360.960938 31.691406 "/>
<path style=" stroke:none;fill-rule:nonzero;fill:rgb(100%,72.156863%,72.156863%);fill-opacity:1;" d="M 399.695312 253.675781 L 392.15625 253.671875 L 388.570312 224.566406 L 399.699219 224.566406 Z M 399.695312 253.675781 "/>
<path style=" stroke:none;fill-rule:nonzero;fill:rgb(18.431373%,18.039216%,25.490196%);fill-opacity:1;" d="M 386.769531 251.515625 L 401.3125 251.515625 L 401.3125 260.679688 L 377.617188 260.679688 C 377.617188 255.621094 381.714844 251.515625 386.769531 251.515625 Z M 386.769531 251.515625 "/>
<path style=" stroke:none;fill-rule:nonzero;fill:rgb(100%,72.156863%,72.156863%);fill-opacity:1;" d="M 322.78125 252.6875 L 315.503906 250.722656 L 319.609375 221.679688 L 330.355469 224.582031 Z M 322.78125 252.6875 "/>
<path style=" stroke:none;fill-rule:nonzero;fill:rgb(18.431373%,18.039216%,25.490196%);fill-opacity:1;" d="M 310.863281 247.234375 L 324.902344 251.023438 L 322.519531 259.875 L 299.640625 253.699219 C 300.957031 248.8125 305.980469 245.917969 310.863281 247.234375 Z M 310.863281 247.234375 "/>
<path style=" stroke:none;fill-rule:nonzero;fill:rgb(18.431373%,18.039216%,25.490196%);fill-opacity:1;" d="M 337.070312 118.988281 L 314.621094 246.328125 L 326.132812 248.632812 L 362.402344 158.746094 L 389.457031 248.054688 L 403.273438 246.328125 C 403.273438 246.328125 396.941406 118.410156 376.792969 107.460938 Z M 337.070312 118.988281 "/>
<path style=" stroke:none;fill-rule:nonzero;fill:rgb(100%,72.156863%,72.156863%);fill-opacity:1;" d="M 301.464844 164.539062 C 303.101562 163.722656 304.296875 162.222656 304.722656 160.441406 C 305.148438 158.660156 304.765625 156.78125 303.675781 155.308594 L 316.058594 137.136719 L 304.640625 136.960938 L 294.632812 154.246094 C 292.230469 156.285156 291.734375 159.804688 293.480469 162.429688 C 295.222656 165.058594 298.652344 165.964844 301.464844 164.539062 Z M 301.464844 164.539062 "/>
<path style=" stroke:none;fill-rule:nonzero;fill:rgb(100%,72.156863%,72.156863%);fill-opacity:1;" d="M 383.210938 142.066406 C 384.851562 141.253906 386.042969 139.75 386.46875 137.96875 C 386.898438 136.1875 386.511719 134.308594 385.421875 132.839844 L 397.804688 114.664062 L 386.386719 114.488281 L 376.378906 131.773438 C 373.976562 133.816406 373.484375 137.332031 375.226562 139.957031 C 376.96875 142.585938 380.398438 143.492188 383.210938 142.066406 Z M 383.210938 142.066406 "/>
<path style=" stroke:none;fill-rule:nonzero;fill:rgb(100%,72.156863%,72.156863%);fill-opacity:1;" d="M 359.234375 37.28125 C 359.234375 45.632812 352.472656 52.398438 344.128906 52.398438 C 335.789062 52.398438 329.027344 45.632812 329.027344 37.28125 C 329.027344 28.929688 335.789062 22.160156 344.128906 22.160156 C 352.472656 22.160156 359.234375 28.929688 359.234375 37.28125 Z M 359.234375 37.28125 "/>
<path style=" stroke:none;fill-rule:nonzero;fill:rgb(41.568627%,35.294118%,80.392157%);fill-opacity:1;" d="M 376.792969 60.789062 C 376.21875 58.484375 366.429688 59.0625 366.429688 59.0625 C 366.429688 59.0625 355.410156 56.523438 355.515625 56.84375 C 346.226562 56.125 334.898438 59.617188 333.25 60.144531 C 329.875 61.078125 323.425781 63.929688 318.773438 66.027344 C 317.425781 66.632812 316.820312 68.214844 317.414062 69.570312 L 331.601562 101.988281 L 333.617188 123.019531 L 380.246094 108.613281 C 368.734375 104.003906 377.367188 63.09375 376.792969 60.789062 Z M 376.792969 60.789062 "/>
<path style=" stroke:none;fill-rule:nonzero;fill:rgb(41.568627%,35.294118%,80.392157%);fill-opacity:1;" d="M 372.761719 61.367188 L 376.589844 60.402344 L 397.515625 101.699219 L 398.667969 125.324219 L 385.429688 114.953125 L 385.429688 105.734375 L 371.613281 87.871094 Z M 372.761719 61.367188 "/>
<path style=" stroke:none;fill-rule:nonzero;fill:rgb(41.568627%,35.294118%,80.392157%);fill-opacity:1;" d="M 322.390625 64.535156 L 317.960938 66.507812 C 317.492188 66.714844 317.15625 67.144531 317.066406 67.648438 L 308.285156 117.832031 L 299.652344 143.1875 L 311.164062 148.949219 L 324.40625 117.257812 L 329.011719 94.210938 Z M 322.390625 64.535156 "/>
<path style=" stroke:none;fill-rule:nonzero;fill:rgb(18.431373%,18.039216%,25.490196%);fill-opacity:1;" d="M 328.289062 30.152344 C 331.355469 29.144531 334.589844 30.726562 337.585938 31.929688 C 340.535156 33.113281 343.691406 33.96875 346.863281 33.78125 C 350.039062 33.59375 353.25 32.253906 355.167969 29.714844 C 357.089844 27.175781 357.425781 23.371094 355.527344 20.820312 C 354.277344 19.140625 352.28125 18.179688 350.28125 17.554688 C 346.011719 16.222656 341.234375 16.175781 337.175781 18.058594 C 333.117188 19.941406 329.933594 23.914062 329.597656 28.378906 "/>
<path style=" stroke:none;fill-rule:nonzero;fill:rgb(18.431373%,18.039216%,25.490196%);fill-opacity:1;" d="M 343.230469 18.109375 C 342.203125 11.132812 346.019531 3.886719 351.234375 1.289062 C 356.445312 -1.308594 362.558594 0.222656 367.253906 4.09375 C 371.949219 7.964844 375.375 13.910156 377.921875 20.234375 C 380.46875 26.554688 382.234375 33.328125 384.308594 39.921875 C 386.152344 45.777344 388.316406 51.636719 391.816406 56.113281 C 395.320312 60.59375 400.410156 63.507812 405.289062 62.277344 C 401.28125 67.671875 393.90625 66.738281 389.332031 62.125 C 384.757812 57.507812 382.378906 50.296875 380.507812 43.277344 C 378.636719 36.257812 377.007812 28.914062 373.386719 23.097656 C 366.945312 12.75 354.300781 9.640625 345.273438 16.183594 "/>
<path style=" stroke:none;fill-rule:nonzero;fill:rgb(24.705882%,23.921569%,33.72549%);fill-opacity:1;" d="M 0 259.648438 L 500 259.648438 L 500 260.878906 L 0 260.878906 Z M 0 259.648438 "/>
<path style=" stroke:none;fill-rule:nonzero;fill:rgb(24.705882%,23.921569%,33.72549%);fill-opacity:1;" d="M 262.324219 141.527344 L 44.105469 141.527344 C 40.46875 141.523438 37.519531 138.570312 37.515625 134.929688 L 37.515625 82.890625 C 37.519531 79.25 40.46875 76.296875 44.105469 76.292969 L 262.324219 76.292969 C 265.964844 76.296875 268.910156 79.25 268.914062 82.890625 L 268.914062 134.929688 C 268.910156 138.570312 265.964844 141.523438 262.324219 141.527344 Z M 44.105469 77.757812 C 41.277344 77.761719 38.984375 80.058594 38.980469 82.890625 L 38.980469 134.929688 C 38.984375 137.761719 41.277344 140.054688 44.105469 140.058594 L 262.324219 140.058594 C 265.152344 140.054688 267.445312 137.761719 267.449219 134.929688 L 267.449219 82.890625 C 267.445312 80.058594 265.152344 77.761719 262.324219 77.757812 Z M 44.105469 77.757812 "/>
<path style=" stroke:none;fill-rule:nonzero;fill:rgb(90.196078%,90.196078%,90.196078%);fill-opacity:1;" d="M 251.707031 130.53125 L 54.722656 130.53125 C 54.460938 130.53125 54.21875 130.394531 54.089844 130.164062 C 53.957031 129.9375 53.957031 129.660156 54.089844 129.433594 C 54.21875 129.203125 54.460938 129.066406 54.722656 129.066406 L 251.707031 129.066406 C 251.96875 129.066406 252.210938 129.203125 252.34375 129.433594 C 252.472656 129.660156 252.472656 129.9375 252.34375 130.164062 C 252.210938 130.394531 251.96875 130.53125 251.707031 130.53125 Z M 251.707031 130.53125 "/>
<path style=" stroke:none;fill-rule:nonzero;fill:rgb(41.568627%,35.294118%,80.392157%);fill-opacity:1;" d="M 75.59375 106.34375 L 59.484375 106.34375 C 59.082031 106.347656 58.753906 106.671875 58.753906 107.078125 C 58.753906 107.480469 59.082031 107.808594 59.484375 107.808594 L 66.804688 107.808594 L 66.804688 120.769531 C 66.78125 122.71875 68.273438 124.355469 70.214844 124.503906 C 70.261719 124.503906 70.308594 124.503906 70.355469 124.503906 C 71.523438 124.484375 72.609375 123.886719 73.25 122.910156 C 73.492188 122.585938 73.425781 122.125 73.101562 121.882812 C 72.78125 121.640625 72.320312 121.707031 72.078125 122.03125 C 71.699219 122.660156 71.015625 123.046875 70.277344 123.039062 C 69.117188 122.929688 68.238281 121.9375 68.269531 120.769531 L 68.269531 107.808594 L 75.59375 107.808594 C 75.855469 107.8125 76.097656 107.671875 76.230469 107.445312 C 76.359375 107.21875 76.359375 106.9375 76.230469 106.710938 C 76.097656 106.484375 75.855469 106.34375 75.59375 106.34375 Z M 75.59375 106.34375 "/>
<path style=" stroke:none;fill-rule:nonzero;fill:rgb(90.196078%,90.196078%,90.196078%);fill-opacity:1;" d="M 136.371094 164.246094 C 136.371094 167.484375 133.75 170.109375 130.515625 170.109375 C 127.277344 170.109375 124.65625 167.484375 124.65625 164.246094 C 124.65625 161.007812 127.277344 158.382812 130.515625 158.382812 C 133.75 158.382812 136.371094 161.007812 136.371094 164.246094 Z M 136.371094 164.246094 "/>
<path style=" stroke:none;fill-rule:nonzero;fill:rgb(41.568627%,35.294118%,80.392157%);fill-opacity:1;" d="M 159.074219 164.246094 C 159.074219 167.484375 156.449219 170.109375 153.214844 170.109375 C 149.980469 170.109375 147.355469 167.484375 147.355469 164.246094 C 147.355469 161.007812 149.980469 158.382812 153.214844 158.382812 C 156.449219 158.382812 159.074219 161.007812 159.074219 164.246094 Z M 159.074219 164.246094 "/>
<path style=" stroke:none;fill-rule:nonzero;fill:rgb(90.196078%,90.196078%,90.196078%);fill-opacity:1;" d="M 181.773438 164.246094 C 181.773438 167.484375 179.152344 170.109375 175.914062 170.109375 C 172.679688 170.109375 170.058594 167.484375 170.058594 164.246094 C 170.058594 161.007812 172.679688 158.382812 175.914062 158.382812 C 179.152344 158.382812 181.773438 161.007812 181.773438 164.246094 Z M 181.773438 164.246094 "/>
<path style=" stroke:none;fill-rule:nonzero;fill:rgb(24.705882%,23.921569%,33.72549%);fill-opacity:1;" d="M 79.011719 123.957031 C 79.511719 123.941406 79.902344 123.53125 79.902344 123.035156 C 79.902344 122.539062 79.511719 122.128906 79.011719 122.113281 C 78.515625 122.128906 78.121094 122.539062 78.121094 123.035156 C 78.121094 123.53125 78.515625 123.941406 79.011719 123.957031 Z M 79.011719 123.957031 "/>
<path style=" stroke:none;fill-rule:nonzero;fill:rgb(24.705882%,23.921569%,33.72549%);fill-opacity:1;" d="M 84.871094 123.957031 C 85.367188 123.941406 85.761719 123.53125 85.761719 123.035156 C 85.761719 122.539062 85.367188 122.128906 84.871094 122.113281 C 84.375 122.128906 83.980469 122.539062 83.980469 123.035156 C 83.980469 123.53125 84.375 123.941406 84.871094 123.957031 Z M 84.871094 123.957031 "/>
<path style=" stroke:none;fill-rule:nonzero;fill:rgb(24.705882%,23.921569%,33.72549%);fill-opacity:1;" d="M 90.730469 123.957031 C 91.226562 123.941406 91.621094 123.53125 91.621094 123.035156 C 91.621094 122.539062 91.226562 122.128906 90.730469 122.113281 C 90.234375 122.128906 89.839844 122.539062 89.839844 123.035156 C 89.839844 123.53125 90.234375 123.941406 90.730469 123.957031 Z M 90.730469 123.957031 "/>
</g>
</svg>
