<?xml version="1.0" encoding="UTF-8"?>
<svg xmlns="http://www.w3.org/2000/svg" xmlns:xlink="http://www.w3.org/1999/xlink" width="500px" height="px" viewBox="0 0 500 342" version="1.1">
<g id="surface1">
<path style=" stroke:none;fill-rule:nonzero;fill:rgb(94.509804%,94.509804%,94.509804%);fill-opacity:1;" d="M 294.1875 303.558594 C 299 312.074219 294.917969 340.832031 294.917969 340.832031 C 294.917969 340.832031 268.183594 329.511719 263.367188 321 C 258.542969 312.484375 261.539062 301.667969 270.054688 296.847656 C 278.570312 292.027344 289.378906 295.035156 294.1875 303.558594 Z M 294.1875 303.558594 "/>
<path style=" stroke:none;fill-rule:nonzero;fill:rgb(100%,100%,100%);fill-opacity:1;" d="M 295.304688 340.796875 L 294.738281 340.917969 C 289.265625 314.910156 270.164062 297.277344 269.972656 297.101562 L 270.359375 296.671875 C 270.554688 296.847656 289.796875 314.605469 295.304688 340.796875 Z M 295.304688 340.796875 "/>
<path style=" stroke:none;fill-rule:nonzero;fill:rgb(94.509804%,94.509804%,94.509804%);fill-opacity:1;" d="M 337.933594 313.253906 C 331.398438 325.113281 294.566406 341.175781 294.566406 341.175781 C 294.566406 341.175781 288.492188 301.4375 295.023438 289.582031 C 301.554688 277.726562 316.457031 273.414062 328.308594 279.949219 C 340.15625 286.488281 344.46875 301.398438 337.933594 313.253906 Z M 337.933594 313.253906 "/>
<path style=" stroke:none;fill-rule:nonzero;fill:rgb(100%,100%,100%);fill-opacity:1;" d="M 294.890625 341.605469 L 294.335938 341.023438 C 320.992188 315.695312 327.890625 280.371094 327.957031 280.019531 L 328.746094 280.167969 C 328.679688 280.523438 321.738281 316.097656 294.890625 341.605469 Z M 294.890625 341.605469 "/>
<path style=" stroke:none;fill-rule:nonzero;fill:rgb(90.196078%,90.196078%,90.196078%);fill-opacity:1;" d="M 0.203125 12.964844 L 472.898438 12.964844 L 472.898438 237.386719 L 0.203125 237.386719 Z M 0.203125 12.964844 "/>
<path style=" stroke:none;fill-rule:nonzero;fill:rgb(100%,100%,100%);fill-opacity:1;" d="M 13.71875 32.210938 L 459.382812 32.210938 L 459.382812 219.449219 L 13.71875 219.449219 Z M 13.71875 32.210938 "/>
<path style=" stroke:none;fill-rule:nonzero;fill:rgb(41.568627%,35.294118%,80.392157%);fill-opacity:1;" d="M 0 0 L 472.699219 0 L 472.699219 20.09375 L 0 20.09375 Z M 0 0 "/>
<path style=" stroke:none;fill-rule:nonzero;fill:rgb(100%,100%,100%);fill-opacity:1;" d="M 18.644531 10.480469 C 18.644531 12.535156 16.980469 14.203125 14.921875 14.203125 C 12.867188 14.203125 11.199219 12.535156 11.199219 10.480469 C 11.199219 8.421875 12.867188 6.753906 14.921875 6.753906 C 16.980469 6.753906 18.644531 8.421875 18.644531 10.480469 Z M 18.644531 10.480469 "/>
<path style=" stroke:none;fill-rule:nonzero;fill:rgb(100%,100%,100%);fill-opacity:1;" d="M 32.773438 10.480469 C 32.773438 12.535156 31.105469 14.203125 29.050781 14.203125 C 26.996094 14.203125 25.328125 12.535156 25.328125 10.480469 C 25.328125 8.421875 26.996094 6.753906 29.050781 6.753906 C 31.105469 6.753906 32.773438 8.421875 32.773438 10.480469 Z M 32.773438 10.480469 "/>
<path style=" stroke:none;fill-rule:nonzero;fill:rgb(100%,100%,100%);fill-opacity:1;" d="M 46.902344 10.480469 C 46.902344 12.535156 45.234375 14.203125 43.179688 14.203125 C 41.125 14.203125 39.457031 12.535156 39.457031 10.480469 C 39.457031 8.421875 41.125 6.753906 43.179688 6.753906 C 45.234375 6.753906 46.902344 8.421875 46.902344 10.480469 Z M 46.902344 10.480469 "/>
<path style=" stroke:none;fill-rule:nonzero;fill:rgb(90.196078%,90.196078%,90.196078%);fill-opacity:1;" d="M 188.511719 88.734375 C 187.511719 88.738281 186.699219 90.109375 186.703125 91.800781 C 186.703125 93.488281 187.515625 94.851562 188.511719 94.855469 L 375.136719 94.855469 C 376.136719 94.851562 376.949219 93.480469 376.945312 91.789062 C 376.945312 90.101562 376.136719 88.738281 375.136719 88.734375 Z M 188.511719 88.734375 "/>
<path style=" stroke:none;fill-rule:nonzero;fill:rgb(90.196078%,90.196078%,90.196078%);fill-opacity:1;" d="M 188.511719 107.101562 C 187.511719 107.105469 186.699219 108.476562 186.703125 110.167969 C 186.703125 111.855469 187.515625 113.21875 188.511719 113.222656 L 326.417969 113.222656 C 327.417969 113.21875 328.230469 111.847656 328.226562 110.15625 C 328.226562 108.46875 327.417969 107.105469 326.417969 107.101562 Z M 188.511719 107.101562 "/>
<path style=" stroke:none;fill-rule:nonzero;fill:rgb(90.196078%,90.196078%,90.196078%);fill-opacity:1;" d="M 188.511719 125.050781 C 187.511719 125.054688 186.699219 126.429688 186.703125 128.121094 C 186.703125 129.804688 187.515625 131.171875 188.511719 131.175781 L 375.136719 131.175781 C 376.136719 131.171875 376.949219 129.796875 376.945312 128.105469 C 376.945312 126.421875 376.136719 125.054688 375.136719 125.050781 Z M 188.511719 125.050781 "/>
<path style=" stroke:none;fill-rule:nonzero;fill:rgb(90.196078%,90.196078%,90.196078%);fill-opacity:1;" d="M 188.511719 143.417969 C 187.511719 143.421875 186.699219 144.796875 186.703125 146.488281 C 186.703125 148.171875 187.515625 149.539062 188.511719 149.542969 L 326.417969 149.542969 C 327.417969 149.539062 328.230469 148.164062 328.226562 146.472656 C 328.226562 144.789062 327.417969 143.421875 326.417969 143.417969 Z M 188.511719 143.417969 "/>
<path style=" stroke:none;fill-rule:nonzero;fill:rgb(90.196078%,90.196078%,90.196078%);fill-opacity:1;" d="M 43.691406 156.464844 C 42.691406 156.46875 41.878906 157.839844 41.882812 159.53125 C 41.882812 161.214844 42.691406 162.582031 43.691406 162.585938 L 135.8125 162.585938 C 136.8125 162.582031 137.625 161.207031 137.621094 159.519531 C 137.617188 157.832031 136.808594 156.46875 135.8125 156.464844 Z M 43.691406 156.464844 "/>
<path style=" stroke:none;fill-rule:nonzero;fill:rgb(90.196078%,90.196078%,90.196078%);fill-opacity:1;" d="M 43.691406 174.832031 C 42.691406 174.832031 41.878906 176.207031 41.882812 177.898438 C 41.882812 179.582031 42.691406 180.949219 43.691406 180.953125 L 87.089844 180.953125 C 88.09375 180.949219 88.902344 179.574219 88.902344 177.886719 C 88.898438 176.199219 88.089844 174.832031 87.089844 174.832031 Z M 43.691406 174.832031 "/>
<path style=" stroke:none;fill-rule:nonzero;fill:rgb(100%,100%,100%);fill-opacity:1;" d="M 125.011719 78.863281 C 120.132812 64.839844 107.414062 55.039062 92.617188 53.898438 C 77.820312 52.757812 63.75 60.496094 56.78125 73.609375 C 49.8125 86.71875 51.269531 102.714844 60.488281 114.351562 C 60.824219 114.773438 61.171875 115.199219 61.527344 115.605469 C 61.554688 115.632812 61.574219 115.660156 61.601562 115.6875 C 62.476562 116.695312 63.402344 117.652344 64.382812 118.558594 C 64.636719 118.792969 64.90625 119.035156 65.175781 119.261719 C 65.683594 119.71875 66.207031 120.152344 66.75 120.570312 C 67.808594 121.40625 68.914062 122.183594 70.058594 122.894531 L 70.101562 122.917969 C 70.84375 123.378906 71.601562 123.808594 72.371094 124.21875 L 72.6875 124.378906 C 73.410156 124.753906 74.148438 125.109375 74.90625 125.4375 C 75.058594 125.503906 75.226562 125.570312 75.382812 125.636719 C 75.394531 125.644531 75.402344 125.644531 75.414062 125.652344 C 76.945312 126.289062 78.519531 126.820312 80.121094 127.242188 C 83.261719 128.078125 86.5 128.503906 89.75 128.503906 C 90.9375 128.503906 92.109375 128.449219 93.269531 128.335938 C 95.921875 128.089844 98.535156 127.5625 101.074219 126.757812 C 101.078125 126.757812 101.085938 126.75 101.09375 126.75 C 102.695312 126.242188 104.261719 125.621094 105.777344 124.894531 C 105.785156 124.886719 105.796875 124.886719 105.804688 124.882812 C 106.144531 124.71875 106.472656 124.546875 106.808594 124.378906 L 106.96875 124.296875 C 107.238281 124.15625 107.507812 124.015625 107.773438 123.867188 C 108.445312 123.5 109.101562 123.109375 109.753906 122.695312 C 109.933594 122.585938 110.105469 122.472656 110.289062 122.351562 C 110.878906 121.964844 111.460938 121.546875 112.023438 121.125 C 112.125 121.050781 112.230469 120.976562 112.332031 120.898438 C 125.214844 111.113281 130.332031 94.144531 125.011719 78.863281 Z M 125.011719 78.863281 "/>
<path style=" stroke:none;fill-rule:nonzero;fill:rgb(18.431373%,18.039216%,25.490196%);fill-opacity:1;" d="M 107.667969 100.945312 C 107.667969 104.035156 105.164062 106.542969 102.074219 106.542969 C 98.984375 106.542969 96.476562 104.035156 96.476562 100.945312 C 96.476562 97.851562 98.984375 95.347656 102.074219 95.347656 C 105.164062 95.347656 107.667969 97.851562 107.667969 100.945312 Z M 107.667969 100.945312 "/>
<path style=" stroke:none;fill-rule:nonzero;fill:rgb(18.431373%,18.039216%,25.490196%);fill-opacity:1;" d="M 103.632812 95.5 C 105.601562 95.5 107.429688 96.535156 108.4375 98.230469 C 109.449219 99.921875 109.492188 102.019531 108.558594 103.757812 C 109.882812 102.101562 110.15625 99.839844 109.265625 97.914062 C 108.378906 95.988281 106.476562 94.734375 104.359375 94.667969 C 102.242188 94.601562 100.269531 95.738281 99.265625 97.605469 C 100.324219 96.273438 101.933594 95.5 103.632812 95.5 Z M 103.632812 95.5 "/>
<path style=" stroke:none;fill-rule:nonzero;fill:rgb(18.431373%,18.039216%,25.490196%);fill-opacity:1;" d="M 108.054688 84.484375 C 108.054688 93.570312 100.695312 100.933594 91.617188 100.933594 C 82.539062 100.933594 75.179688 93.570312 75.179688 84.484375 C 75.179688 75.402344 82.539062 68.039062 91.617188 68.039062 C 100.695312 68.039062 108.054688 75.402344 108.054688 84.484375 Z M 108.054688 84.484375 "/>
<path style=" stroke:none;fill-rule:nonzero;fill:rgb(18.431373%,18.039216%,25.490196%);fill-opacity:1;" d="M 78.714844 74.28125 C 84.601562 67.65625 94.679688 66.894531 101.496094 72.554688 C 101.363281 72.429688 101.226562 72.300781 101.089844 72.175781 C 94.328125 66.113281 83.933594 66.6875 77.878906 73.453125 C 71.820312 80.21875 72.390625 90.613281 79.152344 96.675781 C 79.183594 96.703125 79.214844 96.730469 79.246094 96.757812 C 79.386719 96.882812 79.527344 97 79.671875 97.121094 C 73.253906 91.007812 72.828125 80.90625 78.714844 74.28125 Z M 78.714844 74.28125 "/>
<path style=" stroke:none;fill-rule:nonzero;fill:rgb(62.745098%,38.039216%,41.568627%);fill-opacity:1;" d="M 102.0625 90.199219 C 102.0625 96.050781 97.324219 100.792969 91.476562 100.792969 C 85.628906 100.792969 80.890625 96.050781 80.890625 90.199219 C 80.890625 84.351562 85.628906 79.609375 91.476562 79.609375 C 97.324219 79.609375 102.0625 84.351562 102.0625 90.199219 Z M 102.0625 90.199219 "/>
<path style=" stroke:none;fill-rule:nonzero;fill:rgb(79.607843%,79.607843%,79.607843%);fill-opacity:1;" d="M 110.421875 117.800781 L 110.421875 121.355469 C 109.773438 121.769531 109.113281 122.160156 108.445312 122.527344 C 108.175781 122.675781 107.910156 122.816406 107.640625 122.957031 L 107.480469 123.035156 C 107.144531 123.203125 106.816406 123.378906 106.472656 123.539062 C 106.46875 123.546875 106.453125 123.546875 106.449219 123.554688 C 104.929688 124.277344 103.363281 124.898438 101.761719 125.410156 C 101.757812 125.410156 101.75 125.417969 101.742188 125.417969 C 99.207031 126.21875 96.589844 126.75 93.941406 126.992188 C 92.78125 127.105469 91.609375 127.160156 90.421875 127.160156 C 87.171875 127.160156 83.933594 126.738281 80.789062 125.898438 C 79.1875 125.480469 77.617188 124.949219 76.085938 124.3125 C 76.074219 124.304688 76.066406 124.304688 76.050781 124.296875 C 75.898438 124.230469 75.730469 124.164062 75.578125 124.097656 C 74.820312 123.769531 74.082031 123.414062 73.359375 123.035156 L 73.042969 122.875 C 72.273438 122.464844 71.515625 122.039062 70.769531 121.574219 L 70.730469 121.554688 C 69.585938 120.839844 68.480469 120.0625 67.417969 119.226562 C 66.875 118.8125 66.355469 118.375 65.84375 117.921875 C 65.578125 117.691406 65.308594 117.449219 65.054688 117.214844 C 64.074219 116.3125 63.144531 115.351562 62.273438 114.347656 C 62.386719 113.648438 62.558594 112.960938 62.78125 112.289062 L 62.789062 112.28125 C 62.828125 112.167969 62.875 112.054688 62.929688 111.945312 C 62.964844 111.847656 63.007812 111.753906 63.054688 111.664062 C 64.257812 109.417969 66.425781 108.859375 69.121094 108.738281 C 70.644531 108.671875 72.324219 108.746094 74.101562 108.726562 C 75.039062 108.71875 76.011719 108.6875 76.984375 108.597656 C 83.117188 108.042969 82.003906 104.421875 82.277344 102.46875 C 82.554688 100.578125 84.257812 102.214844 84.371094 102.324219 L 84.375 102.328125 C 87.847656 103.953125 91.6875 104.628906 95.503906 104.28125 C 96.160156 104.199219 96.816406 104.152344 97.472656 104.132812 C 99.203125 104.113281 98.828125 104.609375 98.230469 105.019531 C 97.941406 105.207031 97.640625 105.378906 97.324219 105.527344 C 97.324219 105.527344 97.050781 107.203125 96.769531 109.710938 C 96.5 112.113281 101.097656 113.238281 101.480469 113.328125 C 101.488281 113.332031 101.5 113.335938 101.507812 113.332031 C 103.1875 112.898438 104.953125 112.945312 106.609375 113.46875 L 106.617188 113.46875 C 108.535156 114.171875 109.96875 115.804688 110.421875 117.800781 Z M 110.421875 117.800781 "/>
<path style=" stroke:none;fill-rule:nonzero;fill:rgb(18.431373%,18.039216%,25.490196%);fill-opacity:1;" d="M 76.152344 122.113281 C 76.152344 122.609375 76.140625 123.082031 76.121094 123.53125 C 76.113281 123.800781 76.097656 124.0625 76.085938 124.3125 C 76.074219 124.304688 76.066406 124.304688 76.050781 124.296875 C 75.898438 124.230469 75.730469 124.164062 75.578125 124.097656 C 74.820312 123.769531 74.082031 123.414062 73.359375 123.035156 L 73.042969 122.875 C 72.273438 122.464844 71.515625 122.039062 70.769531 121.574219 C 70.789062 121.339844 70.824219 121.105469 70.859375 120.871094 C 70.929688 120.355469 70.992188 119.832031 71.03125 119.316406 C 71.296875 115.6875 70.636719 112.050781 69.121094 108.746094 L 69.121094 108.738281 C 68.988281 108.472656 68.90625 108.324219 68.90625 108.324219 C 68.90625 108.324219 70.859375 106.648438 73.640625 108.324219 C 73.816406 108.429688 73.972656 108.566406 74.101562 108.726562 C 75.777344 110.703125 76.234375 117.355469 76.152344 122.113281 Z M 76.152344 122.113281 "/>
<path style=" stroke:none;fill-rule:nonzero;fill:rgb(18.431373%,18.039216%,25.490196%);fill-opacity:1;" d="M 106.589844 121.199219 C 106.5625 121.949219 106.519531 122.734375 106.472656 123.53125 L 106.472656 123.539062 C 106.46875 123.546875 106.453125 123.546875 106.449219 123.554688 C 104.929688 124.277344 103.363281 124.898438 101.761719 125.410156 C 101.757812 125.410156 101.75 125.417969 101.742188 125.417969 L 101.667969 123.53125 L 101.660156 123.285156 L 101.308594 114.109375 C 101.289062 113.691406 101.441406 113.28125 101.730469 112.976562 C 102.019531 112.675781 102.421875 112.503906 102.84375 112.5 L 106.238281 112.5 C 106.40625 112.5 106.527344 112.84375 106.609375 113.460938 L 106.609375 113.46875 C 106.773438 116.042969 106.765625 118.625 106.589844 121.199219 Z M 106.589844 121.199219 "/>
<path style=" stroke:none;fill-rule:nonzero;fill:rgb(18.431373%,18.039216%,25.490196%);fill-opacity:1;" d="M 82.421875 76.960938 L 82.421875 87.554688 L 84.875 87.554688 L 87.992188 84.210938 L 87.578125 87.554688 L 98.414062 87.554688 L 97.742188 84.210938 L 99.085938 87.554688 L 100.8125 87.554688 L 100.8125 76.960938 Z M 82.421875 76.960938 "/>
<path style=" stroke:none;fill-rule:nonzero;fill:rgb(62.745098%,38.039216%,41.568627%);fill-opacity:1;" d="M 81.585938 87.96875 C 81.585938 87.125 81.210938 86.4375 80.75 86.4375 C 80.289062 86.4375 79.914062 87.125 79.914062 87.96875 C 79.914062 88.816406 80.289062 89.503906 80.75 89.503906 C 81.210938 89.503906 81.585938 88.816406 81.585938 87.96875 Z M 81.585938 87.96875 "/>
<path style=" stroke:none;fill-rule:nonzero;fill:rgb(62.745098%,38.039216%,41.568627%);fill-opacity:1;" d="M 103.039062 87.96875 C 103.039062 87.125 102.664062 86.4375 102.203125 86.4375 C 101.742188 86.4375 101.367188 87.125 101.367188 87.96875 C 101.367188 88.816406 101.742188 89.503906 102.203125 89.503906 C 102.664062 89.503906 103.039062 88.816406 103.039062 87.96875 Z M 103.039062 87.96875 "/>
<path style=" stroke:none;fill-rule:nonzero;fill:rgb(79.607843%,79.607843%,79.607843%);fill-opacity:1;" d="M 125.011719 78.863281 C 120.132812 64.839844 107.414062 55.039062 92.617188 53.898438 C 77.820312 52.757812 63.75 60.496094 56.78125 73.609375 C 49.8125 86.71875 51.269531 102.714844 60.488281 114.351562 C 60.824219 114.773438 61.171875 115.199219 61.527344 115.605469 C 61.554688 115.632812 61.574219 115.660156 61.601562 115.6875 C 62.476562 116.695312 63.402344 117.652344 64.382812 118.558594 C 64.636719 118.792969 64.90625 119.035156 65.175781 119.261719 C 65.683594 119.71875 66.207031 120.152344 66.75 120.570312 C 67.808594 121.40625 68.914062 122.183594 70.058594 122.894531 L 70.101562 122.917969 C 70.84375 123.378906 71.601562 123.808594 72.371094 124.21875 L 72.6875 124.378906 C 73.410156 124.753906 74.148438 125.109375 74.90625 125.4375 C 75.058594 125.503906 75.226562 125.570312 75.382812 125.636719 C 75.394531 125.644531 75.402344 125.644531 75.414062 125.652344 C 76.945312 126.289062 78.519531 126.820312 80.121094 127.242188 C 83.261719 128.078125 86.5 128.503906 89.75 128.503906 C 90.9375 128.503906 92.109375 128.449219 93.269531 128.335938 C 95.921875 128.089844 98.535156 127.5625 101.074219 126.757812 C 101.078125 126.757812 101.085938 126.75 101.09375 126.75 C 102.695312 126.242188 104.261719 125.621094 105.777344 124.894531 C 105.785156 124.886719 105.796875 124.886719 105.804688 124.882812 C 106.144531 124.71875 106.472656 124.546875 106.808594 124.378906 L 106.96875 124.296875 C 107.238281 124.15625 107.507812 124.015625 107.773438 123.867188 C 108.445312 123.5 109.101562 123.109375 109.753906 122.695312 C 109.933594 122.585938 110.105469 122.472656 110.289062 122.351562 C 110.878906 121.964844 111.460938 121.546875 112.023438 121.125 C 112.125 121.050781 112.230469 120.976562 112.332031 120.898438 C 125.214844 111.113281 130.332031 94.144531 125.011719 78.863281 Z M 111.097656 119.269531 C 110.878906 119.441406 110.648438 119.609375 110.421875 119.765625 C 110.199219 119.933594 109.980469 120.09375 109.753906 120.242188 C 109.558594 120.382812 109.363281 120.515625 109.160156 120.644531 C 108.996094 120.757812 108.828125 120.863281 108.660156 120.972656 C 108.101562 121.320312 107.539062 121.65625 106.96875 121.976562 C 106.910156 122.011719 106.851562 122.042969 106.789062 122.078125 C 106.535156 122.21875 106.28125 122.351562 106.027344 122.488281 C 105.992188 122.507812 105.953125 122.519531 105.917969 122.539062 L 105.878906 122.5625 C 105.554688 122.726562 105.226562 122.890625 104.898438 123.042969 C 103.632812 123.652344 102.328125 124.183594 100.992188 124.625 C 100.816406 124.6875 100.644531 124.746094 100.46875 124.800781 C 98.066406 125.5625 95.589844 126.066406 93.082031 126.300781 C 91.984375 126.402344 90.871094 126.457031 89.75 126.457031 C 86.675781 126.464844 83.613281 126.0625 80.644531 125.261719 C 79.117188 124.863281 77.625 124.359375 76.171875 123.746094 C 76.019531 123.6875 75.863281 123.621094 75.71875 123.558594 C 75.636719 123.527344 75.5625 123.492188 75.480469 123.453125 C 74.851562 123.175781 74.230469 122.875 73.621094 122.5625 L 73.324219 122.40625 C 72.582031 122.015625 71.851562 121.601562 71.140625 121.160156 C 70.878906 121 70.617188 120.832031 70.363281 120.65625 C 69.558594 120.125 68.773438 119.554688 68.007812 118.960938 C 67.492188 118.570312 66.996094 118.15625 66.515625 117.726562 C 66.261719 117.511719 66.011719 117.277344 65.769531 117.054688 C 64.820312 116.175781 63.921875 115.246094 63.078125 114.265625 C 62.796875 113.945312 62.519531 113.621094 62.257812 113.285156 C 62.199219 113.21875 62.144531 113.152344 62.089844 113.078125 C 53.183594 101.832031 51.964844 86.3125 59.003906 73.8125 C 66.042969 61.3125 79.945312 54.316406 94.171875 56.113281 C 108.402344 57.910156 120.128906 68.140625 123.84375 82 C 127.558594 95.859375 122.519531 110.589844 111.097656 119.269531 Z M 111.097656 119.269531 "/>
<path style=" stroke:none;fill-rule:nonzero;fill:rgb(100%,71.764706%,71.764706%);fill-opacity:1;" d="M 354.722656 134.886719 C 355.050781 135.128906 355.363281 135.394531 355.652344 135.683594 L 391.683594 128.574219 L 394.578125 120.132812 L 407.882812 122.835938 L 404.210938 138.28125 C 403.601562 140.84375 401.375 142.699219 398.742188 142.828125 L 357.015625 144.921875 C 355.472656 147.761719 352.332031 149.347656 349.132812 148.910156 C 345.929688 148.46875 343.335938 146.09375 342.613281 142.941406 C 341.890625 139.789062 343.195312 136.519531 345.886719 134.726562 C 348.578125 132.9375 352.09375 133 354.722656 134.886719 Z M 354.722656 134.886719 "/>
<path style=" stroke:none;fill-rule:nonzero;fill:rgb(41.568627%,35.294118%,80.392157%);fill-opacity:1;" d="M 390.804688 126.90625 C 390.324219 126.0625 390.238281 125.050781 390.5625 124.140625 L 396.1875 108.382812 C 397.179688 103.375 402.03125 100.117188 407.035156 101.09375 C 412.042969 102.070312 415.316406 106.914062 414.351562 111.925781 L 413.539062 128.695312 C 413.492188 129.664062 413.023438 130.5625 412.261719 131.160156 C 411.5 131.757812 410.511719 131.992188 409.5625 131.800781 L 393.054688 128.53125 C 392.105469 128.339844 391.28125 127.75 390.804688 126.90625 Z M 390.804688 126.90625 "/>
<path style=" stroke:none;fill-rule:nonzero;fill:rgb(100%,71.764706%,71.764706%);fill-opacity:1;" d="M 381.769531 331.28125 L 371.175781 331.28125 L 366.136719 290.402344 L 381.769531 290.40625 Z M 381.769531 331.28125 "/>
<path style=" stroke:none;fill-rule:nonzero;fill:rgb(18.431373%,18.039216%,25.490196%);fill-opacity:1;" d="M 384.46875 341.554688 L 350.316406 341.550781 L 350.316406 341.121094 C 350.316406 333.773438 356.269531 327.820312 363.609375 327.820312 L 384.46875 327.820312 Z M 384.46875 341.554688 "/>
<path style=" stroke:none;fill-rule:nonzero;fill:rgb(100%,71.764706%,71.764706%);fill-opacity:1;" d="M 482.070312 320.175781 L 472.261719 324.171875 L 452.1875 288.210938 L 466.667969 282.316406 Z M 482.070312 320.175781 "/>
<path style=" stroke:none;fill-rule:nonzero;fill:rgb(18.431373%,18.039216%,25.490196%);fill-opacity:1;" d="M 488.445312 328.667969 L 456.8125 341.554688 L 456.648438 341.152344 C 453.882812 334.351562 457.148438 326.589844 463.949219 323.820312 L 483.269531 315.949219 Z M 488.445312 328.667969 "/>
<path style=" stroke:none;fill-rule:nonzero;fill:rgb(18.431373%,18.039216%,25.490196%);fill-opacity:1;" d="M 391.40625 161.546875 L 386.53125 135.746094 C 384.386719 128.050781 385.867188 119.796875 390.558594 113.332031 L 408.375 89.496094 L 425.394531 89.996094 C 433.4375 109.507812 434.921875 131.109375 429.613281 151.535156 L 426.484375 163.574219 C 440.515625 176.234375 449.917969 211.730469 458.480469 251.394531 L 481.949219 303.324219 L 441.570312 315.589844 L 415.410156 239.429688 L 392.042969 316.15625 L 357.824219 314.84375 L 383.851562 196.160156 Z M 391.40625 161.546875 "/>
<path style=" stroke:none;fill-rule:nonzero;fill:rgb(100%,71.764706%,71.764706%);fill-opacity:1;" d="M 435.121094 68.070312 C 435.121094 77.242188 427.6875 84.679688 418.519531 84.679688 C 409.351562 84.679688 401.917969 77.242188 401.917969 68.070312 C 401.917969 58.898438 409.351562 51.460938 418.519531 51.460938 C 427.6875 51.460938 435.121094 58.898438 435.121094 68.070312 Z M 435.121094 68.070312 "/>
<path style=" stroke:none;fill-rule:nonzero;fill:rgb(18.431373%,18.039216%,25.490196%);fill-opacity:1;" d="M 484.046875 105.796875 C 480.960938 99.769531 479.910156 92.921875 477.535156 86.582031 C 475.160156 80.242188 470.847656 73.949219 464.308594 72.203125 C 460.601562 71.210938 456.660156 71.816406 452.851562 71.34375 C 449.5 70.929688 445.894531 69.21875 444.609375 66.242188 C 444.867188 63.289062 444.5 60.316406 443.53125 57.519531 C 441.140625 50.726562 435.441406 45.363281 428.796875 42.589844 C 423.402344 40.339844 417.1875 39.703125 411.675781 41.65625 C 406.164062 43.613281 401.539062 48.394531 400.546875 54.160156 C 399.554688 59.925781 402.734375 66.363281 408.210938 68.410156 C 412.144531 69.882812 417.207031 69.390625 419.777344 72.714844 C 422.378906 76.082031 420.511719 80.988281 418.148438 84.527344 L 418.3125 84.691406 C 426.027344 84.78125 434.371094 83.289062 439.683594 77.691406 C 440.261719 77.082031 440.792969 76.425781 441.273438 75.738281 C 441.433594 76 441.605469 76.253906 441.789062 76.496094 C 444.464844 80.050781 448.65625 82.070312 452.648438 84.035156 C 456.640625 86 460.78125 88.207031 463.179688 91.957031 C 467.511719 98.730469 464.667969 107.859375 467.144531 115.511719 C 469.40625 122.492188 475.796875 127.304688 483.128906 127.542969 C 490.457031 127.78125 497.148438 123.390625 499.855469 116.574219 C 493.109375 117.136719 487.128906 111.824219 484.046875 105.796875 Z M 484.046875 105.796875 "/>
<path style=" stroke:none;fill-rule:nonzero;fill:rgb(41.568627%,35.294118%,80.392157%);fill-opacity:1;" d="M 323.167969 148.296875 L 323.867188 131.230469 L 347.960938 83.304688 C 348.640625 81.941406 349.75 80.839844 351.113281 80.167969 C 352.804688 79.324219 354.761719 79.195312 356.546875 79.8125 C 358.621094 80.527344 360.242188 82.171875 360.929688 84.257812 C 361.074219 84.703125 361.175781 85.160156 361.234375 85.621094 C 361.40625 87 361.164062 88.394531 360.535156 89.632812 L 336.410156 137.621094 Z M 323.167969 148.296875 "/>
<path style=" stroke:none;fill-rule:nonzero;fill:rgb(24.705882%,23.921569%,33.72549%);fill-opacity:1;" d="M 354.113281 79.765625 L 327.960938 131.789062 L 325.96875 130.785156 L 351.261719 80.46875 C 352.148438 80.023438 353.125 79.785156 354.113281 79.765625 Z M 354.113281 79.765625 "/>
<path style=" stroke:none;fill-rule:nonzero;fill:rgb(24.705882%,23.921569%,33.72549%);fill-opacity:1;" d="M 360.902344 85.664062 L 335.746094 135.707031 L 333.753906 134.703125 L 359.851562 82.785156 C 360.171875 83.277344 360.425781 83.804688 360.609375 84.363281 C 360.75 84.785156 360.847656 85.222656 360.902344 85.664062 Z M 360.902344 85.664062 "/>
<path style=" stroke:none;fill-rule:nonzero;fill:rgb(24.705882%,23.921569%,33.72549%);fill-opacity:1;" d="M 358.398438 81.199219 L 331.957031 133.796875 L 329.960938 132.796875 L 356.4375 80.128906 C 356.71875 80.226562 356.992188 80.34375 357.261719 80.476562 C 357.664062 80.679688 358.042969 80.921875 358.398438 81.199219 Z M 358.398438 81.199219 "/>
<path style=" stroke:none;fill-rule:nonzero;fill:rgb(24.705882%,23.921569%,33.72549%);fill-opacity:1;" d="M 326.191406 145.429688 L 323.53125 147.574219 L 323.753906 141.921875 C 324.667969 142.238281 325.65625 143.613281 326.191406 145.429688 Z M 326.191406 145.429688 "/>
<path style=" stroke:none;fill-rule:nonzero;fill:rgb(100%,71.764706%,71.764706%);fill-opacity:1;" d="M 353.625 91.699219 C 353.714844 92.101562 353.773438 92.507812 353.800781 92.914062 L 385.609375 111.277344 L 393.34375 106.824219 L 401.585938 117.617188 L 388.664062 126.832031 C 386.519531 128.363281 383.625 128.292969 381.554688 126.660156 L 348.753906 100.769531 C 345.726562 101.890625 342.316406 101.019531 340.195312 98.582031 C 338.074219 96.144531 337.679688 92.644531 339.210938 89.796875 C 340.738281 86.949219 343.871094 85.34375 347.074219 85.765625 C 350.277344 86.191406 352.886719 88.550781 353.625 91.699219 Z M 353.625 91.699219 "/>
<path style=" stroke:none;fill-rule:nonzero;fill:rgb(41.568627%,35.294118%,80.392157%);fill-opacity:1;" d="M 386.046875 109.441406 C 386.242188 108.492188 386.839844 107.671875 387.683594 107.199219 L 402.28125 99.03125 C 406.320312 95.914062 412.117188 96.652344 415.246094 100.683594 C 418.375 104.714844 417.652344 110.519531 413.628906 113.660156 L 401.992188 125.753906 C 401.320312 126.449219 400.378906 126.820312 399.410156 126.769531 C 398.441406 126.714844 397.546875 126.242188 396.953125 125.476562 L 386.675781 112.144531 C 386.082031 111.378906 385.851562 110.390625 386.046875 109.441406 Z M 386.046875 109.441406 "/>
<path style=" stroke:none;fill-rule:nonzero;fill:rgb(79.607843%,79.607843%,79.607843%);fill-opacity:1;" d="M 497.738281 342 L 242.378906 342 C 242.007812 342 241.707031 341.699219 241.707031 341.328125 C 241.707031 340.960938 242.007812 340.660156 242.378906 340.660156 L 497.738281 340.660156 C 498.109375 340.660156 498.410156 340.960938 498.410156 341.328125 C 498.410156 341.699219 498.109375 342 497.738281 342 Z M 497.738281 342 "/>
</g>
</svg>
