<?xml version="1.0" encoding="UTF-8"?>
<svg xmlns="http://www.w3.org/2000/svg" xmlns:xlink="http://www.w3.org/1999/xlink" width="500px" height="px" viewBox="0 0 500 396" version="1.1">
<defs>
<filter id="alpha" filterUnits="objectBoundingBox" x="0%" y="0%" width="100%" height="100%">
  <feColorMatrix type="matrix" in="SourceGraphic" values="0 0 0 0 1 0 0 0 0 1 0 0 0 0 1 0 0 0 1 0"/>
</filter>
<mask id="mask0">
  <g filter="url(#alpha)">
<rect x="0" y="0" width="500" height="396" style="fill:rgb(0%,0%,0%);fill-opacity:0.168627;stroke:none;"/>
  </g>
</mask>
<clipPath id="clip1">
  <rect x="0" y="0" width="501" height="396"/>
</clipPath>
<g id="surface5" clip-path="url(#clip1)">
<path style=" stroke:none;fill-rule:nonzero;fill:rgb(0%,0%,0%);fill-opacity:1;" d="M 106.53125 282.820312 L 106.957031 283.371094 C 107.238281 283.726562 107.699219 283.890625 108.140625 283.789062 L 149.972656 274.164062 C 150.359375 274.066406 150.667969 273.785156 150.804688 273.414062 C 150.9375 273.042969 150.878906 272.625 150.644531 272.308594 C 150.621094 272.277344 150.597656 272.25 150.570312 272.230469 Z M 106.53125 282.820312 "/>
</g>
<mask id="mask1">
  <g filter="url(#alpha)">
<rect x="0" y="0" width="500" height="396" style="fill:rgb(0%,0%,0%);fill-opacity:0.168627;stroke:none;"/>
  </g>
</mask>
<clipPath id="clip2">
  <rect x="0" y="0" width="501" height="396"/>
</clipPath>
<g id="surface8" clip-path="url(#clip2)">
<path style=" stroke:none;fill-rule:nonzero;fill:rgb(0%,0%,0%);fill-opacity:1;" d="M 143.691406 193.910156 L 147.3125 272.613281 L 147.511719 272.789062 L 147.933594 273.167969 C 148.152344 273.363281 148.433594 273.472656 148.722656 273.480469 L 149.484375 273.496094 C 149.832031 273.5 150.164062 273.359375 150.402344 273.105469 C 150.636719 272.847656 150.753906 272.503906 150.722656 272.160156 L 147.566406 193.785156 C 147.503906 193.117188 146.90625 192.625 146.238281 192.6875 L 145.066406 192.800781 C 144.746094 192.828125 144.453125 192.988281 144.25 193.238281 Z M 143.691406 193.910156 "/>
</g>
<mask id="mask2">
  <g filter="url(#alpha)">
<rect x="0" y="0" width="500" height="396" style="fill:rgb(0%,0%,0%);fill-opacity:0.2;stroke:none;"/>
  </g>
</mask>
<clipPath id="clip3">
  <rect x="0" y="0" width="501" height="396"/>
</clipPath>
<g id="surface11" clip-path="url(#clip3)">
<path style=" stroke:none;fill-rule:nonzero;fill:rgb(0%,0%,0%);fill-opacity:1;" d="M 330.273438 83.492188 L 330.273438 82.378906 L 311.609375 82.378906 L 311.609375 56.398438 L 310.496094 56.398438 L 310.496094 82.378906 L 289.105469 82.378906 L 289.105469 62.316406 C 288.730469 62.609375 288.359375 62.910156 287.996094 63.222656 L 287.996094 82.378906 L 273.867188 82.378906 C 273.707031 82.746094 273.558594 83.117188 273.414062 83.492188 L 287.996094 83.492188 L 287.996094 105.320312 L 269.890625 105.320312 C 269.910156 105.695312 269.933594 106.0625 269.964844 106.433594 L 287.996094 106.433594 L 287.996094 123.851562 L 274.488281 123.851562 C 274.652344 124.222656 274.828125 124.59375 275.011719 124.957031 L 287.996094 124.957031 L 287.996094 139.597656 L 289.105469 139.597656 L 289.105469 124.957031 L 310.496094 124.957031 L 310.496094 139.597656 L 311.609375 139.597656 L 311.609375 124.957031 L 330.273438 124.957031 L 330.273438 123.851562 L 311.609375 123.851562 C 311.605469 114.230469 319.402344 106.433594 329.019531 106.433594 L 330.273438 106.433594 L 330.273438 105.320312 L 311.609375 105.320312 L 311.609375 83.492188 Z M 310.496094 123.851562 L 289.105469 123.851562 L 289.105469 106.433594 L 310.496094 106.433594 Z M 310.496094 105.320312 L 289.105469 105.320312 L 289.105469 104.882812 C 289.105469 93.066406 298.683594 83.488281 310.496094 83.492188 Z M 310.496094 105.320312 "/>
</g>
</defs>
<g id="surface1">
<path style=" stroke:none;fill-rule:nonzero;fill:rgb(94.901961%,94.901961%,94.901961%);fill-opacity:1;" d="M 58.558594 297.917969 C 57.683594 297.960938 56.875 297.449219 56.535156 296.636719 C 56.195312 295.828125 56.402344 294.894531 57.042969 294.296875 C 57.097656 294.089844 57.136719 293.9375 57.1875 293.730469 C 57.167969 293.683594 57.148438 293.636719 57.132812 293.59375 C 56.25 291.511719 54.207031 290.160156 51.945312 290.171875 C 49.683594 290.179688 47.652344 291.542969 46.785156 293.632812 C 45.09375 297.707031 42.9375 301.789062 42.40625 306.097656 C 42.175781 308.003906 42.273438 309.933594 42.699219 311.808594 C 38.726562 303.136719 36.660156 293.710938 36.648438 284.175781 C 36.648438 281.78125 36.78125 279.390625 37.046875 277.011719 C 37.265625 275.058594 37.570312 273.125 37.960938 271.203125 C 40.09375 260.773438 44.664062 250.996094 51.308594 242.675781 C 54.519531 240.921875 57.121094 238.226562 58.753906 234.949219 C 59.347656 233.769531 59.765625 232.511719 59.996094 231.214844 C 59.636719 231.261719 59.265625 231.292969 58.902344 231.316406 C 58.789062 231.324219 58.671875 231.328125 58.558594 231.335938 L 58.515625 231.335938 C 57.703125 231.371094 56.941406 230.929688 56.574219 230.199219 C 56.210938 229.472656 56.304688 228.597656 56.816406 227.964844 C 56.972656 227.773438 57.128906 227.578125 57.285156 227.386719 C 57.523438 227.089844 57.769531 226.796875 58.007812 226.5 C 58.035156 226.472656 58.058594 226.441406 58.082031 226.410156 C 58.355469 226.074219 58.628906 225.738281 58.902344 225.402344 C 58.40625 224.625 57.734375 223.976562 56.941406 223.503906 C 54.203125 221.898438 50.421875 223.011719 48.441406 225.488281 C 46.457031 227.96875 46.082031 231.445312 46.769531 234.542969 C 47.449219 237.179688 48.570312 239.679688 50.089844 241.941406 C 49.941406 242.128906 49.785156 242.316406 49.636719 242.503906 C 46.917969 246 44.550781 249.75 42.566406 253.707031 C 43.050781 249.273438 42.472656 244.792969 40.886719 240.625 C 39.277344 236.746094 36.261719 233.476562 33.605469 230.121094 C 30.414062 226.089844 23.875 227.847656 23.3125 232.957031 C 23.308594 233.007812 23.300781 233.054688 23.296875 233.105469 C 23.691406 233.328125 24.078125 233.566406 24.457031 233.816406 C 25.425781 234.464844 25.898438 235.640625 25.648438 236.785156 C 25.394531 237.925781 24.46875 238.792969 23.3125 238.96875 L 23.253906 238.980469 C 23.394531 240.402344 23.644531 241.808594 24 243.195312 C 26.074219 251.007812 31.308594 257.597656 38.449219 261.386719 C 38.679688 261.503906 38.90625 261.625 39.136719 261.738281 C 37.144531 267.390625 35.894531 273.277344 35.417969 279.25 C 35.148438 282.777344 35.164062 286.316406 35.464844 289.839844 L 35.445312 289.714844 C 34.6875 285.796875 32.597656 282.265625 29.53125 279.710938 C 24.980469 275.96875 18.550781 274.59375 13.640625 271.585938 C 12.574219 270.902344 11.207031 270.898438 10.140625 271.578125 C 9.070312 272.257812 8.492188 273.496094 8.660156 274.75 C 8.667969 274.792969 8.671875 274.839844 8.679688 274.882812 C 9.410156 275.179688 10.125 275.523438 10.8125 275.910156 C 11.207031 276.132812 11.59375 276.371094 11.972656 276.617188 C 12.945312 277.269531 13.417969 278.445312 13.164062 279.585938 C 12.910156 280.726562 11.984375 281.597656 10.828125 281.773438 L 10.773438 281.785156 C 10.730469 281.789062 10.695312 281.796875 10.652344 281.800781 C 11.902344 284.789062 13.660156 287.539062 15.84375 289.929688 C 21.292969 295.777344 28.914062 299.121094 36.910156 299.171875 L 36.914062 299.171875 C 37.988281 303.839844 39.546875 308.382812 41.558594 312.726562 L 58.144531 312.726562 C 58.203125 312.542969 58.253906 312.355469 58.308594 312.167969 C 56.773438 312.265625 55.234375 312.175781 53.71875 311.894531 C 54.949219 310.386719 56.179688 308.863281 57.410156 307.355469 C 57.4375 307.324219 57.464844 307.296875 57.488281 307.265625 C 58.113281 306.492188 58.742188 305.726562 59.367188 304.953125 L 59.367188 304.949219 C 59.402344 302.582031 59.128906 300.21875 58.558594 297.917969 Z M 58.558594 297.917969 "/>
<path style=" stroke:none;fill-rule:nonzero;fill:rgb(80%,80%,80%);fill-opacity:1;" d="M 254.144531 312.953125 C 254.144531 313.136719 254.074219 313.308594 253.945312 313.4375 C 253.816406 313.570312 253.640625 313.640625 253.457031 313.640625 L 0.6875 313.640625 C 0.308594 313.640625 0 313.332031 0 312.953125 C 0 312.574219 0.308594 312.265625 0.6875 312.265625 L 253.457031 312.265625 C 253.640625 312.265625 253.816406 312.335938 253.945312 312.464844 C 254.074219 312.59375 254.144531 312.769531 254.144531 312.953125 Z M 254.144531 312.953125 "/>
<path style=" stroke:none;fill-rule:nonzero;fill:rgb(100%,71.372549%,71.372549%);fill-opacity:1;" d="M 132.359375 224.582031 C 130.433594 224.121094 128.398438 224.539062 126.808594 225.71875 C 125.21875 226.902344 124.234375 228.726562 124.117188 230.707031 L 109.667969 235.734375 L 110.582031 245.261719 L 130.886719 237.875 C 134.300781 237.847656 137.152344 235.273438 137.527344 231.882812 C 137.902344 228.492188 135.683594 225.355469 132.359375 224.582031 Z M 132.359375 224.582031 "/>
<path style=" stroke:none;fill-rule:nonzero;fill:rgb(18.431373%,18.039216%,25.490196%);fill-opacity:1;" d="M 108.808594 252.277344 C 103.0625 256.28125 92.941406 258.332031 79.164062 258.238281 C 77.621094 258.242188 76.148438 257.597656 75.101562 256.464844 C 71.417969 252.625 71.5625 243.863281 71.582031 243.015625 L 67.542969 227.789062 C 67.457031 227.554688 65.21875 221.304688 67.496094 216.941406 C 68.476562 215.097656 70.210938 213.773438 72.25 213.320312 C 80.796875 211.050781 88.828125 233.925781 89.847656 236.949219 L 101.839844 234.90625 L 110.121094 234.566406 L 118.546875 229.914062 L 123.289062 241.269531 L 111.550781 249.847656 C 110.742188 250.769531 109.820312 251.582031 108.808594 252.277344 Z M 108.808594 252.277344 "/>
<path style=" stroke:none;fill-rule:nonzero;fill:rgb(100%,71.372549%,71.372549%);fill-opacity:1;" d="M 131.945312 378.195312 L 140.78125 378.609375 L 146.574219 344.730469 L 133.539062 344.121094 Z M 131.945312 378.195312 "/>
<path style=" stroke:none;fill-rule:nonzero;fill:rgb(18.431373%,18.039216%,25.490196%);fill-opacity:1;" d="M 129.960938 373.734375 L 143.960938 373.554688 L 143.683594 379.539062 L 156.527344 389.328125 C 157.832031 390.320312 158.335938 392.042969 157.777344 393.582031 C 157.21875 395.121094 155.722656 396.117188 154.085938 396.042969 L 137.464844 395.265625 L 134.875 389.210938 L 133.480469 395.078125 L 127.210938 394.785156 Z M 129.960938 373.734375 "/>
<path style=" stroke:none;fill-rule:nonzero;fill:rgb(100%,71.372549%,71.372549%);fill-opacity:1;" d="M 224.167969 305.457031 L 227.386719 297.21875 L 197.148438 280.886719 L 181.875 290.488281 Z M 224.167969 305.457031 "/>
<path style=" stroke:none;fill-rule:nonzero;fill:rgb(18.431373%,18.039216%,25.490196%);fill-opacity:1;" d="M 219.308594 305.910156 L 223.617188 292.585938 L 229.195312 294.765625 L 242.582031 285.726562 C 243.9375 284.8125 245.734375 284.882812 247.011719 285.90625 C 248.289062 286.929688 248.753906 288.664062 248.160156 290.191406 L 242.101562 305.691406 L 235.542969 306.207031 L 240.652344 309.40625 L 238.367188 315.253906 Z M 219.308594 305.910156 "/>
<path style=" stroke:none;fill-rule:nonzero;fill:rgb(18.431373%,18.039216%,25.490196%);fill-opacity:1;" d="M 50.460938 280.941406 C 50.460938 280.941406 54.128906 304.363281 71.46875 306.097656 C 88.8125 307.832031 104.796875 300.019531 104.796875 300.019531 L 153.351562 285.0625 C 153.351562 285.0625 204.996094 299.738281 213.667969 302.050781 C 213.667969 302.050781 219.648438 288.472656 219.445312 287.597656 C 217.601562 279.527344 215.199219 284.988281 215.199219 284.988281 L 160.285156 260.707031 C 160.285156 260.707031 151.617188 258.394531 136.585938 264.753906 C 121.558594 271.113281 81.296875 286.441406 81.296875 286.441406 Z M 50.460938 280.941406 "/>
<path style=" stroke:none;fill-rule:nonzero;fill:rgb(18.431373%,18.039216%,25.490196%);fill-opacity:1;" d="M 50.660156 279.503906 C 50.660156 279.503906 47.769531 307.5625 64.660156 311.851562 C 80.71875 315.925781 102.867188 311.746094 102.867188 311.746094 L 129.273438 308.988281 C 129.273438 308.988281 130.429688 342.917969 130.429688 359.683594 C 135.792969 360.414062 141.199219 360.800781 146.613281 360.839844 C 147.769531 360.839844 147.847656 360.234375 147.847656 360.234375 L 150.085938 301.589844 C 150.402344 296.433594 148.527344 291.382812 144.921875 287.6875 C 141.316406 283.988281 136.3125 281.984375 131.152344 282.175781 C 129.90625 282.222656 128.597656 282.308594 127.230469 282.441406 C 110.984375 283.996094 90.820312 280.6875 90.820312 280.6875 Z M 50.660156 279.503906 "/>
<path style=" stroke:none;fill-rule:nonzero;fill:rgb(18.431373%,18.039216%,25.490196%);fill-opacity:1;" d="M 97.515625 238.800781 C 97.515625 238.800781 104.371094 280.273438 99.738281 283.585938 C 95.105469 286.894531 88.75 286.910156 88.75 286.910156 L 87.269531 264.007812 Z M 97.515625 238.800781 "/>
<path style=" stroke:none;fill-rule:nonzero;fill:rgb(18.431373%,18.039216%,25.490196%);fill-opacity:1;" d="M 86.078125 187.863281 L 95.246094 196.574219 C 104.003906 204.898438 106.175781 218.019531 100.5625 228.71875 L 96.179688 237.078125 Z M 86.078125 187.863281 "/>
<path style=" stroke:none;fill-rule:nonzero;fill:rgb(41.568627%,35.294118%,80.392157%);fill-opacity:1;" d="M 84.027344 189.328125 L 96.449219 203.480469 C 99.175781 206.585938 100.867188 210.464844 101.285156 214.578125 C 101.472656 216.445312 101.398438 218.332031 101.058594 220.175781 L 96.375 245.632812 L 92.855469 282.394531 C 92.855469 282.394531 65.6875 290.628906 62.90625 277.914062 C 60.125 265.203125 84.027344 189.328125 84.027344 189.328125 Z M 84.027344 189.328125 "/>
<path style=" stroke:none;fill-rule:nonzero;fill:rgb(18.431373%,18.039216%,25.490196%);fill-opacity:1;" d="M 72.363281 285.851562 C 54.503906 282.875 50.128906 282.28125 49.855469 282.179688 L 49.582031 282.074219 L 51.375 271.332031 L 58.933594 252.753906 C 59.425781 246.675781 62.609375 238.441406 60.785156 231.828125 C 55.492188 212.601562 64.09375 185.433594 68.027344 183.355469 L 78.9375 176.203125 L 82.765625 179.714844 L 89.402344 189.007812 C 94.863281 213.339844 98.636719 236.019531 98.453125 237.40625 L 95.082031 261.226562 L 91.109375 270.367188 C 79.058594 276.179688 87.164062 288.316406 72.363281 285.851562 Z M 72.363281 285.851562 "/>
<path style=" stroke:none;fill-rule:nonzero;fill:rgb(90.196078%,90.196078%,90.196078%);fill-opacity:1;" d="M 104.699219 268.375 L 132.742188 260.871094 L 135.210938 260.285156 L 136.972656 259.867188 L 139.023438 259.382812 L 139.039062 259.378906 C 139.339844 259.308594 139.652344 259.363281 139.910156 259.523438 L 150.324219 272.007812 C 150.417969 272.066406 150.5 272.140625 150.570312 272.226562 C 150.597656 272.25 150.621094 272.277344 150.644531 272.304688 C 150.878906 272.625 150.9375 273.039062 150.804688 273.414062 C 150.667969 273.785156 150.359375 274.066406 149.972656 274.160156 L 108.140625 283.789062 C 107.695312 283.890625 107.238281 283.726562 106.957031 283.371094 L 106.53125 282.820312 L 104.214844 271.671875 L 104.050781 270.226562 C 103.945312 270.089844 103.871094 269.933594 103.832031 269.769531 C 103.695312 269.144531 104.078125 268.523438 104.699219 268.375 Z M 104.699219 268.375 "/>
<use xlink:href="#surface5" mask="url(#mask0)"/>
<path style=" stroke:none;fill-rule:nonzero;fill:rgb(90.196078%,90.196078%,90.196078%);fill-opacity:1;" d="M 138.816406 259.300781 L 138.058594 205.960938 C 138.027344 205.640625 138.125 205.320312 138.328125 205.070312 L 143.6875 193.910156 L 144.246094 193.234375 C 144.453125 192.988281 144.75 192.832031 145.070312 192.800781 L 146.238281 192.691406 C 146.90625 192.625 147.503906 193.113281 147.566406 193.785156 L 148.617188 250.21875 L 148.621094 250.222656 L 149.140625 255.65625 L 149.757812 262.109375 L 149.757812 262.117188 L 150.722656 272.160156 C 150.757812 272.507812 150.640625 272.851562 150.398438 273.105469 C 150.164062 273.359375 149.832031 273.503906 149.484375 273.496094 L 148.726562 273.480469 C 148.433594 273.472656 148.15625 273.363281 147.9375 273.171875 L 147.511719 272.789062 L 147.316406 272.609375 L 139.21875 260.09375 C 138.988281 259.890625 138.84375 259.605469 138.816406 259.300781 Z M 138.816406 259.300781 "/>
<use xlink:href="#surface8" mask="url(#mask1)"/>
<path style=" stroke:none;fill-rule:nonzero;fill:rgb(41.568627%,35.294118%,80.392157%);fill-opacity:1;" d="M 143.996094 197.09375 L 139.09375 209.195312 L 139.699219 245.398438 L 145.007812 253.074219 Z M 143.996094 197.09375 "/>
<path style=" stroke:none;fill-rule:nonzero;fill:rgb(18.431373%,18.039216%,25.490196%);fill-opacity:1;" d="M 107.933594 268.054688 C 107.375 268.214844 107.050781 268.796875 107.207031 269.355469 L 109.367188 278.355469 L 111.390625 277.78125 L 109.230469 268.777344 C 109.074219 268.21875 108.492188 267.894531 107.933594 268.054688 Z M 107.933594 268.054688 "/>
<path style=" stroke:none;fill-rule:nonzero;fill:rgb(18.431373%,18.039216%,25.490196%);fill-opacity:1;" d="M 111.980469 266.902344 C 111.421875 267.0625 111.097656 267.644531 111.253906 268.203125 L 111.714844 269.820312 L 113.738281 269.246094 L 113.277344 267.625 C 113.121094 267.066406 112.539062 266.742188 111.980469 266.902344 Z M 111.980469 266.902344 "/>
<path style=" stroke:none;fill-rule:nonzero;fill:rgb(18.431373%,18.039216%,25.490196%);fill-opacity:1;" d="M 116.027344 265.75 C 115.46875 265.910156 115.144531 266.492188 115.304688 267.050781 L 115.765625 268.667969 L 117.789062 268.09375 L 117.328125 266.472656 C 117.167969 265.914062 116.585938 265.589844 116.027344 265.75 Z M 116.027344 265.75 "/>
<path style=" stroke:none;fill-rule:nonzero;fill:rgb(18.431373%,18.039216%,25.490196%);fill-opacity:1;" d="M 120.074219 264.597656 C 119.515625 264.757812 119.191406 265.339844 119.351562 265.898438 L 119.8125 267.515625 L 121.835938 266.941406 L 121.375 265.320312 C 121.214844 264.761719 120.632812 264.4375 120.074219 264.597656 Z M 120.074219 264.597656 "/>
<path style=" stroke:none;fill-rule:nonzero;fill:rgb(18.431373%,18.039216%,25.490196%);fill-opacity:1;" d="M 124.121094 263.445312 C 123.5625 263.601562 123.238281 264.183594 123.398438 264.746094 L 123.859375 266.363281 L 125.882812 265.785156 L 125.421875 264.167969 C 125.261719 263.609375 124.679688 263.285156 124.121094 263.445312 Z M 124.121094 263.445312 "/>
<path style=" stroke:none;fill-rule:nonzero;fill:rgb(18.431373%,18.039216%,25.490196%);fill-opacity:1;" d="M 128.167969 262.292969 C 127.609375 262.449219 127.285156 263.03125 127.445312 263.589844 L 127.90625 265.210938 L 129.929688 264.632812 L 129.46875 263.015625 C 129.308594 262.457031 128.726562 262.132812 128.167969 262.292969 Z M 128.167969 262.292969 "/>
<path style=" stroke:none;fill-rule:nonzero;fill:rgb(18.431373%,18.039216%,25.490196%);fill-opacity:1;" d="M 132.214844 261.140625 C 131.65625 261.296875 131.332031 261.878906 131.492188 262.4375 L 131.953125 264.058594 L 133.976562 263.480469 L 133.515625 261.863281 C 133.355469 261.304688 132.773438 260.980469 132.214844 261.140625 Z M 132.214844 261.140625 "/>
<path style=" stroke:none;fill-rule:nonzero;fill:rgb(18.431373%,18.039216%,25.490196%);fill-opacity:1;" d="M 136.261719 259.988281 C 135.703125 260.144531 135.378906 260.726562 135.539062 261.285156 L 136 262.90625 L 138.023438 262.328125 L 137.5625 260.710938 C 137.402344 260.152344 136.820312 259.828125 136.261719 259.988281 Z M 136.261719 259.988281 "/>
<path style=" stroke:none;fill-rule:nonzero;fill:rgb(18.431373%,18.039216%,25.490196%);fill-opacity:1;" d="M 112.828125 270.59375 C 112.269531 270.753906 111.945312 271.335938 112.105469 271.894531 L 112.566406 273.511719 L 114.589844 272.9375 L 114.128906 271.316406 C 113.96875 270.757812 113.386719 270.433594 112.828125 270.59375 Z M 112.828125 270.59375 "/>
<path style=" stroke:none;fill-rule:nonzero;fill:rgb(18.431373%,18.039216%,25.490196%);fill-opacity:1;" d="M 116.875 269.441406 C 116.316406 269.601562 115.992188 270.183594 116.152344 270.742188 L 116.613281 272.359375 L 118.636719 271.785156 L 118.175781 270.164062 C 118.015625 269.605469 117.433594 269.28125 116.875 269.441406 Z M 116.875 269.441406 "/>
<path style=" stroke:none;fill-rule:nonzero;fill:rgb(18.431373%,18.039216%,25.490196%);fill-opacity:1;" d="M 120.921875 268.289062 C 120.363281 268.449219 120.039062 269.027344 120.199219 269.589844 L 120.660156 271.207031 L 122.683594 270.632812 L 122.222656 269.011719 C 122.0625 268.453125 121.480469 268.128906 120.921875 268.289062 Z M 120.921875 268.289062 "/>
<path style=" stroke:none;fill-rule:nonzero;fill:rgb(18.431373%,18.039216%,25.490196%);fill-opacity:1;" d="M 124.96875 267.136719 C 124.410156 267.292969 124.089844 267.875 124.246094 268.433594 L 124.707031 270.054688 L 126.730469 269.476562 L 126.269531 267.859375 C 126.109375 267.300781 125.53125 266.976562 124.96875 267.136719 Z M 124.96875 267.136719 "/>
<path style=" stroke:none;fill-rule:nonzero;fill:rgb(18.431373%,18.039216%,25.490196%);fill-opacity:1;" d="M 129.019531 265.984375 C 128.460938 266.140625 128.136719 266.722656 128.292969 267.28125 L 128.753906 268.902344 L 130.777344 268.324219 L 130.316406 266.707031 C 130.160156 266.148438 129.578125 265.824219 129.019531 265.984375 Z M 129.019531 265.984375 "/>
<path style=" stroke:none;fill-rule:nonzero;fill:rgb(18.431373%,18.039216%,25.490196%);fill-opacity:1;" d="M 133.066406 264.832031 C 132.507812 264.988281 132.183594 265.570312 132.339844 266.128906 L 132.800781 267.75 L 134.824219 267.171875 L 134.363281 265.554688 C 134.207031 264.996094 133.625 264.671875 133.066406 264.832031 Z M 133.066406 264.832031 "/>
<path style=" stroke:none;fill-rule:nonzero;fill:rgb(18.431373%,18.039216%,25.490196%);fill-opacity:1;" d="M 137.113281 263.679688 C 136.554688 263.835938 136.230469 264.417969 136.390625 264.976562 L 136.851562 266.597656 L 138.875 266.019531 L 138.414062 264.402344 C 138.253906 263.84375 137.671875 263.519531 137.113281 263.679688 Z M 137.113281 263.679688 "/>
<path style=" stroke:none;fill-rule:nonzero;fill:rgb(18.431373%,18.039216%,25.490196%);fill-opacity:1;" d="M 113.679688 274.285156 C 113.121094 274.445312 112.796875 275.027344 112.953125 275.585938 L 113.414062 277.203125 L 115.4375 276.628906 L 114.976562 275.007812 C 114.820312 274.449219 114.238281 274.125 113.679688 274.285156 Z M 113.679688 274.285156 "/>
<path style=" stroke:none;fill-rule:nonzero;fill:rgb(18.431373%,18.039216%,25.490196%);fill-opacity:1;" d="M 117.726562 273.132812 C 117.167969 273.292969 116.84375 273.875 117 274.433594 L 117.460938 276.050781 L 119.484375 275.476562 L 119.023438 273.855469 C 118.867188 273.296875 118.285156 272.972656 117.726562 273.132812 Z M 117.726562 273.132812 "/>
<path style=" stroke:none;fill-rule:nonzero;fill:rgb(18.431373%,18.039216%,25.490196%);fill-opacity:1;" d="M 121.773438 271.980469 C 121.214844 272.136719 120.890625 272.71875 121.050781 273.28125 L 121.511719 274.898438 L 123.535156 274.320312 L 123.074219 272.703125 C 122.914062 272.144531 122.332031 271.820312 121.773438 271.980469 Z M 121.773438 271.980469 "/>
<path style=" stroke:none;fill-rule:nonzero;fill:rgb(18.431373%,18.039216%,25.490196%);fill-opacity:1;" d="M 125.820312 270.828125 C 125.261719 270.984375 124.9375 271.566406 125.097656 272.125 L 125.558594 273.746094 L 127.582031 273.167969 L 127.121094 271.550781 C 126.960938 270.992188 126.378906 270.667969 125.820312 270.828125 Z M 125.820312 270.828125 "/>
<path style=" stroke:none;fill-rule:nonzero;fill:rgb(18.431373%,18.039216%,25.490196%);fill-opacity:1;" d="M 129.867188 269.675781 C 129.308594 269.832031 128.984375 270.414062 129.144531 270.972656 L 129.605469 272.59375 L 131.628906 272.015625 L 131.167969 270.398438 C 131.007812 269.839844 130.425781 269.515625 129.867188 269.675781 Z M 129.867188 269.675781 "/>
<path style=" stroke:none;fill-rule:nonzero;fill:rgb(18.431373%,18.039216%,25.490196%);fill-opacity:1;" d="M 133.914062 268.523438 C 133.355469 268.679688 133.03125 269.261719 133.191406 269.820312 L 133.652344 271.441406 L 135.675781 270.863281 L 135.214844 269.246094 C 135.054688 268.6875 134.472656 268.363281 133.914062 268.523438 Z M 133.914062 268.523438 "/>
<path style=" stroke:none;fill-rule:nonzero;fill:rgb(18.431373%,18.039216%,25.490196%);fill-opacity:1;" d="M 137.960938 267.367188 C 137.402344 267.527344 137.078125 268.109375 137.238281 268.667969 L 137.699219 270.289062 L 139.722656 269.710938 L 139.261719 268.09375 C 139.101562 267.535156 138.519531 267.210938 137.960938 267.367188 Z M 137.960938 267.367188 "/>
<path style=" stroke:none;fill-rule:nonzero;fill:rgb(100%,71.372549%,71.372549%);fill-opacity:1;" d="M 126.070312 260.382812 C 124.972656 258.734375 123.199219 257.65625 121.230469 257.441406 C 119.261719 257.222656 117.296875 257.890625 115.867188 259.261719 L 101.851562 253.121094 L 96.042969 260.726562 L 115.953125 269.125 C 118.472656 271.425781 122.3125 271.476562 124.894531 269.25 C 127.476562 267.019531 127.980469 263.210938 126.070312 260.382812 Z M 126.070312 260.382812 "/>
<path style=" stroke:none;fill-rule:nonzero;fill:rgb(18.431373%,18.039216%,25.490196%);fill-opacity:1;" d="M 89.972656 264.660156 C 83.039062 263.6875 74.222656 258.304688 64.191406 248.863281 C 63.054688 247.816406 62.414062 246.34375 62.417969 244.800781 C 62.328125 239.476562 68.394531 233.152344 68.984375 232.546875 L 76.382812 218.636719 C 76.476562 218.40625 79.085938 212.304688 83.722656 210.65625 C 85.695312 209.96875 87.867188 210.179688 89.671875 211.234375 C 97.476562 215.382812 87.808594 237.617188 86.5 240.527344 L 96.679688 247.1875 L 102.980469 252.570312 L 112.320312 254.894531 L 108.074219 266.441406 L 93.632812 264.746094 C 92.414062 264.867188 91.183594 264.839844 89.972656 264.660156 Z M 89.972656 264.660156 "/>
<path style=" stroke:none;fill-rule:nonzero;fill:rgb(100%,71.372549%,71.372549%);fill-opacity:1;" d="M 88.484375 139.695312 C 78.941406 138.550781 70.253906 145.535156 69.085938 155.292969 C 67.917969 165.050781 74.707031 173.890625 84.25 175.03125 C 93.796875 176.175781 102.480469 169.191406 103.648438 159.433594 C 104.820312 149.675781 98.027344 140.839844 88.484375 139.695312 Z M 88.484375 139.695312 "/>
<path style=" stroke:none;fill-rule:nonzero;fill:rgb(18.431373%,18.039216%,25.490196%);fill-opacity:1;" d="M 41.042969 144.160156 C 44.390625 141.085938 46.332031 136.707031 49.144531 133.097656 C 51.960938 129.488281 56.464844 126.496094 60.671875 127.921875 C 63.574219 128.902344 65.558594 131.804688 66.371094 134.871094 C 67.1875 137.9375 67.019531 141.195312 66.84375 144.382812 C 67.550781 137.871094 72.585938 132.082031 78.734375 130.714844 C 84.882812 129.347656 91.664062 132.507812 94.746094 138.175781 C 98.464844 135.472656 103.617188 135.980469 106.738281 139.355469 C 109.699219 142.71875 109.757812 148.445312 106.867188 151.933594 C 103.976562 155.421875 98.527344 156.199219 94.902344 153.636719 L 93.382812 154.734375 C 93.828125 157.523438 91.953125 160.53125 89.316406 161.246094 C 87.179688 161.824219 84.316406 161.34375 83.300781 163.390625 C 82.585938 164.820312 83.390625 166.535156 84.3125 167.8125 C 85.238281 169.085938 86.351562 170.425781 86.289062 172.03125 C 86.195312 174.453125 83.515625 175.835938 81.203125 176.070312 C 75.621094 176.640625 69.898438 173.402344 67.339844 168.230469 C 67.292969 168.132812 67.238281 168.03125 67.175781 167.929688 C 64.171875 162.964844 63.339844 156.980469 64.878906 151.382812 C 65.1875 150.296875 65.109375 149.449219 64.378906 149.097656 C 61.210938 147.566406 51.675781 148.839844 48.617188 150.65625 C 45.558594 152.472656 42.976562 155.050781 40.003906 157.019531 C 37.035156 158.984375 33.386719 160.339844 30.035156 159.304688 C 27.355469 158.476562 25.257812 156.207031 23.976562 153.617188 C 22.695312 151.027344 22.128906 148.121094 21.652344 145.238281 C 27.296875 149.46875 35.773438 149 41.042969 144.160156 Z M 41.042969 144.160156 "/>
<path style=" stroke:none;fill-rule:nonzero;fill:rgb(79.215686%,79.215686%,79.215686%);fill-opacity:1;" d="M 498.789062 19.933594 L 236.191406 19.933594 C 235.621094 19.921875 235.167969 19.460938 235.167969 18.890625 C 235.167969 18.324219 235.621094 17.859375 236.191406 17.847656 L 498.789062 17.847656 C 499.355469 17.859375 499.808594 18.324219 499.808594 18.890625 C 499.808594 19.460938 499.355469 19.921875 498.789062 19.933594 Z M 498.789062 19.933594 "/>
<path style=" stroke:none;fill-rule:nonzero;fill:rgb(24.705882%,23.921569%,33.72549%);fill-opacity:1;" d="M 260.1875 6.257812 C 260.1875 2.800781 257.445312 0 254.066406 0 C 250.6875 0 247.945312 2.800781 247.945312 6.257812 C 247.945312 9.710938 250.6875 12.515625 254.066406 12.515625 C 257.445312 12.515625 260.1875 9.710938 260.1875 6.257812 Z M 260.1875 6.257812 "/>
<path style=" stroke:none;fill-rule:nonzero;fill:rgb(24.705882%,23.921569%,33.72549%);fill-opacity:1;" d="M 281.328125 6.257812 C 281.328125 2.800781 278.585938 0 275.207031 0 C 271.828125 0 269.085938 2.800781 269.085938 6.257812 C 269.085938 9.710938 271.828125 12.515625 275.207031 12.515625 C 278.585938 12.515625 281.328125 9.710938 281.328125 6.257812 Z M 281.328125 6.257812 "/>
<path style=" stroke:none;fill-rule:nonzero;fill:rgb(24.705882%,23.921569%,33.72549%);fill-opacity:1;" d="M 302.46875 6.257812 C 302.46875 2.800781 299.730469 0 296.347656 0 C 292.96875 0 290.230469 2.800781 290.230469 6.257812 C 290.230469 9.710938 292.96875 12.515625 296.347656 12.515625 C 299.730469 12.515625 302.46875 9.710938 302.46875 6.257812 Z M 302.46875 6.257812 "/>
<path style=" stroke:none;fill-rule:nonzero;fill:rgb(24.705882%,23.921569%,33.72549%);fill-opacity:1;" d="M 486.058594 1.550781 L 471.039062 1.550781 C 470.421875 1.5625 469.925781 2.070312 469.925781 2.6875 C 469.925781 3.308594 470.421875 3.8125 471.039062 3.824219 L 486.058594 3.824219 C 486.679688 3.8125 487.171875 3.308594 487.171875 2.6875 C 487.171875 2.070312 486.679688 1.5625 486.058594 1.550781 Z M 486.058594 1.550781 "/>
<path style=" stroke:none;fill-rule:nonzero;fill:rgb(24.705882%,23.921569%,33.72549%);fill-opacity:1;" d="M 486.058594 5.820312 L 471.039062 5.820312 C 470.421875 5.832031 469.925781 6.335938 469.925781 6.957031 C 469.925781 7.578125 470.421875 8.082031 471.039062 8.09375 L 486.058594 8.09375 C 486.679688 8.082031 487.171875 7.578125 487.171875 6.957031 C 487.171875 6.335938 486.679688 5.832031 486.058594 5.820312 Z M 486.058594 5.820312 "/>
<path style=" stroke:none;fill-rule:nonzero;fill:rgb(24.705882%,23.921569%,33.72549%);fill-opacity:1;" d="M 486.058594 10.082031 L 471.039062 10.082031 C 470.421875 10.09375 469.925781 10.601562 469.925781 11.21875 C 469.925781 11.839844 470.421875 12.34375 471.039062 12.359375 L 486.058594 12.359375 C 486.679688 12.34375 487.171875 11.839844 487.171875 11.21875 C 487.171875 10.601562 486.679688 10.09375 486.058594 10.082031 Z M 486.058594 10.082031 "/>
<path style=" stroke:none;fill-rule:nonzero;fill:rgb(18.431373%,18.039216%,25.490196%);fill-opacity:1;" d="M 38.410156 259.976562 L 38.417969 259.964844 L 38.410156 259.988281 Z M 38.410156 259.976562 "/>
<path style=" stroke:none;fill-rule:nonzero;fill:rgb(90.196078%,90.588235%,90.980392%);fill-opacity:1;" d="M 406.710938 53.066406 C 406.710938 57.246094 403.324219 60.632812 399.144531 60.632812 C 394.96875 60.632812 391.578125 57.246094 391.578125 53.066406 C 391.578125 48.886719 394.96875 45.5 399.144531 45.5 C 403.324219 45.5 406.710938 48.886719 406.710938 53.066406 Z M 406.710938 53.066406 "/>
<path style=" stroke:none;fill-rule:nonzero;fill:rgb(90.196078%,90.588235%,90.980392%);fill-opacity:1;" d="M 462.917969 69.824219 L 393.832031 69.824219 C 393.027344 69.824219 392.28125 69.394531 391.878906 68.699219 C 391.476562 68 391.476562 67.140625 391.878906 66.441406 C 392.28125 65.746094 393.027344 65.316406 393.832031 65.316406 L 462.917969 65.316406 C 463.722656 65.316406 464.46875 65.746094 464.871094 66.441406 C 465.273438 67.140625 465.273438 68 464.871094 68.699219 C 464.46875 69.394531 463.722656 69.824219 462.917969 69.824219 Z M 462.917969 69.824219 "/>
<path style=" stroke:none;fill-rule:nonzero;fill:rgb(90.196078%,90.588235%,90.980392%);fill-opacity:1;" d="M 410.992188 78.726562 L 393.832031 78.726562 C 392.589844 78.726562 391.578125 77.71875 391.578125 76.472656 C 391.578125 75.230469 392.589844 74.21875 393.832031 74.21875 L 410.992188 74.21875 C 412.234375 74.21875 413.246094 75.230469 413.246094 76.472656 C 413.246094 77.71875 412.234375 78.726562 410.992188 78.726562 Z M 410.992188 78.726562 "/>
<path style=" stroke:none;fill-rule:nonzero;fill:rgb(90.196078%,90.588235%,90.980392%);fill-opacity:1;" d="M 406.710938 171.175781 C 406.710938 175.355469 403.324219 178.742188 399.144531 178.742188 C 394.96875 178.742188 391.578125 175.355469 391.578125 171.175781 C 391.578125 166.996094 394.96875 163.609375 399.144531 163.609375 C 403.324219 163.609375 406.710938 166.996094 406.710938 171.175781 Z M 406.710938 171.175781 "/>
<path style=" stroke:none;fill-rule:nonzero;fill:rgb(90.196078%,90.588235%,90.980392%);fill-opacity:1;" d="M 462.917969 187.933594 L 393.832031 187.933594 C 392.589844 187.933594 391.582031 186.921875 391.582031 185.679688 C 391.582031 184.433594 392.589844 183.425781 393.832031 183.425781 L 462.917969 183.425781 C 464.160156 183.425781 465.167969 184.433594 465.167969 185.679688 C 465.167969 186.921875 464.160156 187.933594 462.917969 187.933594 Z M 462.917969 187.933594 "/>
<path style=" stroke:none;fill-rule:nonzero;fill:rgb(90.196078%,90.588235%,90.980392%);fill-opacity:1;" d="M 410.992188 196.835938 L 393.832031 196.835938 C 392.589844 196.835938 391.578125 195.828125 391.578125 194.582031 C 391.578125 193.339844 392.589844 192.328125 393.832031 192.328125 L 410.992188 192.328125 C 412.234375 192.328125 413.246094 193.339844 413.246094 194.582031 C 413.246094 195.828125 412.234375 196.835938 410.992188 196.835938 Z M 410.992188 196.835938 "/>
<path style=" stroke:none;fill-rule:nonzero;fill:rgb(90.196078%,90.588235%,90.980392%);fill-opacity:1;" d="M 284.941406 153.253906 C 284.941406 157.433594 281.554688 160.820312 277.375 160.820312 C 273.195312 160.820312 269.808594 157.433594 269.808594 153.253906 C 269.808594 149.074219 273.195312 145.6875 277.375 145.6875 C 281.554688 145.6875 284.941406 149.074219 284.941406 153.253906 Z M 284.941406 153.253906 "/>
<path style=" stroke:none;fill-rule:nonzero;fill:rgb(90.196078%,90.588235%,90.980392%);fill-opacity:1;" d="M 341.144531 170.007812 L 272.0625 170.007812 C 270.816406 170.007812 269.808594 169 269.808594 167.753906 C 269.808594 166.511719 270.816406 165.503906 272.0625 165.503906 L 341.144531 165.503906 C 342.390625 165.503906 343.398438 166.511719 343.398438 167.753906 C 343.398438 169 342.390625 170.007812 341.144531 170.007812 Z M 341.144531 170.007812 "/>
<path style=" stroke:none;fill-rule:nonzero;fill:rgb(90.196078%,90.588235%,90.980392%);fill-opacity:1;" d="M 289.21875 178.914062 L 272.0625 178.914062 C 270.816406 178.914062 269.808594 177.902344 269.808594 176.660156 C 269.808594 175.414062 270.816406 174.40625 272.0625 174.40625 L 289.21875 174.40625 C 290.464844 174.40625 291.472656 175.414062 291.472656 176.660156 C 291.472656 177.902344 290.464844 178.914062 289.21875 178.914062 Z M 289.21875 178.914062 "/>
<path style=" stroke:none;fill-rule:nonzero;fill:rgb(90.196078%,90.588235%,90.980392%);fill-opacity:1;" d="M 406.710938 107.667969 C 406.710938 111.847656 403.324219 115.238281 399.144531 115.238281 C 394.96875 115.238281 391.578125 111.847656 391.578125 107.667969 C 391.578125 103.492188 394.96875 100.101562 399.144531 100.101562 C 403.324219 100.101562 406.710938 103.492188 406.710938 107.667969 Z M 406.710938 107.667969 "/>
<path style=" stroke:none;fill-rule:nonzero;fill:rgb(90.196078%,90.588235%,90.980392%);fill-opacity:1;" d="M 462.917969 124.425781 L 393.832031 124.425781 C 392.589844 124.425781 391.582031 123.417969 391.582031 122.171875 C 391.582031 120.925781 392.589844 119.917969 393.832031 119.917969 L 462.917969 119.917969 C 464.160156 119.917969 465.167969 120.925781 465.167969 122.171875 C 465.167969 123.417969 464.160156 124.425781 462.917969 124.425781 Z M 462.917969 124.425781 "/>
<path style=" stroke:none;fill-rule:nonzero;fill:rgb(90.196078%,90.588235%,90.980392%);fill-opacity:1;" d="M 435.34375 133.328125 L 393.832031 133.328125 C 392.589844 133.328125 391.578125 132.320312 391.578125 131.074219 C 391.578125 129.832031 392.589844 128.824219 393.832031 128.824219 L 435.34375 128.824219 C 436.589844 128.824219 437.597656 129.832031 437.597656 131.074219 C 437.597656 132.320312 436.589844 133.328125 435.34375 133.328125 Z M 435.34375 133.328125 "/>
<path style=" stroke:none;fill-rule:nonzero;fill:rgb(90.196078%,90.588235%,90.980392%);fill-opacity:1;" d="M 423.777344 142.234375 L 393.832031 142.234375 C 392.589844 142.234375 391.578125 141.222656 391.578125 139.980469 C 391.578125 138.734375 392.589844 137.726562 393.832031 137.726562 L 423.777344 137.726562 C 425.023438 137.726562 426.03125 138.734375 426.03125 139.980469 C 426.03125 141.222656 425.023438 142.234375 423.777344 142.234375 Z M 423.777344 142.234375 "/>
<path style=" stroke:none;fill-rule:nonzero;fill:rgb(41.568627%,35.294118%,80.392157%);fill-opacity:1;" d="M 330.164062 58.496094 L 330.164062 137.945312 C 330.160156 139.097656 329.226562 140.035156 328.074219 140.039062 L 286.21875 140.039062 C 281.585938 135.742188 277.789062 130.628906 275.011719 124.957031 C 274.828125 124.59375 274.652344 124.222656 274.488281 123.851562 C 271.957031 118.359375 270.425781 112.460938 269.964844 106.433594 C 269.933594 106.0625 269.910156 105.695312 269.890625 105.320312 C 269.835938 104.363281 269.808594 103.394531 269.808594 102.417969 C 269.800781 95.9375 271.023438 89.515625 273.414062 83.492188 C 273.558594 83.117188 273.707031 82.746094 273.867188 82.378906 C 277.011719 74.976562 281.851562 68.414062 287.996094 63.222656 C 288.359375 62.910156 288.730469 62.609375 289.105469 62.316406 L 289.1875 62.246094 C 293.996094 58.441406 299.953125 56.378906 306.082031 56.398438 L 328.074219 56.398438 C 329.230469 56.402344 330.164062 57.339844 330.164062 58.496094 Z M 330.164062 58.496094 "/>
<use xlink:href="#surface11" mask="url(#mask2)"/>
<path style=" stroke:none;fill-rule:nonzero;fill:rgb(18.431373%,18.039216%,25.490196%);fill-opacity:1;" d="M 328.167969 124.128906 C 327.253906 124.171875 326.40625 123.636719 326.054688 122.789062 C 325.699219 121.945312 325.910156 120.964844 326.585938 120.34375 C 326.640625 120.125 326.679688 119.964844 326.734375 119.746094 C 326.714844 119.699219 326.695312 119.652344 326.675781 119.605469 C 324.664062 114.808594 311.828125 128.179688 311.273438 132.6875 C 311.03125 134.679688 311.132812 136.699219 311.578125 138.660156 C 307.421875 129.589844 305.261719 119.730469 305.25 109.75 C 305.246094 107.25 305.386719 104.746094 305.664062 102.257812 C 305.894531 100.21875 306.214844 98.191406 306.621094 96.183594 C 308.851562 85.269531 313.636719 75.042969 320.582031 66.34375 C 324.554688 66.5625 328.039062 65.957031 328.375 58.257812 C 328.433594 56.886719 329.449219 55.699219 329.675781 54.351562 C 329.296875 54.402344 328.910156 54.433594 328.53125 54.457031 C 328.414062 54.464844 328.289062 54.46875 328.167969 54.476562 L 328.125 54.476562 C 327.273438 54.515625 326.480469 54.050781 326.09375 53.289062 C 325.710938 52.527344 325.808594 51.613281 326.347656 50.949219 C 326.511719 50.75 326.675781 50.546875 326.839844 50.347656 C 327.085938 50.035156 327.34375 49.730469 327.589844 49.417969 C 327.621094 49.390625 327.648438 49.359375 327.671875 49.328125 C 327.957031 48.972656 328.246094 48.625 328.53125 48.269531 C 328.007812 47.457031 327.304688 46.78125 326.476562 46.285156 C 323.613281 44.605469 319.65625 45.769531 317.585938 48.363281 C 315.507812 50.957031 315.117188 54.59375 315.839844 57.835938 C 316.546875 60.589844 317.722656 63.207031 319.308594 65.570312 C 319.152344 65.769531 318.992188 65.960938 318.835938 66.160156 C 315.992188 69.816406 313.515625 73.742188 311.441406 77.878906 C 312.027344 73.289062 304.84375 56.714844 302.066406 53.203125 C 298.730469 48.988281 291.886719 50.828125 291.296875 56.175781 C 291.292969 56.226562 291.289062 56.277344 291.28125 56.328125 C 291.695312 56.5625 292.097656 56.808594 292.492188 57.070312 C 293.511719 57.75 294.003906 58.984375 293.742188 60.175781 C 293.476562 61.371094 292.507812 62.277344 291.296875 62.464844 L 291.238281 62.472656 C 285.714844 70.359375 303.421875 90.890625 307.855469 86.28125 C 305.769531 92.195312 304.460938 98.351562 303.960938 104.601562 C 303.679688 108.289062 303.695312 111.992188 304.011719 115.679688 L 303.992188 115.546875 C 303.007812 107.523438 286.113281 95.589844 281.179688 96.585938 C 278.335938 97.15625 275.539062 97.027344 275.96875 99.894531 C 275.976562 99.941406 275.984375 99.984375 275.992188 100.03125 C 276.757812 100.34375 277.503906 100.703125 278.222656 101.105469 C 278.636719 101.339844 279.039062 101.585938 279.433594 101.847656 C 280.449219 102.527344 280.945312 103.761719 280.683594 104.953125 C 280.417969 106.148438 279.449219 107.054688 278.238281 107.242188 L 278.179688 107.25 C 278.136719 107.257812 278.097656 107.265625 278.054688 107.269531 C 275.539062 115.921875 294.1875 129.886719 305.523438 125.441406 L 305.527344 125.441406 C 306.652344 130.324219 308.28125 135.078125 310.386719 139.621094 L 327.734375 139.621094 C 327.796875 139.429688 327.851562 139.230469 327.910156 139.039062 C 326.300781 139.140625 324.691406 139.042969 323.109375 138.75 C 324.394531 137.171875 325.683594 135.582031 326.96875 134 C 327 133.972656 327.023438 133.941406 327.050781 133.90625 C 327.703125 133.097656 328.363281 132.296875 329.015625 131.488281 C 329.050781 129.007812 328.765625 126.535156 328.167969 124.128906 Z M 308.300781 85.042969 L 308.3125 85.03125 L 308.300781 85.054688 Z M 304.457031 119.691406 L 304.308594 119.355469 C 304.316406 119.113281 304.316406 118.871094 304.308594 118.621094 C 304.308594 118.550781 304.296875 118.484375 304.296875 118.414062 C 304.351562 118.84375 304.402344 119.273438 304.464844 119.703125 Z M 304.457031 119.691406 "/>
</g>
</svg>
